<svg width="80" height="109" viewBox="0 0 80 109" fill="none" xmlns="http://www.w3.org/2000/svg">
<path fill-rule="evenodd" clip-rule="evenodd" d="M25.3506 61.3698C22.7265 62.8011 19.6931 63.2315 16.2878 62.2351C5.75388 59.1526 1.49256 50.9037 0.917217 41.1253C0.0775926 26.8469 7.21556 9.27563 13.5958 0.542595C13.8975 0.128632 14.4776 0.0397339 14.8892 0.341438C15.3032 0.643143 15.3943 1.22317 15.0926 1.63713C8.89947 10.1129 1.95334 27.1603 2.76723 41.0176C3.2958 49.9962 7.13376 57.6254 16.8093 60.4553C19.6884 61.2996 22.247 60.9278 24.4689 59.7233C23.7041 58.2592 22.9907 56.7928 22.3312 55.3264C20.5116 51.2779 17.7916 40.0377 18.8067 31.7724C19.5364 25.8436 22.1815 21.449 27.963 21.6033C31.1765 21.6899 33.5012 23.6919 34.9232 26.8773C36.8807 31.2555 37.1006 37.9632 35.723 44.3902C34.577 49.7413 32.3319 54.889 29.1464 58.3434C28.4448 59.1011 27.701 59.7818 26.9128 60.3665C37.9051 80.4707 58.3251 99.2699 79.2947 107.198C79.7718 107.381 80.015 107.914 79.8326 108.393C79.6525 108.873 79.1169 109.114 78.6398 108.934C57.3287 100.874 36.5697 81.8014 25.3506 61.3698ZM26.0264 58.7036C25.3107 57.326 24.6419 55.9461 24.0221 54.5663C22.2797 50.6862 19.6743 39.9184 20.6472 31.9993C21.2436 27.1393 23.1755 23.3294 27.9139 23.4557C30.4024 23.5235 32.1283 25.1677 33.2322 27.6327C34.4437 30.3457 34.9068 34.02 34.7127 37.9375C34.418 43.885 32.6008 50.3915 29.4388 54.9966C28.4378 56.456 27.2987 57.7213 26.0264 58.7036Z" fill="#DC6962"/>
<path fill-rule="evenodd" clip-rule="evenodd" d="M62.7249 76.86C64.5912 87.7587 71.7152 99.3638 79.3934 107.4C79.7466 107.769 79.7326 108.356 79.363 108.71C78.9935 109.063 78.4064 109.051 78.0533 108.682C70.1341 100.395 62.8231 88.4089 60.8982 77.1734C60.8117 76.6706 61.1509 76.1911 61.6561 76.1046C62.1589 76.018 62.6383 76.3571 62.7249 76.86Z" fill="#DC6962"/>
<path fill-rule="evenodd" clip-rule="evenodd" d="M77.9339 108.877C69.9399 104.312 57.6776 103.68 48.7387 105.993C48.2429 106.122 47.7354 105.825 47.6091 105.329C47.4805 104.833 47.7774 104.328 48.2733 104.199C57.6378 101.776 70.4777 102.485 78.8529 107.268C79.2973 107.521 79.4518 108.089 79.1992 108.533C78.9442 108.978 78.3782 109.132 77.9339 108.877Z" fill="#DC6962"/>
</svg>
