<svg width="18" height="18" viewBox="0 0 18 18" fill="none" xmlns="http://www.w3.org/2000/svg">
<g clip-path="url(#clip0_330_26)">
<path fill-rule="evenodd" clip-rule="evenodd" d="M11.25 11.25C11.25 11.695 11.118 12.13 10.8708 12.5C10.6236 12.87 10.2722 13.1584 9.86104 13.3287C9.44991 13.499 8.99751 13.5436 8.56105 13.4568C8.12459 13.37 7.72368 13.1557 7.40901 12.841C7.09434 12.5263 6.88005 12.1254 6.79323 11.689C6.70642 11.2525 6.75097 10.8001 6.92127 10.389C7.09157 9.97783 7.37996 9.62643 7.74997 9.37919C8.11998 9.13196 8.55499 9 9 9C9.59674 9 10.169 9.23705 10.591 9.65901C11.0129 10.081 11.25 10.6533 11.25 11.25Z" fill="#F3794F"/>
<path fill-rule="evenodd" clip-rule="evenodd" d="M18 14.2499V7.29292C17.9998 6.67889 17.8489 6.0743 17.5604 5.53225C17.2719 4.99021 16.8547 4.52729 16.3455 4.18417L11.0955 0.641172C10.4766 0.221136 9.74577 -0.00341797 8.99776 -0.00341797C8.24974 -0.00341797 7.51895 0.221136 6.9 0.641172L1.65 4.18417C1.14129 4.52747 0.72475 4.99054 0.437031 5.53263C0.149312 6.07472 -0.000765719 6.67921 2.9378e-06 7.29292V14.2499C0.00119383 15.2441 0.396665 16.1973 1.09967 16.9003C1.80267 17.6033 2.75581 17.9987 3.75 17.9999H4.5C4.69892 17.9999 4.88968 17.9209 5.03033 17.7803C5.17099 17.6396 5.25 17.4488 5.25 17.2499C5.25 17.051 5.17099 16.8602 5.03033 16.7196C4.88968 16.5789 4.69892 16.4999 4.5 16.4999H3.75C3.15327 16.4999 2.58097 16.2629 2.15901 15.8409C1.73706 15.419 1.5 14.8467 1.5 14.2499V7.29292C1.49998 6.92461 1.59038 6.56193 1.76325 6.23671C1.93613 5.91149 2.18619 5.63368 2.4915 5.42767L7.7415 1.88542C8.11248 1.63253 8.55103 1.49726 9.00001 1.49726C9.44898 1.49726 9.88753 1.63253 10.2585 1.88542L15.5085 5.42767C15.8138 5.63368 16.0639 5.91149 16.2368 6.23671C16.4096 6.56193 16.5 6.92461 16.5 7.29292V14.2499C16.5 14.8467 16.263 15.419 15.841 15.8409C15.419 16.2629 14.8467 16.4999 14.25 16.4999H13.5C13.3011 16.4999 13.1103 16.5789 12.9697 16.7196C12.829 16.8602 12.75 17.051 12.75 17.2499C12.75 17.4488 12.829 17.6396 12.9697 17.7803C13.1103 17.9209 13.3011 17.9999 13.5 17.9999H14.25C15.2442 17.9987 16.1973 17.6033 16.9003 16.9003C17.6033 16.1973 17.9988 15.2441 18 14.2499ZM13.8531 13.2651C14.117 12.628 14.2519 11.9448 14.25 11.2552C14.2501 10.3914 14.037 9.54104 13.6298 8.77935C13.2225 8.01766 12.6336 7.36823 11.9153 6.88861C11.1969 6.40899 10.3714 6.11401 9.51176 6.02981C8.65214 5.94562 7.78503 6.07481 6.98729 6.40595C6.18956 6.73708 5.48584 7.25991 4.93853 7.92811C4.39122 8.5963 4.01723 9.38921 3.8497 10.2365C3.68217 11.0839 3.72629 11.9594 3.97814 12.7856C4.23 13.6118 4.6818 14.3631 5.2935 14.9729L7.92375 17.5454C8.21235 17.8248 8.59831 17.9811 9.00001 17.9811C9.4017 17.9811 9.78766 17.8248 10.0763 17.5454L12.7125 14.9669C13.2015 14.4807 13.5892 13.9022 13.8531 13.2651ZM12.3073 9.48748C12.5979 10.0313 12.75 10.6385 12.75 11.2552C12.7517 11.7464 12.6561 12.233 12.4687 12.6871C12.2812 13.1411 12.0057 13.5535 11.658 13.9004L8.973 16.4729L6.348 13.9064C5.91201 13.4703 5.59029 12.9334 5.41135 12.3433C5.23241 11.7531 5.20177 11.128 5.32213 10.5232C5.4425 9.91835 5.71017 9.35255 6.10142 8.87589C6.49268 8.39923 6.99545 8.02642 7.56519 7.79047C8.13494 7.55452 8.75409 7.46272 9.36779 7.5232C9.98149 7.58368 10.5708 7.79457 11.0835 8.1372C11.5963 8.47983 12.0166 8.94361 12.3073 9.48748Z" fill="black"/>
</g>
<defs>
<clipPath id="clip0_330_26">
<rect width="18" height="18" fill="white"/>
</clipPath>
</defs>
</svg>
