<svg width="199" height="60" viewBox="0 0 199 60" fill="none" xmlns="http://www.w3.org/2000/svg">
<path d="M35 16.1937H38.0054V36.9311H47.0215V39.9106H35V16.1937ZM56.3833 16.1937C58.1666 16.1937 59.9097 16.7179 61.3924 17.7001C62.8751 18.6823 64.0308 20.0782 64.7132 21.7116C65.3956 23.345 65.5741 25.1422 65.2262 26.876C64.8784 28.6099 64.0197 30.2026 62.7587 31.4527C61.4977 32.7029 59.8912 33.5541 58.1422 33.899C56.3934 34.2439 54.5805 34.0669 52.933 33.3904C51.2854 32.7137 49.8774 31.5681 48.8867 30.0982C47.896 28.6282 47.3672 26.9001 47.3672 25.1322C47.3672 23.9584 47.6004 22.796 48.0534 21.7116C48.5065 20.627 49.1707 19.6417 50.008 18.8118C50.8452 17.9817 51.839 17.3232 52.933 16.874C54.0268 16.4249 55.1994 16.1937 56.3833 16.1937ZM56.3833 31.0912C57.5721 31.0912 58.7343 30.7418 59.7228 30.087C60.7112 29.4321 61.4817 28.5015 61.9365 27.4126C62.3915 26.3237 62.5106 25.1257 62.2785 23.9696C62.0467 22.8137 61.4742 21.752 60.6335 20.9186C59.7929 20.0852 58.722 19.5176 57.556 19.2877C56.3899 19.0577 55.1815 19.1757 54.0832 19.6268C52.9848 20.0778 52.046 20.8416 51.3855 21.8215C50.7251 22.8015 50.3726 23.9537 50.3726 25.1322C50.3805 26.7075 51.0172 28.2156 52.1436 29.3266C53.27 30.4377 54.7944 31.0615 56.3833 31.0615V31.0912ZM50.3726 36.9609H62.3941V39.9404H50.3726V36.9609ZM88.8415 39.9404H85.8361V37.8101C83.8979 39.155 81.5901 39.8778 79.2243 39.8808C77.2069 39.8942 75.2185 39.4041 73.4425 38.4556C71.6663 37.5069 70.1596 36.1305 69.0611 34.453C67.9625 32.7756 67.3073 30.8509 67.1561 28.8565C67.0048 26.8621 67.3623 24.862 68.1956 23.0406C69.0288 21.2191 70.311 19.6347 71.924 18.4337C73.5372 17.2325 75.4292 16.453 77.4258 16.1673C79.4226 15.8814 81.4598 16.0985 83.3496 16.7982C85.2396 17.498 86.9215 18.6579 88.2404 20.1713L86.0315 22.1229C85.0283 21.0109 83.7605 20.1657 82.3433 19.6641C80.9262 19.1623 79.405 19.0202 77.9184 19.2507C76.4317 19.4811 75.0269 20.0769 73.8319 20.9834C72.6369 21.8901 71.6898 23.0786 71.077 24.4411C70.464 25.8035 70.2048 27.2962 70.3229 28.7835C70.441 30.2707 70.9326 31.7049 71.753 32.9554C72.5735 34.2059 73.6965 35.2331 75.0199 35.9431C76.3432 36.6531 77.8248 37.0235 79.3295 37.0205C80.5782 37.023 81.8128 36.7581 82.9488 36.2439C84.0847 35.7296 85.0953 34.9782 85.9113 34.041H77.7967V31.0615H88.8716L88.8415 39.9404ZM99.9013 16.2533C101.685 16.2533 103.428 16.7775 104.91 17.7597C106.393 18.7419 107.549 20.1378 108.231 21.7712C108.914 23.4045 109.092 25.2018 108.744 26.9356C108.396 28.6695 107.538 30.2622 106.277 31.5123C105.016 32.7625 103.409 33.6137 101.66 33.9586C99.9114 34.3035 98.0986 34.1265 96.451 33.45C94.8034 32.7733 93.3954 31.6277 92.4047 30.1578C91.414 28.6878 90.8852 26.9597 90.8852 25.1918C90.8772 24.0104 91.1056 22.8393 91.557 21.746C92.0084 20.6527 92.674 19.6588 93.5152 18.8222C94.3564 17.9854 95.3566 17.3223 96.4579 16.8711C97.5592 16.42 98.7398 16.1896 99.9314 16.1937L99.9013 16.2533ZM99.9013 31.1508C101.09 31.1508 102.252 30.8013 103.241 30.1466C104.229 29.4917 105 28.561 105.455 27.4722C105.91 26.3833 106.029 25.1852 105.797 24.0292C105.565 22.8733 104.992 21.8115 104.152 20.9782C103.311 20.1448 102.24 19.5772 101.074 19.3473C99.908 19.1173 98.6995 19.2353 97.6012 19.6864C96.5028 20.1374 95.564 20.9012 94.9035 21.8811C94.2431 22.8611 93.8906 24.0133 93.8906 25.1918C93.9143 26.7619 94.5621 28.2592 95.6933 29.3584C96.8244 30.4574 98.3476 31.0695 99.9314 31.0615L99.9013 31.1508ZM93.8906 37.0205H105.912V40H93.8906V37.0205ZM112.118 16.1937H115.124V39.8808H112.118V16.1937ZM119.286 16.1937H122.291C122.446 16.1774 122.602 16.1774 122.757 16.1937C124.016 16.0582 125.289 16.1873 126.494 16.5721C127.699 16.957 128.809 17.5891 129.751 18.4274C130.694 19.2657 131.447 20.2914 131.963 21.4376C132.479 22.5838 132.746 23.825 132.746 25.0801C132.746 26.3352 132.479 27.5763 131.963 28.7225C131.447 29.8688 130.694 30.8945 129.751 31.7327C128.809 32.571 127.699 33.2031 126.494 33.5881C125.289 33.9729 124.016 34.1019 122.757 33.9665H122.291V39.9255H119.286V16.1937ZM122.291 19.1732V30.9572H122.757C123.606 31.0692 124.469 31.0002 125.289 30.7546C126.109 30.509 126.866 30.0927 127.51 29.5334C128.155 28.9742 128.671 28.2848 129.025 27.5117C129.378 26.7385 129.561 25.8993 129.561 25.0503C129.561 24.2013 129.378 23.3621 129.025 22.5889C128.671 21.8157 128.155 21.1264 127.51 20.5672C126.866 20.0077 126.109 19.5915 125.289 19.3458C124.469 19.1003 123.606 19.0314 122.757 19.1434C122.594 19.1602 122.432 19.1952 122.276 19.2477L122.291 19.1732ZM143.945 17.9069L141.721 19.6499C141.338 19.2524 140.847 18.9718 140.308 18.841C139.769 18.7102 139.204 18.7346 138.678 18.9114C138.153 19.0881 137.689 19.4099 137.342 19.839C136.994 20.268 136.778 20.7864 136.717 21.3333V21.5717C136.717 22.8827 137.634 23.7616 139.422 23.8808C146.305 24.2979 149.46 27.5009 149.46 31.7318V32C149.282 33.6745 148.623 35.2632 147.561 36.5771C146.499 37.8911 145.079 38.8748 143.469 39.4115C141.859 39.9482 140.128 40.0152 138.481 39.6045C136.833 39.1939 135.34 38.3228 134.178 37.095L136.477 35.3371C137.012 35.9057 137.666 36.352 138.392 36.6454C139.119 36.9385 139.901 37.0717 140.684 37.0354C142.132 37.1111 143.553 36.6294 144.65 35.691C145.748 34.7528 146.438 33.4303 146.575 32V31.7914C146.575 27.8138 142.638 27.0838 139.227 26.7561C136.071 26.4581 133.802 24.5065 133.802 21.6909V21.5717C133.913 20.1058 134.588 18.7382 135.687 17.7514C136.786 16.7644 138.225 16.2334 139.708 16.2682C140.493 16.2452 141.275 16.3857 142.002 16.6808C142.73 16.9759 143.386 17.419 143.93 17.9814L143.945 17.9069ZM161.226 36.8566C164.968 36.8566 167.928 32.8492 167.928 27.9181V16H170.934V27.9181C170.934 34.473 166.606 39.7616 161.286 39.7616C155.967 39.7616 151.639 34.473 151.639 27.9181V16H154.644V27.9181C154.524 32.9236 157.485 36.9311 161.211 36.9311L161.226 36.8566ZM194 39.8361H190.995V25.0875L184.067 34.0261L177.14 25.0875V39.8808H174.134V16.1937L184.052 29.1397L193.97 16.1937L194 39.8361Z" fill="#454545"/>
<path d="M20 13.0972C20 10.9497 19.1572 8.89013 17.6569 7.37162C16.1566 5.85309 14.1217 5 12 5C9.87826 5 7.84344 5.85309 6.34315 7.37162C4.84285 8.89013 4 10.9497 4 13.0972V37.5823L10.5882 42.3603V54H13.4118V42.3603L20 37.5823V13.0972ZM17.1765 26.791L13.4118 30.6015V27.0292L17.1765 23.2187V26.791ZM6.88235 23.2187L10.6471 27.0292V30.6015L6.88235 26.791V23.2187ZM17.1765 19.1701L12 24.4095L6.82353 19.051V15.4787L12 20.7181L17.1765 15.4787V19.1701ZM12 7.85784C13.1385 7.86293 14.2439 8.24562 15.1469 8.94728C16.05 9.64894 16.7009 10.6309 17 11.7427L12 16.7886L7 11.7427C7.28815 10.6198 7.93437 9.62456 8.83843 8.91138C9.74249 8.19819 10.8538 7.80692 12 7.79828V7.85784ZM6.82353 36.1385V30.7801L10.5882 34.5905V38.8475L6.82353 36.1385ZM13.4118 38.8624V34.5905L17.1765 30.7801V36.1236L13.4118 38.8624Z" fill="#454545"/>
</svg>
