<svg width="221" height="69" viewBox="0 0 221 69" fill="none" xmlns="http://www.w3.org/2000/svg">
<path fill-rule="evenodd" clip-rule="evenodd" d="M109.26 11.111C111.347 9.02942 114.729 9.02942 116.816 11.111C118.902 13.1927 118.902 16.5677 116.816 18.6494L104.096 31.3408C100.444 26.4574 100.84 19.5121 105.286 15.0766L109.26 11.111Z" fill="#454545"/>
<path fill-rule="evenodd" clip-rule="evenodd" d="M127.445 39.745C129.532 41.8266 129.532 45.2017 127.445 47.2833C125.36 49.365 121.976 49.365 119.89 47.2833L107.17 34.5921C112.064 30.9483 119.025 31.344 123.471 35.7795L127.445 39.745Z" fill="#454545"/>
<path fill-rule="evenodd" clip-rule="evenodd" d="M98.7461 57.8888C96.6599 59.9705 93.2771 59.9705 91.1908 57.8888C89.1044 55.8071 89.1044 52.4321 91.1908 50.3504L103.911 37.6592C107.563 42.5426 107.166 49.4879 102.721 53.9232L98.7461 57.8888Z" fill="#454545"/>
<path fill-rule="evenodd" clip-rule="evenodd" d="M80.5619 29.2549C78.4755 27.1732 78.4755 23.7982 80.5619 21.7165C82.6483 19.6348 86.031 19.6348 88.1174 21.7165L100.838 34.4079C95.943 38.0517 88.9818 37.6558 84.5364 33.2205L80.5619 29.2549Z" fill="#454545"/>
<path fill-rule="evenodd" clip-rule="evenodd" d="M106.418 56.3342C109.494 52.9214 110.924 48.5545 110.707 44.2549L116.816 50.35C116.831 50.3651 116.847 50.3803 116.862 50.3954V54.7469C116.862 57.6908 114.47 60.0773 111.52 60.0773C109.123 60.0773 107.095 58.5029 106.418 56.3342Z" fill="#454545"/>
<path fill-rule="evenodd" clip-rule="evenodd" d="M82.1198 36.9087C85.5401 39.9783 89.917 41.4049 94.2263 41.1885L88.1176 47.2836C88.1022 47.2987 88.087 47.314 88.072 47.3292H83.7107C80.7601 47.3293 78.3682 44.9427 78.3682 41.9988C78.3682 39.6078 79.9461 37.5843 82.1198 36.9087Z" fill="#454545"/>
<path fill-rule="evenodd" clip-rule="evenodd" d="M125.888 32.0911C122.467 29.0215 118.091 27.5948 113.781 27.8111L119.89 21.7162C119.905 21.701 119.92 21.6857 119.936 21.6704H124.297C127.248 21.6704 129.64 24.0571 129.64 27.001C129.64 29.3921 128.061 31.4155 125.888 32.0911Z" fill="#454545"/>
<path fill-rule="evenodd" clip-rule="evenodd" d="M101.59 12.6656C98.5131 16.0783 97.0833 20.4452 97.3001 24.745L91.1914 18.6499C91.176 18.6347 91.1608 18.6196 91.1455 18.6044V14.2529C91.1455 11.309 93.5374 8.92236 96.488 8.92236C98.8846 8.92236 100.913 10.4969 101.59 12.6656Z" fill="#454545"/>
<path fill-rule="evenodd" clip-rule="evenodd" d="M96.4879 4.58545C91.1367 4.58545 86.7986 8.9137 86.7986 14.2528V16.133C83.5792 15.2938 80.0113 16.1326 77.4885 18.6497C73.7046 22.4251 73.7046 28.5461 77.4885 32.3215L78.8209 33.6509C75.9497 35.3288 74.0215 38.4391 74.0215 41.9987C74.0215 47.3378 78.3595 51.6661 83.7108 51.6661H85.5951C84.754 54.8782 85.5947 58.438 88.1175 60.955C91.9014 64.7303 98.0364 64.7303 101.82 60.955L105.795 56.9896C109.301 53.4914 110.938 48.8348 110.707 44.2547L116.816 50.3498C120.6 54.1252 126.735 54.1252 130.519 50.3498C134.303 46.5745 134.303 40.4534 130.519 36.6782L129.187 35.3489C132.057 33.671 133.986 30.5608 133.986 27.0011C133.986 21.662 129.647 17.3338 124.297 17.3338H122.412C123.254 14.1215 122.413 10.5617 119.89 8.0446C116.106 4.26925 109.971 4.26925 106.187 8.0446L102.213 12.0101C98.7066 15.5083 97.0691 20.1647 97.3002 24.7448L91.1912 18.6497C91.1759 18.6346 91.1607 18.6194 91.1454 18.6043V14.2528C91.1454 11.3089 93.5373 8.9224 96.4879 8.9224C98.8844 8.9224 100.912 10.4968 101.59 12.6655C101.79 12.4429 101.998 12.2243 102.213 12.0101L104.855 9.37405C103.173 6.50935 100.056 4.58545 96.4879 4.58545ZM119.935 21.6707C119.92 21.6859 119.905 21.7012 119.89 21.7163L113.781 27.8113C118.091 27.595 122.467 29.0215 125.887 32.0912C128.061 31.4156 129.64 29.3921 129.64 27.0011C129.64 24.0572 127.248 21.6707 124.297 21.6707H119.935ZM88.0718 47.3291C88.087 47.3138 88.1022 47.2985 88.1175 47.2834L94.2263 41.1883C89.9169 41.4047 85.5402 39.9781 82.1199 36.9086C79.9462 37.5842 78.3681 39.6076 78.3681 41.9987C78.3681 44.9426 80.7602 47.3291 83.7108 47.3291H88.0718ZM81.9533 36.7571C81.7875 36.6043 81.624 36.4475 81.463 36.2869V36.287C81.624 36.4477 81.7875 36.6043 81.9533 36.7571ZM111.52 64.4144C107.952 64.4144 104.834 62.4904 103.153 59.6257L105.795 56.9896C106.01 56.7754 106.217 56.5568 106.418 56.3342C107.095 58.5029 109.123 60.0775 111.52 60.0775C114.47 60.0775 116.862 57.691 116.862 54.7471V50.3956C118.114 51.6284 119.619 52.4522 121.209 52.8667V54.7471C121.209 60.0862 116.871 64.4144 111.52 64.4144ZM116.816 11.1112C114.73 9.02965 111.347 9.02965 109.261 11.1112L105.286 15.0767C100.841 19.5122 100.444 26.4575 104.096 31.3409L116.816 18.6496C118.903 16.5679 118.903 13.1929 116.816 11.1112ZM127.445 47.2832C129.532 45.2015 129.532 41.8265 127.445 39.7448L123.471 35.7793C119.025 31.3439 112.064 30.9481 107.17 34.5919L119.89 47.2832C121.976 49.3649 125.36 49.3649 127.445 47.2832ZM98.7466 57.8884C96.6602 59.9701 93.2775 59.9701 91.1911 57.8884C89.1048 55.8067 89.1048 52.4317 91.1911 50.35L103.911 37.6586C107.563 42.542 107.167 49.4875 102.721 53.9228L98.7466 57.8884ZM80.562 21.7163C78.4758 23.798 78.4758 27.173 80.562 29.2547L84.5366 33.2203C88.9821 37.6556 95.9432 38.0515 100.838 34.4077L88.1175 21.7163C86.0311 19.6348 82.6485 19.6348 80.562 21.7163Z" fill="#454545"/>
<path d="M2.30469 24.1348H7.05634V38.8666H15.2174V42.8575H2.30469V24.1348Z" fill="#454545"/>
<path d="M23.8448 43.2595C22.252 43.2595 20.8559 42.9737 19.6568 42.4024C18.4577 41.813 17.5271 41.0095 16.8648 39.9917C16.2206 38.956 15.8984 37.7686 15.8984 36.4292C15.8984 35.09 16.2206 33.9115 16.8648 32.8937C17.5271 31.858 18.4577 31.0544 19.6568 30.4831C20.8559 29.8937 22.252 29.5991 23.8448 29.5991C25.4377 29.5991 26.8336 29.8937 28.0327 30.4831C29.2318 31.0544 30.1535 31.858 30.7977 32.8937C31.46 33.9115 31.791 35.09 31.791 36.4292C31.791 37.7686 31.46 38.956 30.7977 39.9917C30.1535 41.0095 29.2318 41.813 28.0327 42.4024C26.8336 42.9737 25.4377 43.2595 23.8448 43.2595ZM23.8448 39.5899C24.7933 39.5899 25.545 39.3131 26.0998 38.7596C26.6726 38.1881 26.9588 37.4114 26.9588 36.4292C26.9588 35.4472 26.6726 34.6793 26.0998 34.1258C25.545 33.5543 24.7933 33.2687 23.8448 33.2687C22.8962 33.2687 22.1356 33.5543 21.563 34.1258C21.008 34.6793 20.7307 35.4472 20.7307 36.4292C20.7307 37.4114 21.008 38.1881 21.563 38.7596C22.1356 39.3131 22.8962 39.5899 23.8448 39.5899Z" fill="#454545"/>
<path d="M40.6657 49.0183C39.8066 49.0183 38.9386 48.9379 38.0616 48.7772C37.2026 48.6164 36.4598 48.4022 35.8335 48.1343V44.8666C37.2473 45.4736 38.858 45.7772 40.6657 45.7772C41.9721 45.7772 42.9118 45.5093 43.4844 44.9737C44.0751 44.438 44.3704 43.6523 44.3704 42.6166V41.8399C43.8514 42.2863 43.207 42.6344 42.4374 42.8845C41.6857 43.1345 40.8804 43.2595 40.0213 43.2595C38.6612 43.2595 37.4621 42.9737 36.424 42.4024C35.386 41.8309 34.5716 41.0273 33.9811 39.9917C33.4083 38.956 33.1221 37.7686 33.1221 36.4292C33.1221 35.0722 33.4083 33.8758 33.9811 32.8402C34.5538 31.8044 35.3591 31.0097 36.3972 30.4562C37.4352 29.8849 38.6254 29.5991 39.9677 29.5991C41.8111 29.5991 43.3323 30.1616 44.5314 31.2866V30.0008H49.0953V41.9738C49.0953 44.2058 48.4061 45.938 47.0281 47.1701C45.668 48.4022 43.5471 49.0183 40.6657 49.0183ZM41.2026 39.6167C41.9364 39.6167 42.5896 39.4292 43.1622 39.0542C43.735 38.6792 44.1376 38.1793 44.3704 37.5542V35.3044C44.1198 34.6793 43.7081 34.1882 43.1355 33.8311C42.5627 33.4562 41.9185 33.2687 41.2026 33.2687C40.2362 33.2687 39.4576 33.5543 38.867 34.1258C38.2763 34.6793 37.9811 35.4382 37.9811 36.4025C37.9811 37.3846 38.2763 38.1703 38.867 38.7596C39.4576 39.331 40.2362 39.6167 41.2026 39.6167Z" fill="#454545"/>
<path d="M58.2403 43.2595C56.6475 43.2595 55.2516 42.9737 54.0524 42.4024C52.8533 41.813 51.9226 41.0095 51.2605 39.9917C50.6161 38.956 50.2939 37.7686 50.2939 36.4292C50.2939 35.09 50.6161 33.9115 51.2605 32.8937C51.9226 31.858 52.8533 31.0544 54.0524 30.4831C55.2516 29.8937 56.6475 29.5991 58.2403 29.5991C59.8332 29.5991 61.2291 29.8937 62.4282 30.4831C63.6273 31.0544 64.549 31.858 65.1934 32.8937C65.8555 33.9115 66.1867 35.09 66.1867 36.4292C66.1867 37.7686 65.8555 38.956 65.1934 39.9917C64.549 41.0095 63.6273 41.813 62.4282 42.4024C61.2291 42.9737 59.8332 43.2595 58.2403 43.2595ZM58.2403 39.5899C59.1888 39.5899 59.9405 39.3131 60.4954 38.7596C61.0681 38.1881 61.3545 37.4114 61.3545 36.4292C61.3545 35.4472 61.0681 34.6793 60.4954 34.1258C59.9405 33.5543 59.1888 33.2687 58.2403 33.2687C57.2918 33.2687 56.5311 33.5543 55.9585 34.1258C55.4036 34.6793 55.1262 35.4472 55.1262 36.4292C55.1262 37.4114 55.4036 38.1881 55.9585 38.7596C56.5311 39.3131 57.2918 39.5899 58.2403 39.5899Z" fill="#454545"/>
<path d="M141.969 24.1348H146.721V42.8575H141.969V24.1348Z" fill="#454545"/>
<path d="M149.127 30.0008H153.691V31.2866C154.889 30.1616 156.411 29.5991 158.254 29.5991C159.596 29.5991 160.787 29.8849 161.825 30.4562C162.863 31.0097 163.668 31.8044 164.24 32.8402C164.813 33.8579 165.1 35.0455 165.1 36.4025C165.1 37.7417 164.813 38.9381 164.24 39.9917C163.668 41.0273 162.863 41.8309 161.825 42.4024C160.805 42.9737 159.615 43.2595 158.254 43.2595C157.396 43.2595 156.572 43.1255 155.785 42.8576C155.016 42.6077 154.371 42.2594 153.852 41.813V48.7235H149.127V30.0008ZM157.02 39.5899C157.986 39.5899 158.765 39.3043 159.354 38.7328C159.945 38.1614 160.241 37.3846 160.241 36.4025C160.241 35.4203 159.945 34.6526 159.354 34.099C158.765 33.5276 157.986 33.2419 157.02 33.2419C156.304 33.2419 155.659 33.4294 155.086 33.8044C154.513 34.1615 154.103 34.6526 153.852 35.2775V37.5542C154.103 38.1793 154.513 38.6792 155.086 39.0542C155.659 39.4114 156.304 39.5899 157.02 39.5899Z" fill="#454545"/>
<path d="M172.144 43.2595C171.107 43.2595 170.024 43.1524 168.897 42.938C167.769 42.7417 166.873 42.4559 166.212 42.0809V38.6257C166.945 39.0542 167.822 39.4114 168.843 39.6971C169.88 39.9649 170.829 40.0988 171.689 40.0988C172.314 40.0988 172.771 40.0541 173.057 39.9649C173.344 39.8756 173.487 39.6971 173.487 39.4292C173.487 39.2149 173.389 39.0452 173.192 38.9203C173.013 38.7775 172.672 38.6345 172.171 38.4917C171.689 38.3311 171.125 38.1614 170.48 37.9828C169.388 37.6613 168.53 37.331 167.903 36.9917C167.276 36.6524 166.812 36.2239 166.506 35.7061C166.203 35.1883 166.051 34.5365 166.051 33.7508C166.051 32.3579 166.597 31.3223 167.688 30.6437C168.798 29.9473 170.31 29.5991 172.225 29.5991C173.156 29.5991 174.132 29.6974 175.151 29.8937C176.19 30.0902 176.967 30.3491 177.487 30.6706V34.0723C176.95 33.7151 176.233 33.4204 175.339 33.1883C174.462 32.9561 173.638 32.8402 172.869 32.8402C172.261 32.8402 171.786 32.9026 171.446 33.0275C171.107 33.1348 170.937 33.3311 170.937 33.6169C170.937 33.8848 171.107 34.0901 171.446 34.2329C171.786 34.3757 172.395 34.5544 173.272 34.7686C173.844 34.9115 174.086 34.9739 173.996 34.9561C175.142 35.2597 176.027 35.599 176.654 35.974C177.281 36.349 177.719 36.7954 177.97 37.3132C178.239 37.8131 178.373 38.456 178.373 39.2417C178.373 40.4738 177.836 41.4559 176.763 42.188C175.706 42.9023 174.166 43.2595 172.144 43.2595Z" fill="#454545"/>
<path d="M185.427 43.2591C183.656 43.2591 182.322 42.768 181.428 41.786C180.551 40.8038 180.112 39.5093 180.112 37.9022V30.0005H184.837V37.3664C184.837 38.8485 185.508 39.5895 186.851 39.5895C187.459 39.5895 188.014 39.4467 188.515 39.161C189.015 38.8752 189.427 38.4557 189.749 37.9022V30.0005H194.474V42.8573H189.911V41.4645C189.357 42.0537 188.685 42.5001 187.897 42.8037C187.111 43.1073 186.287 43.2591 185.427 43.2591Z" fill="#454545"/>
<path d="M196.893 30.0008H201.269V31.3937C201.806 30.8224 202.424 30.3848 203.121 30.0812C203.819 29.7598 204.561 29.5991 205.349 29.5991C206.316 29.5991 207.086 29.7419 207.658 30.0277C208.249 30.3134 208.723 30.742 209.081 31.3133C209.617 30.7777 210.271 30.358 211.041 30.0545C211.811 29.7509 212.59 29.5991 213.376 29.5991C215.076 29.5991 216.285 30.0367 217.001 30.9116C217.716 31.7687 218.074 33.0097 218.074 34.6346V42.8576H213.564V35.3044C213.564 34.5901 213.43 34.0723 213.161 33.7508C212.893 33.4294 212.445 33.2687 211.82 33.2687C211.014 33.2687 210.36 33.5543 209.859 34.1258C209.877 34.4293 209.886 34.8937 209.886 35.5186V42.8576H205.376V35.1169C205.376 34.4561 205.261 33.9829 205.027 33.6973C204.794 33.4115 204.383 33.2687 203.793 33.2687C202.879 33.2687 202.093 33.7775 201.43 34.7954V42.8576H196.893V30.0008Z" fill="#454545"/>
</svg>
