<svg width="30" height="30" viewBox="0 0 21 21" fill="none" xmlns="http://www.w3.org/2000/svg">
<path d="M1.29251 20.0919H4.01349C4.13017 20.0919 4.24209 20.0457 4.32465 19.9633C4.4072 19.8808 4.45362 19.769 4.45362 19.6524V12.8615C4.45362 12.7448 4.4072 12.633 4.32465 12.5506C4.24209 12.4682 4.13017 12.4219 4.01349 12.4219H1.29251C1.17584 12.4219 1.06391 12.4682 0.981361 12.5506C0.898804 12.633 0.852393 12.7448 0.852393 12.8615V19.6524C0.852393 19.769 0.898804 19.8808 0.981361 19.9633C1.06391 20.0457 1.17584 20.0919 1.29251 20.0919ZM3.57337 13.301V19.2128H1.73264V13.301H3.57337Z" fill="black" stroke="black" stroke-width="0.2"/>
<path d="M12.8566 16.5965L12.8567 16.6965C13.1537 16.6961 13.4384 16.5782 13.6484 16.3686C13.8585 16.1589 13.9767 15.8745 13.977 15.5779V15.5777C13.9762 14.921 13.7146 14.2915 13.2495 13.8272C12.7844 13.3629 12.1539 13.1018 11.4962 13.101H11.4961H9.57533C8.70135 12.6385 7.72406 12.4048 6.73481 12.4219C5.69802 12.3958 4.674 12.655 3.77497 13.1713L3.77483 13.1711L3.7686 13.1753C3.67266 13.2404 3.60631 13.3408 3.58406 13.4546C3.56182 13.5684 3.58548 13.6863 3.64987 13.7827C3.71426 13.8791 3.81415 13.9462 3.92778 13.9694C4.0402 13.9924 4.15712 13.9706 4.25365 13.9088C5.00978 13.4873 5.8659 13.2773 6.73168 13.301L6.73167 13.3011L6.73679 13.301C7.60227 13.2804 8.4576 13.4902 9.21497 13.9087C9.28646 13.9553 9.36998 13.9801 9.45536 13.9801H9.45539L11.496 13.9801C11.496 13.9801 11.4961 13.9801 11.4961 13.9801C11.4961 13.9801 11.4961 13.9801 11.4961 13.9801C11.9205 13.9806 12.3274 14.1492 12.6274 14.4487C12.9275 14.7483 13.0962 15.1544 13.0967 15.5779L13.1967 15.5778M12.8566 16.5965V15.9174C12.9468 15.9173 13.0333 15.8815 13.097 15.8178C13.1608 15.7542 13.1967 15.6679 13.1967 15.5778M12.8566 16.5965V16.6965H8.77515C8.65847 16.6965 8.54655 16.6502 8.46399 16.5678C8.38143 16.4854 8.33502 16.3736 8.33502 16.2569C8.33502 16.1403 8.38143 16.0285 8.46399 15.9461C8.54655 15.8636 8.65847 15.8174 8.77515 15.8174H12.8565C12.9203 15.8173 12.9814 15.792 13.0264 15.7471C13.0714 15.7021 13.0967 15.6412 13.0967 15.5777L13.1967 15.5778M12.8566 16.5965L11.4961 13.8801C11.947 13.8806 12.3792 14.0597 12.6981 14.3779C13.0169 14.6962 13.1962 15.1277 13.1967 15.5778" fill="black" stroke="black" stroke-width="0.2"/>
<path d="M12.2919 18.5337H12.2919C12.6193 18.5338 12.9428 18.4635 13.2404 18.3274C13.538 18.1914 13.8027 17.9929 14.0165 17.7455L14.0166 17.7455L19.1048 11.8645L19.1051 11.8642C19.1855 11.772 19.2277 11.6527 19.223 11.5306C19.2183 11.4086 19.1671 11.293 19.08 11.2072C18.8537 10.988 18.5557 10.8577 18.2408 10.8404C17.926 10.8231 17.6155 10.9198 17.3666 11.1128C17.3664 11.1129 17.3662 11.1131 17.366 11.1132L13.1827 14.4543C13.1827 14.4543 13.1827 14.4543 13.1827 14.4543C13.1375 14.4903 13.0858 14.5172 13.0303 14.5332C12.9748 14.5493 12.9166 14.5543 12.8592 14.5479C12.8018 14.5416 12.7462 14.524 12.6955 14.4962C12.6449 14.4684 12.6002 14.4309 12.5641 14.3858C12.528 14.3407 12.5011 14.289 12.485 14.2336C12.4688 14.1781 12.4638 14.12 12.4702 14.0626C12.4766 14.0052 12.4942 13.9496 12.5221 13.8991C12.55 13.8485 12.5875 13.8039 12.6327 13.7678L12.6327 13.7678L16.816 10.4268C16.816 10.4268 16.8161 10.4268 16.8161 10.4267C17.2318 10.0928 17.7564 9.92425 18.2891 9.95338C18.8218 9.98252 19.3249 10.2074 19.7016 10.5847L19.7017 10.5848C19.9442 10.8287 20.086 11.1547 20.099 11.4981C20.1119 11.8416 19.9949 12.1773 19.7714 12.4386L19.771 12.4391L14.6826 18.3201L12.2919 18.5337ZM12.2919 18.5337H4.01334C3.89667 18.5337 3.78474 18.58 3.70219 18.6624C3.61963 18.7448 3.57322 18.8567 3.57322 18.9733C3.57322 19.0899 3.61963 19.2017 3.70219 19.2842C3.78474 19.3666 3.89667 19.4128 4.01334 19.4128H12.2919M12.2919 18.5337L12.2919 19.4128M12.2919 19.4128C12.2919 19.4128 12.2919 19.4128 12.2919 19.4128C12.7456 19.413 13.1941 19.3154 13.6066 19.1269C14.0192 18.9383 14.3862 18.6632 14.6826 18.3202L12.2919 19.4128Z" fill="black" stroke="black" stroke-width="0.2"/>
<path d="M13.1968 6.41007H11.156C11.0658 6.41007 10.9793 6.37429 10.9155 6.31061C10.8517 6.24694 10.8159 6.16057 10.8159 6.07052C10.8159 5.98046 10.8517 5.8941 10.9155 5.83042C10.9793 5.76674 11.0658 5.73097 11.156 5.73097H13.1968C13.4673 5.73067 13.7267 5.62326 13.9179 5.43229C14.1092 5.24132 14.2168 4.9824 14.2171 4.71233V3.0146H6.73444V4.71233C6.73474 4.9824 6.84234 5.24132 7.03363 5.43229C7.22492 5.62326 7.48428 5.73067 7.75481 5.73097H9.79554C9.88575 5.73097 9.97226 5.76674 10.036 5.83042C10.0998 5.8941 10.1357 5.98046 10.1357 6.07052C10.1357 6.16057 10.0998 6.24694 10.036 6.31061C9.97226 6.37429 9.88575 6.41007 9.79554 6.41007H7.75481C7.30394 6.40954 6.87169 6.2305 6.55288 5.91222C6.23407 5.59395 6.05473 5.16244 6.0542 4.71233V2.67505C6.0542 2.585 6.09003 2.49863 6.15382 2.43495C6.2176 2.37128 6.30412 2.3355 6.39432 2.3355H14.5573C14.6475 2.3355 14.734 2.37128 14.7978 2.43495C14.8615 2.49863 14.8974 2.585 14.8974 2.67505V4.71233C14.8968 5.16244 14.7175 5.59395 14.3987 5.91222C14.0799 6.2305 13.6476 6.40954 13.1968 6.41007Z" fill="#F3794F"/>
<path d="M11.8362 3.01459H9.11527C9.02506 3.01459 8.93855 2.97882 8.87477 2.91514C8.81098 2.85147 8.77515 2.7651 8.77515 2.67505V1.31686C8.77515 1.22681 8.81098 1.14044 8.87477 1.07676C8.93855 1.01309 9.02506 0.977314 9.11527 0.977314H11.8362C11.9265 0.977314 12.013 1.01309 12.0767 1.07676C12.1405 1.14044 12.1764 1.22681 12.1764 1.31686V2.67505C12.1764 2.7651 12.1405 2.85147 12.0767 2.91514C12.013 2.97882 11.9265 3.01459 11.8362 3.01459ZM9.45539 2.3355H11.4961V1.65641H9.45539V2.3355Z" fill="#F3794F"/>
<path d="M14.2171 9.80553H6.73441C6.6442 9.80553 6.55769 9.76976 6.49391 9.70608C6.43012 9.64241 6.39429 9.55604 6.39429 9.46599V5.60873C6.39429 5.51868 6.43012 5.43232 6.49391 5.36864C6.55769 5.30496 6.6442 5.26919 6.73441 5.26919C6.82462 5.26919 6.91113 5.30496 6.97491 5.36864C7.0387 5.43232 7.07453 5.51868 7.07453 5.60873V9.12644H13.877V5.60873C13.877 5.51868 13.9128 5.43232 13.9766 5.36864C14.0404 5.30496 14.1269 5.26919 14.2171 5.26919C14.3073 5.26919 14.3938 5.30496 14.4576 5.36864C14.5214 5.43232 14.5572 5.51868 14.5572 5.60873V9.46599C14.5572 9.55604 14.5214 9.64241 14.4576 9.70608C14.3938 9.76976 14.3073 9.80553 14.2171 9.80553Z" fill="#F3794F"/>
<path d="M11.1561 7.08916H9.79557C9.70536 7.08916 9.61885 7.05338 9.55506 6.98971C9.49128 6.92603 9.45544 6.83966 9.45544 6.74961V5.39142C9.45544 5.30137 9.49128 5.215 9.55506 5.15133C9.61885 5.08765 9.70536 5.05188 9.79557 5.05188H11.1561C11.2463 5.05188 11.3328 5.08765 11.3966 5.15133C11.4603 5.215 11.4962 5.30137 11.4962 5.39142V6.74961C11.4962 6.83966 11.4603 6.92603 11.3966 6.98971C11.3328 7.05338 11.2463 7.08916 11.1561 7.08916ZM10.1357 6.41006H10.8159V5.73097H10.1357V6.41006Z" fill="#F3794F"/>
</svg>
