<svg width="89" height="66" viewBox="0 0 89 66" fill="none" xmlns="http://www.w3.org/2000/svg">
<path d="M86.4558 52.1411L66.7681 32.2991C68.9241 27.3696 69.2957 21.8343 67.8182 16.6572C66.3406 11.4801 63.1076 6.98905 58.682 3.96607C54.2565 0.943083 48.9186 -0.420331 43.5981 0.113222C38.2775 0.646776 33.3112 3.0435 29.5639 6.88606C25.8166 10.7286 23.5257 15.7736 23.0901 21.1426C22.6545 26.5116 24.1018 31.8644 27.18 36.269C30.2582 40.6737 34.7723 43.8511 39.9362 45.2481C45.1002 46.645 50.5869 46.173 55.441 43.9142L75.0279 63.6523C76.5466 65.1629 78.5969 66.0069 80.7311 66C82.8653 65.993 84.9101 65.1358 86.4193 63.6154C87.9284 62.095 88.7792 60.0349 88.7861 57.8847C88.7929 55.7345 87.9552 53.6689 86.4558 52.1388V52.1411ZM33.3393 35.6042C30.862 33.1092 29.1747 29.9301 28.4909 26.4689C27.8072 23.0078 28.1575 19.4201 29.4977 16.1596C30.8379 12.899 33.1078 10.1122 36.0202 8.15144C38.9326 6.19069 42.3568 5.14413 45.8596 5.14413C49.3624 5.14413 52.7866 6.19069 55.699 8.15144C58.6114 10.1122 60.8813 12.899 62.2215 16.1596C63.5617 19.4201 63.912 23.0078 63.2282 26.4689C62.5444 29.9301 60.8572 33.1092 58.3799 35.6042C55.0554 38.9421 50.5532 40.8164 45.8596 40.8164C41.166 40.8164 36.6638 38.9421 33.3393 35.6042ZM82.8108 59.98C82.2636 60.5311 81.5214 60.8408 80.7476 60.8408C79.9738 60.8408 79.2316 60.5311 78.6844 59.98L59.9709 41.1219C61.5049 39.901 62.8784 38.4885 64.0584 36.9184L82.8039 55.8088C83.3488 56.3613 83.6546 57.1086 83.6546 57.8875C83.6546 58.6663 83.3488 59.4136 82.8039 59.9661L82.8108 59.98Z" fill="url(#paint0_linear_321_6495)"/>
<path d="M3.36516 31.0796H14.369C15.053 31.0796 15.709 30.8059 16.1927 30.3186C16.6763 29.8313 16.9481 29.1704 16.9481 28.4813C16.9481 27.7922 16.6763 27.1313 16.1927 26.644C15.709 26.1567 15.053 25.883 14.369 25.883H3.36516C2.68116 25.883 2.02517 26.1567 1.54151 26.644C1.05785 27.1313 0.786133 27.7922 0.786133 28.4813C0.786133 29.1704 1.05785 29.8313 1.54151 30.3186C2.02517 30.8059 2.68116 31.0796 3.36516 31.0796Z" fill="url(#paint1_linear_321_6495)"/>
<path d="M3.36516 42.1658H18.4955C19.1795 42.1658 19.8355 41.892 20.3191 41.4048C20.8028 40.9175 21.0745 40.2566 21.0745 39.5675C21.0745 38.8783 20.8028 38.2175 20.3191 37.7302C19.8355 37.2429 19.1795 36.9691 18.4955 36.9691H3.36516C2.68116 36.9691 2.02517 37.2429 1.54151 37.7302C1.05785 38.2175 0.786133 38.8783 0.786133 39.5675C0.786133 40.2566 1.05785 40.9175 1.54151 41.4048C2.02517 41.892 2.68116 42.1658 3.36516 42.1658Z" fill="url(#paint2_linear_321_6495)"/>
<path d="M3.36516 53.252H29.4856C30.1696 53.252 30.8256 52.9783 31.3093 52.491C31.7929 52.0037 32.0646 51.3428 32.0646 50.6537C32.0646 49.9646 31.7929 49.3037 31.3093 48.8164C30.8256 48.3291 30.1696 48.0553 29.4856 48.0553H3.36516C2.68116 48.0553 2.02517 48.3291 1.54151 48.8164C1.05785 49.3037 0.786133 49.9646 0.786133 50.6537C0.786133 51.3428 1.05785 52.0037 1.54151 52.491C2.02517 52.9783 2.68116 53.252 3.36516 53.252Z" fill="url(#paint3_linear_321_6495)"/>
<path d="M59.7303 59.1416H3.36525C2.69426 59.1617 2.05745 59.4444 1.5899 59.9297C1.12235 60.415 0.86084 61.0647 0.86084 61.741C0.86084 62.4174 1.12235 63.0671 1.5899 63.5524C2.05745 64.0377 2.69426 64.3204 3.36525 64.3405H59.7303C60.4013 64.3204 61.0381 64.0377 61.5056 63.5524C61.9732 63.0671 62.2347 62.4174 62.2347 61.741C62.2347 61.0647 61.9732 60.415 61.5056 59.9297C61.0381 59.4444 60.4013 59.1617 59.7303 59.1416Z" fill="url(#paint4_linear_321_6495)"/>
<defs>
<linearGradient id="paint0_linear_321_6495" x1="21.2861" y1="11.5" x2="83.2861" y2="64.5" gradientUnits="userSpaceOnUse">
<stop stop-color="#E63A28"/>
<stop offset="1" stop-color="#E4766A"/>
</linearGradient>
<linearGradient id="paint1_linear_321_6495" x1="21.2861" y1="11.5" x2="83.2861" y2="64.5" gradientUnits="userSpaceOnUse">
<stop stop-color="#E63A28"/>
<stop offset="1" stop-color="#E4766A"/>
</linearGradient>
<linearGradient id="paint2_linear_321_6495" x1="21.2861" y1="11.5" x2="83.2861" y2="64.5" gradientUnits="userSpaceOnUse">
<stop stop-color="#E63A28"/>
<stop offset="1" stop-color="#E4766A"/>
</linearGradient>
<linearGradient id="paint3_linear_321_6495" x1="21.2861" y1="11.5" x2="83.2861" y2="64.5" gradientUnits="userSpaceOnUse">
<stop stop-color="#E63A28"/>
<stop offset="1" stop-color="#E4766A"/>
</linearGradient>
<linearGradient id="paint4_linear_321_6495" x1="21.2861" y1="11.5" x2="83.2861" y2="64.5" gradientUnits="userSpaceOnUse">
<stop stop-color="#E63A28"/>
<stop offset="1" stop-color="#E4766A"/>
</linearGradient>
</defs>
</svg>
