<svg width="77" height="66" viewBox="0 0 77 66" fill="none" xmlns="http://www.w3.org/2000/svg">
<path d="M38.7861 25.7473C41.3403 25.7473 43.8371 24.9923 45.9608 23.5777C48.0845 22.1632 49.7397 20.1526 50.7172 17.8002C51.6946 15.4479 51.9503 12.8594 51.4521 10.3621C50.9538 7.8649 49.7238 5.57103 47.9178 3.77062C46.1117 1.9702 43.8106 0.744103 41.3055 0.247369C38.8005 -0.249364 36.2039 0.00557858 33.8441 0.979956C31.4844 1.95433 29.4675 3.60439 28.0485 5.72145C26.6295 7.83851 25.8721 10.3275 25.8721 12.8737C25.8757 16.2869 27.2375 19.5592 29.6586 21.9727C32.0796 24.3862 35.3622 25.7437 38.7861 25.7473ZM38.7861 4.4392C40.4595 4.4392 42.0954 4.93388 43.4868 5.86067C44.8782 6.78746 45.9626 8.10474 46.603 9.64594C47.2434 11.1871 47.411 12.883 47.0845 14.5192C46.758 16.1553 45.9522 17.6582 44.7689 18.8377C43.5856 20.0173 42.078 20.8206 40.4368 21.1461C38.7955 21.4715 37.0943 21.3045 35.5483 20.6661C34.0022 20.0277 32.6808 18.9467 31.7511 17.5596C30.8214 16.1726 30.3252 14.5419 30.3252 12.8737C30.3278 10.6375 31.2201 8.49369 32.8062 6.91249C34.3924 5.33128 36.543 4.44181 38.7861 4.4392Z" fill="url(#paint0_linear_321_6494)"/>
<path d="M64.9111 25.7473C66.5258 25.7473 68.1043 25.27 69.4468 24.3758C70.7894 23.4815 71.8358 22.2104 72.4537 20.7233C73.0717 19.2362 73.2333 17.5998 72.9183 16.0211C72.6033 14.4423 71.8258 12.9922 70.684 11.854C69.5422 10.7158 68.0875 9.94069 66.5039 9.62667C64.9202 9.31264 63.2787 9.47381 61.7869 10.0898C60.2951 10.7058 59.02 11.7489 58.123 13.0873C57.2259 14.4257 56.7471 15.9992 56.7471 17.6088C56.7492 19.7666 57.61 21.8355 59.1406 23.3613C60.6712 24.8871 62.7465 25.7453 64.9111 25.7473ZM64.9111 13.9095C65.6451 13.9095 66.3626 14.1264 66.9728 14.5329C67.5831 14.9394 68.0587 15.5172 68.3396 16.1931C68.6205 16.8691 68.694 17.6129 68.5508 18.3305C68.4076 19.0481 68.0542 19.7073 67.5352 20.2246C67.0162 20.742 66.3549 21.0943 65.6351 21.2371C64.9153 21.3798 64.1691 21.3065 63.491 21.0266C62.8129 20.7466 62.2334 20.2724 61.8256 19.6641C61.4178 19.0557 61.2002 18.3405 61.2002 17.6088C61.2012 16.628 61.5925 15.6877 62.2883 14.9941C62.984 14.3006 63.9273 13.9105 64.9111 13.9095Z" fill="url(#paint1_linear_321_6494)"/>
<path d="M66.7062 30.7784H63.2645C61.3399 30.7779 59.4552 31.3259 57.8327 32.3578C56.2102 33.3897 54.9175 34.8625 54.1069 36.6026C52.4266 34.7669 50.3806 33.3008 48.0997 32.2979C45.8189 31.295 43.3532 30.7775 40.8603 30.7784H36.704C34.2112 30.7775 31.7455 31.295 29.4646 32.2979C27.1837 33.3008 25.1378 34.7669 23.4575 36.6026C22.6475 34.8638 21.3559 33.3917 19.735 32.3599C18.114 31.3281 16.2311 30.7794 14.3078 30.7784H10.866C8.20168 30.7732 5.64405 31.8218 3.75433 33.6941C1.8646 35.5665 0.797135 38.1096 0.786133 40.7656V56.9243C0.786131 57.4953 0.899144 58.0607 1.1187 58.5881C1.33826 59.1155 1.66005 59.5945 2.06563 59.9977C2.47121 60.4009 2.95262 60.7204 3.48226 60.9379C4.01191 61.1553 4.57938 61.2664 5.15217 61.2649H18.7669C18.881 62.5564 19.4759 63.7585 20.4344 64.6348C21.393 65.5111 22.6458 65.9981 23.9463 66H53.6338C54.9344 65.9981 56.1872 65.5111 57.1457 64.6348C58.1043 63.7585 58.6991 62.5564 58.8133 61.2649H72.2716C73.4673 61.2638 74.6138 60.7904 75.4599 59.9484C76.3061 59.1063 76.783 57.9643 76.7861 56.7724V40.7656C76.7751 38.1096 75.7077 35.5665 73.8179 33.6941C71.9282 31.8218 69.3706 30.7732 66.7062 30.7784ZM5.23926 40.7656C5.24868 39.2865 5.84648 37.8715 6.90142 36.8314C7.95637 35.7912 9.38224 35.2108 10.866 35.2176H14.3078C15.7916 35.2108 17.2175 35.7912 18.2724 36.8314C19.3273 37.8715 19.9251 39.2865 19.9346 40.7656V42.2848C18.4363 46.1716 18.7471 48.4997 18.7471 56.8217H5.23926V40.7656ZM54.3721 60.813C54.3721 61.0096 54.294 61.1982 54.1549 61.3376C54.0158 61.477 53.8271 61.5558 53.6299 61.5569H23.9424C23.7445 61.5569 23.5547 61.4785 23.4148 61.339C23.2749 61.1995 23.1962 61.0103 23.1962 60.813V48.6871C23.1999 45.1159 24.6246 41.692 27.1578 39.1668C29.6909 36.6416 33.1256 35.2213 36.708 35.2176H40.8643C44.4465 35.2218 47.8809 36.6422 50.4139 39.1674C52.9469 41.6925 54.3718 45.1161 54.376 48.6871L54.3721 60.813ZM72.333 56.7724C72.333 56.8474 73.1643 56.8217 58.8252 56.8217C58.8252 48.4385 59.132 46.1676 57.6377 42.2848V40.7656C57.6471 39.2865 58.2449 37.8715 59.2999 36.8314C60.3548 35.7912 61.7807 35.2108 63.2645 35.2176H66.7062C68.19 35.2108 69.6159 35.7912 70.6708 36.8314C71.7258 37.8715 72.3236 39.2865 72.333 40.7656V56.7724Z" fill="url(#paint2_linear_321_6494)"/>
<path d="M12.6611 25.7473C14.2758 25.7473 15.8543 25.27 17.1968 24.3758C18.5394 23.4815 19.5858 22.2104 20.2037 20.7233C20.8217 19.2362 20.9833 17.5998 20.6683 16.0211C20.3533 14.4423 19.5758 12.9922 18.434 11.854C17.2922 10.7158 15.8375 9.94069 14.2539 9.62667C12.6702 9.31264 11.0287 9.47381 9.53688 10.0898C8.04509 10.7058 6.77005 11.7489 5.87297 13.0873C4.97589 14.4257 4.49707 15.9992 4.49707 17.6088C4.49917 19.7666 5.35998 21.8355 6.89059 23.3613C8.42119 24.8871 10.4965 25.7453 12.6611 25.7473ZM12.6611 13.9095C13.3951 13.9095 14.1126 14.1264 14.7228 14.5329C15.3331 14.9394 15.8087 15.5172 16.0896 16.1931C16.3705 16.8691 16.4439 17.6129 16.3008 18.3305C16.1576 19.0481 15.8041 19.7073 15.2852 20.2246C14.7662 20.742 14.105 21.0943 13.3851 21.2371C12.6653 21.3798 11.9191 21.3065 11.241 21.0266C10.5629 20.7466 9.98337 20.2724 9.57561 19.6641C9.16784 19.0557 8.9502 18.3405 8.9502 17.6088C8.95124 16.628 9.34256 15.6877 10.0383 14.9941C10.734 14.3006 11.6773 13.9105 12.6611 13.9095Z" fill="url(#paint3_linear_321_6494)"/>
<defs>
<linearGradient id="paint0_linear_321_6494" x1="18.4907" y1="11.5" x2="78.472" y2="55.7824" gradientUnits="userSpaceOnUse">
<stop stop-color="#1C468A"/>
<stop offset="1" stop-color="#5E89D0"/>
</linearGradient>
<linearGradient id="paint1_linear_321_6494" x1="18.4907" y1="11.5" x2="78.472" y2="55.7824" gradientUnits="userSpaceOnUse">
<stop stop-color="#1C468A"/>
<stop offset="1" stop-color="#5E89D0"/>
</linearGradient>
<linearGradient id="paint2_linear_321_6494" x1="18.4907" y1="11.5" x2="78.472" y2="55.7824" gradientUnits="userSpaceOnUse">
<stop stop-color="#1C468A"/>
<stop offset="1" stop-color="#5E89D0"/>
</linearGradient>
<linearGradient id="paint3_linear_321_6494" x1="18.4907" y1="11.5" x2="78.472" y2="55.7824" gradientUnits="userSpaceOnUse">
<stop stop-color="#1C468A"/>
<stop offset="1" stop-color="#5E89D0"/>
</linearGradient>
</defs>
</svg>
