<svg width="20" height="21" viewBox="0 0 20 21" fill="none" xmlns="http://www.w3.org/2000/svg">
<path fill-rule="evenodd" clip-rule="evenodd" d="M5.23144 8.58691L5.39895 8.52691L6.8177 5.86691C7.08416 5.36703 7.4815 4.94898 7.96721 4.65746C8.45291 4.36595 9.00872 4.21194 9.57519 4.21191H13.1489C13.8048 4.21215 14.4439 4.41871 14.9758 4.80233C15.5077 5.18595 15.9055 5.7272 16.1127 6.34941L16.7889 8.37816C17.3555 8.61696 17.839 9.01758 18.179 9.52987C18.519 10.0421 18.7003 10.6433 18.7002 11.2582V12.6494C18.7002 13.5369 18.1727 14.2994 17.4127 14.6432L17.2489 13.2294C17.3796 13.0643 17.4505 12.8599 17.4502 12.6494V11.2582C17.4504 10.9885 17.3925 10.7219 17.2803 10.4766C17.1682 10.2313 17.0044 10.0131 16.8002 9.83691H5.44644L3.69645 10.4594C3.33183 10.5892 3.0163 10.8286 2.79317 11.1449C2.57004 11.4611 2.45023 11.8386 2.4502 12.2257V12.6494C2.4502 12.8682 2.5252 13.0694 2.6502 13.2294L2.4877 14.6432C2.104 14.47 1.77843 14.1897 1.55005 13.8361C1.32168 13.4824 1.2002 13.0704 1.2002 12.6494V12.2257C1.2002 10.9044 2.0327 9.72566 3.2777 9.28191L5.1652 8.61066V8.58691H5.23144ZM12.5289 13.5869H7.37144V14.8369H12.5289V13.5869ZM13.1489 5.46191H11.8252V8.58691H15.5414L14.9264 6.74441C14.8022 6.37141 14.5639 6.04689 14.2451 5.81675C13.9264 5.5866 13.5433 5.46247 13.1502 5.46191H13.1489ZM10.5752 5.46191H9.57519C9.23528 5.46179 8.90172 5.55408 8.61021 5.7289C8.31869 5.90372 8.08018 6.1545 7.9202 6.45441L6.7827 8.58691H10.5752V5.46191Z" fill="black"/>
<path fill-rule="evenodd" clip-rule="evenodd" d="M17.4123 14.6431C17.314 15.2061 17.0259 15.7184 16.5958 16.0947C16.1657 16.471 15.6197 16.6886 15.0486 16.7113C14.4776 16.7339 13.916 16.5603 13.4575 16.2192C12.999 15.8781 12.6711 15.3903 12.5286 14.8368V13.5868C12.6589 13.0813 12.9442 12.6293 13.3445 12.2942C13.7448 11.959 14.24 11.7576 14.7606 11.7182C15.2811 11.6788 15.801 11.8033 16.2472 12.0743C16.6934 12.3453 17.0435 12.7492 17.2486 13.2293L17.4123 14.6431ZM7.37105 13.5868C7.241 13.0809 6.95573 12.6284 6.55531 12.2929C6.15488 11.9574 5.65943 11.7558 5.13853 11.7164C4.61763 11.6769 4.09746 11.8016 3.65109 12.073C3.20471 12.3444 2.85456 12.7488 2.6498 13.2293L2.4873 14.6431C2.58556 15.2061 2.87373 15.7184 3.30382 16.0947C3.7339 16.471 4.27994 16.6886 4.85097 16.7113C5.42201 16.7339 5.98356 16.5603 6.44211 16.2192C6.90066 15.8781 7.22851 15.3903 7.37105 14.8368V13.5868ZM16.1998 14.2118C16.1998 13.8803 16.0681 13.5624 15.8337 13.328C15.5993 13.0935 15.2813 12.9618 14.9498 12.9618C14.6183 12.9618 14.3003 13.0935 14.0659 13.328C13.8315 13.5624 13.6998 13.8803 13.6998 14.2118C13.6998 14.5434 13.8315 14.8613 14.0659 15.0957C14.3003 15.3301 14.6183 15.4618 14.9498 15.4618C15.2813 15.4618 15.5993 15.3301 15.8337 15.0957C16.0681 14.8613 16.1998 14.5434 16.1998 14.2118ZM4.9498 12.9618C4.61828 12.9618 4.30034 13.0935 4.06592 13.328C3.8315 13.5624 3.6998 13.8803 3.6998 14.2118C3.6998 14.5434 3.8315 14.8613 4.06592 15.0957C4.30034 15.3301 4.61828 15.4618 4.9498 15.4618C5.28132 15.4618 5.59927 15.3301 5.83369 15.0957C6.06811 14.8613 6.1998 14.5434 6.1998 14.2118C6.1998 13.8803 6.06811 13.5624 5.83369 13.328C5.59927 13.0935 5.28132 12.9618 4.9498 12.9618Z" fill="#F3794F"/>
</svg>
