<svg width="20" height="21" viewBox="0 0 20 21" fill="none" xmlns="http://www.w3.org/2000/svg">
<path fill-rule="evenodd" clip-rule="evenodd" d="M14.2668 18.3524H18.2668C18.4436 18.3524 18.6131 18.4226 18.7382 18.5476C18.8632 18.6727 18.9334 18.8422 18.9334 19.019C18.9334 19.1959 18.8632 19.3654 18.7382 19.4905C18.6131 19.6155 18.4436 19.6857 18.2668 19.6857H2.26676C2.08995 19.6857 1.92038 19.6155 1.79536 19.4905C1.67034 19.3654 1.6001 19.1959 1.6001 19.019C1.6001 18.8422 1.67034 18.6727 1.79536 18.5476C1.92038 18.4226 2.08995 18.3524 2.26676 18.3524H4.26676H5.6001H12.9334V13.019H8.93343C8.81138 13.0192 8.69163 12.9858 8.58723 12.9226C8.48284 12.8593 8.39782 12.7686 8.34142 12.6604C8.28503 12.5522 8.25944 12.4305 8.26743 12.3087C8.27543 12.1869 8.3167 12.0697 8.38676 11.9697L11.3868 7.68571H10.2668C10.1401 7.68567 10.016 7.64953 9.90917 7.58153C9.80229 7.51354 9.71699 7.4165 9.66327 7.30178C9.60955 7.18706 9.58962 7.05941 9.60582 6.93377C9.62203 6.80813 9.67369 6.68972 9.75476 6.59238L13.0881 2.59238C13.1525 2.52031 13.2314 2.46265 13.3196 2.42317C13.4079 2.38369 13.5034 2.36328 13.6001 2.36328C13.6968 2.36328 13.7923 2.38369 13.8806 2.42317C13.9688 2.46265 14.0477 2.52031 14.1121 2.59238L17.4454 6.59238C17.5265 6.68972 17.5782 6.80813 17.5944 6.93377C17.6106 7.05941 17.5906 7.18706 17.5369 7.30178C17.4832 7.4165 17.3979 7.51354 17.291 7.58153C17.1841 7.64953 17.0601 7.68567 16.9334 7.68571H15.8134L18.8134 11.9697C18.8835 12.0697 18.9248 12.1869 18.9328 12.3087C18.9408 12.4305 18.9152 12.5522 18.8588 12.6604C18.8024 12.7686 18.7174 12.8593 18.613 12.9226C18.5086 12.9858 18.3888 13.0192 18.2668 13.019H14.2668V18.3524Z" fill="black"/>
<path fill-rule="evenodd" clip-rule="evenodd" d="M4.26676 18.3523H5.6001V15.6856H7.6001C7.77691 15.6856 7.94648 15.6154 8.0715 15.4904C8.19653 15.3653 8.26676 15.1958 8.26676 15.019C8.26676 14.8421 8.19653 14.6726 8.0715 14.5476C7.94648 14.4225 7.77691 14.3523 7.6001 14.3523H2.26676C2.08995 14.3523 1.92038 14.4225 1.79536 14.5476C1.67034 14.6726 1.6001 14.8421 1.6001 15.019C1.6001 15.1958 1.67034 15.3653 1.79536 15.4904C1.92038 15.6154 2.08995 15.6856 2.26676 15.6856H4.26676V18.3523Z" fill="#F3794F"/>
</svg>
