<svg width="18" height="18" viewBox="0 0 18 18" fill="none" xmlns="http://www.w3.org/2000/svg">
<path fill-rule="evenodd" clip-rule="evenodd" d="M16.5222 7.56421C17.3371 7.56421 18 8.28566 18 9.17236C18 9.85463 17.6069 10.4374 17.055 10.6708V12.7241C17.055 14.5353 15.8706 16.0508 14.3003 16.4021L14.7914 16.9366C15.0149 17.1798 15.0149 17.5743 14.7914 17.8176C14.6796 17.9393 14.5331 18 14.3866 18C14.2399 18 14.0934 17.9392 13.9817 17.8176L12.7505 16.4787H5.24922L4.01833 17.8176C3.90649 17.9393 3.76008 18 3.6135 18C3.46692 18 3.32043 17.9392 3.20867 17.8176C2.98514 17.5743 2.98514 17.1798 3.20867 16.9366L3.69982 16.4021C2.12963 16.0508 0.945138 14.5352 0.945138 12.7241V10.6708C0.39302 10.4376 0 9.85463 0 9.17244C0 8.33828 0.586931 7.65061 1.33501 7.57218L2.47996 7.56421H16.5222ZM16.5222 8.81031H1.4778C1.29429 8.81031 1.14504 8.97273 1.14504 9.17253C1.14504 9.37215 1.29429 9.53467 1.4778 9.53467H16.5222C16.7057 9.53467 16.855 9.37215 16.855 9.17253C16.855 8.97273 16.7057 8.81031 16.5222 8.81031ZM13.6044 15.2327C14.8756 15.2327 15.9098 14.1073 15.9098 12.7241V10.7985H2.09009V12.7241C2.09009 14.1074 3.12431 15.2327 4.39552 15.2327H13.6044Z" fill="black"/>
<path fill-rule="evenodd" clip-rule="evenodd" d="M1.33496 7.57215L2.47992 7.56418V2.33722C2.47992 1.73552 2.92972 1.24601 3.48263 1.24601H3.74514C4.01679 1.24601 4.27308 1.36618 4.45919 1.57129L4.41469 1.61972C3.66733 2.43305 3.66733 3.75638 4.41469 4.56979L4.66823 4.8457C4.77999 4.96733 4.92649 5.02819 5.07306 5.02819C5.21964 5.02819 5.36605 4.96742 5.4779 4.8457L7.9811 2.12157C8.20462 1.87832 8.20462 1.48378 7.9811 1.24053L7.72756 0.964615C7.36557 0.570592 6.88418 0.353652 6.37223 0.353652C5.98087 0.353652 5.60762 0.480765 5.2917 0.716476C4.89183 0.265282 4.3357 0 3.74522 0H3.48271C2.29845 0 1.33496 1.04844 1.33496 2.33731V7.57215ZM6.74556 1.70389C6.63262 1.63575 6.50502 1.59958 6.37223 1.59958C6.16611 1.59958 5.97228 1.68692 5.82649 1.84549L5.22444 2.50068C4.97595 2.77102 4.93263 3.18141 5.09449 3.50069L6.74556 1.70389Z" fill="#F3794F"/>
</svg>
