<svg width="20" height="20" viewBox="0 0 20 20" fill="none" xmlns="http://www.w3.org/2000/svg">
<g clip-path="url(#clip0_321_7492)">
<path d="M19.3745 9.37521H11.458C11.113 9.37521 10.833 9.09522 10.833 8.75022C10.833 8.40523 11.113 8.12524 11.458 8.12524H19.3745C19.7194 8.12524 19.9994 8.40523 19.9994 8.75022C19.9994 9.09522 19.7194 9.37521 19.3745 9.37521Z" fill="#F3794F"/>
<path d="M16.2493 12.5003C16.0893 12.5003 15.9294 12.4394 15.8076 12.317C15.5635 12.0727 15.5635 11.6769 15.8076 11.4328L18.4909 8.74963L15.8076 6.0663C15.5635 5.82217 15.5635 5.42637 15.8076 5.18224C16.0519 4.93795 16.4477 4.93795 16.6918 5.18224L19.8167 8.30714C20.0609 8.55127 20.0609 8.94707 19.8167 9.19121L16.6918 12.3161C16.5693 12.4394 16.4094 12.5003 16.2493 12.5003Z" fill="#F3794F"/>
<path d="M6.66651 20.0001C6.48814 20.0001 6.31892 19.9751 6.14986 19.9226L1.13491 18.2518C0.452561 18.0135 0 17.3777 0 16.6669V1.6674C0 0.748237 0.747505 0.000732422 1.66667 0.000732422C1.84488 0.000732422 2.0141 0.0257561 2.18331 0.0782447L7.19811 1.74903C7.88061 1.98736 8.33302 2.62318 8.33302 3.33391V18.3334C8.33302 19.2526 7.58567 20.0001 6.66651 20.0001ZM1.66667 1.25069C1.43749 1.25069 1.24996 1.43822 1.24996 1.6674V16.6669C1.24996 16.8444 1.36913 17.0093 1.53911 17.0685L6.53056 18.7318C6.56641 18.7434 6.6131 18.7501 6.66651 18.7501C6.89569 18.7501 7.08306 18.5626 7.08306 18.3334V3.33391C7.08306 3.15646 6.96389 2.99151 6.79392 2.93231L1.80246 1.269C1.76661 1.25741 1.71992 1.25069 1.66667 1.25069Z" fill="black"/>
<path d="M12.7077 6.66724C12.3627 6.66724 12.0827 6.38725 12.0827 6.04226V2.29238C12.0827 1.71821 11.6154 1.25069 11.0412 1.25069H1.66648C1.32149 1.25069 1.0415 0.970703 1.0415 0.625713C1.0415 0.280722 1.32149 0.000732422 1.66648 0.000732422H11.0412C12.3053 0.000732422 13.3327 1.02823 13.3327 2.29238V6.04226C13.3327 6.38725 13.0527 6.66724 12.7077 6.66724Z" fill="black"/>
<path d="M11.0413 17.5H7.70799C7.363 17.5 7.08301 17.22 7.08301 16.875C7.08301 16.53 7.363 16.25 7.70799 16.25H11.0413C11.6155 16.25 12.0829 15.7825 12.0829 15.2084V11.4585C12.0829 11.1135 12.3628 10.8335 12.7078 10.8335C13.0528 10.8335 13.3328 11.1135 13.3328 11.4585V15.2084C13.3328 16.4725 12.3055 17.5 11.0413 17.5Z" fill="black"/>
</g>
<defs>
<clipPath id="clip0_321_7492">
<rect width="20" height="20" fill="white"/>
</clipPath>
</defs>
</svg>
