<svg width="18" height="18" viewBox="0 0 18 18" fill="none" xmlns="http://www.w3.org/2000/svg">
<g clip-path="url(#clip0_330_64)">
<path fill-rule="evenodd" clip-rule="evenodd" d="M6 2.2395V3.7395V3.75C6 4.34674 5.76295 4.91903 5.34099 5.34099C4.91903 5.76295 4.34674 6 3.75 6H3.74475H2.24475C1.64892 5.99861 1.07797 5.76094 0.657153 5.33914C0.23633 4.91733 -1.62197e-06 4.34583 0 3.75L0 2.25C0 1.65326 0.237053 1.08097 0.65901 0.65901C1.08097 0.237053 1.65326 1.33583e-10 2.25 1.33582e-10L3.75 1.33582e-10C4.34492 -6.47795e-06 4.91563 0.235605 5.33729 0.655293C5.75895 1.07498 5.99722 1.64458 6 2.2395ZM4.5 3.75C4.5 3.94891 4.42098 4.13968 4.28033 4.28033C4.13968 4.42098 3.94891 4.5 3.75 4.5H2.25C2.05109 4.5 1.86032 4.42098 1.71967 4.28033C1.57902 4.13968 1.5 3.94891 1.5 3.75V2.25C1.5 2.05109 1.57902 1.86032 1.71967 1.71967C1.86032 1.57902 2.05109 1.5 2.25 1.5H3.75C3.94891 1.5 4.13968 1.57902 4.28033 1.71967C4.42098 1.86032 4.5 2.05109 4.5 2.25V3.75Z" fill="#F3794F"/>
<path fill-rule="evenodd" clip-rule="evenodd" d="M6.00014 2.2395L7.50539 2.25C7.60388 2.25035 7.70134 2.27009 7.79221 2.3081C7.88307 2.34611 7.96555 2.40164 8.03495 2.47153C8.10435 2.54142 8.15931 2.62429 8.19668 2.71541C8.23405 2.80654 8.25311 2.90414 8.25277 3.00263C8.25242 3.10112 8.23268 3.19858 8.19467 3.28944C8.15666 3.3803 8.10113 3.46279 8.03124 3.53219C7.96135 3.60159 7.87848 3.65654 7.78736 3.69392C7.69623 3.73129 7.59863 3.75035 7.50014 3.75H7.49489L6.00014 3.7395V2.2395ZM2.24489 6L2.23439 7.49475C2.2337 7.59331 2.25244 7.69103 2.28954 7.78234C2.32664 7.87365 2.38137 7.95675 2.45061 8.02689C2.51985 8.09703 2.60223 8.15284 2.69305 8.19112C2.78386 8.2294 2.88134 8.24941 2.97989 8.25H2.98439C3.1824 8.25001 3.37237 8.17171 3.51288 8.03219C3.65338 7.89267 3.73301 7.70325 3.73439 7.50525L3.74489 6H2.24489Z" fill="black"/>
<path fill-rule="evenodd" clip-rule="evenodd" d="M15.7602 6.00013H14.2602L14.2497 7.49488C14.249 7.59337 14.2677 7.69104 14.3048 7.78229C14.3418 7.87355 14.3965 7.95662 14.4657 8.02675C14.5348 8.09688 14.6171 8.15271 14.7078 8.19104C14.7986 8.22936 14.896 8.24944 14.9945 8.25013H14.9997C15.1977 8.25013 15.3877 8.17184 15.5282 8.03232C15.6687 7.8928 15.7483 7.70338 15.7497 7.50538L15.7602 6.00013ZM11.9997 3.74488V2.24488L10.5042 2.23438H10.4997C10.3008 2.23368 10.1097 2.31203 9.9686 2.45219C9.82746 2.59235 9.74777 2.78284 9.74707 2.98175C9.74638 3.18067 9.82473 3.37171 9.96489 3.51285C10.105 3.654 10.2955 3.73368 10.4945 3.73438L11.9997 3.74488Z" fill="black"/>
<path fill-rule="evenodd" clip-rule="evenodd" d="M15.7654 10.5045L15.7549 12H14.255L14.2655 10.4948C14.2668 10.2967 14.3465 10.1073 14.487 9.96781C14.6275 9.82829 14.8174 9.75 15.0155 9.75H15.02C15.1184 9.75059 15.2159 9.77057 15.3066 9.80881C15.3974 9.84705 15.4797 9.90279 15.549 9.97285C15.6182 10.0429 15.6729 10.1259 15.7101 10.2171C15.7472 10.3084 15.766 10.406 15.7654 10.5045ZM11.9997 14.2605L10.5049 14.25H10.4997C10.3008 14.2493 10.1097 14.3277 9.9686 14.4678C9.82746 14.608 9.74777 14.7985 9.74707 14.9974C9.74638 15.1963 9.82473 15.3873 9.96489 15.5285C10.105 15.6696 10.2955 15.7493 10.4944 15.75L11.9997 15.7605V14.2605Z" fill="black"/>
<path fill-rule="evenodd" clip-rule="evenodd" d="M5.99976 14.2552L7.50501 14.2657C7.70392 14.2664 7.89441 14.3461 8.03457 14.4873C8.17473 14.6284 8.25308 14.8195 8.25238 15.0184C8.25169 15.2173 8.172 15.4078 8.03086 15.5479C7.88971 15.6881 7.69867 15.7664 7.49976 15.7657H7.49526L5.99976 15.7553V14.2552ZM3.73926 12L3.74976 10.5052C3.75045 10.4068 3.73173 10.3091 3.69468 10.2178C3.65763 10.1266 3.60296 10.0435 3.53381 9.97338C3.46465 9.90325 3.38236 9.84742 3.29162 9.80909C3.20089 9.77077 3.1035 9.75069 3.00501 9.75H2.99976C2.80175 9.75 2.61178 9.82829 2.47128 9.96781C2.33077 10.1073 2.25114 10.2967 2.24976 10.4948L2.23926 12H3.73926Z" fill="black"/>
<path fill-rule="evenodd" clip-rule="evenodd" d="M15.75 0H14.25C13.6542 -1.62197e-06 13.0827 0.23633 12.6609 0.657153C12.2391 1.07797 12.0014 1.64892 12 2.24475V3.74475V3.75C12 4.34674 12.2371 4.91903 12.659 5.34099C13.081 5.76295 13.6533 6 14.25 6H14.2605H15.7605C16.3554 5.99722 16.925 5.75895 17.3447 5.33729C17.7644 4.91563 18 4.34492 18 3.75V2.25C18 1.65326 17.7629 1.08097 17.341 0.65901C16.919 0.237053 16.3467 0 15.75 0ZM16.5 3.75C16.5 3.94891 16.421 4.13968 16.2803 4.28033C16.1397 4.42098 15.9489 4.5 15.75 4.5H14.25C14.0511 4.5 13.8603 4.42098 13.7197 4.28033C13.579 4.13968 13.5 3.94891 13.5 3.75V2.25C13.5 2.05109 13.579 1.86032 13.7197 1.71967C13.8603 1.57902 14.0511 1.5 14.25 1.5H15.75C15.9489 1.5 16.1397 1.57902 16.2803 1.71967C16.421 1.86032 16.5 2.05109 16.5 2.25V3.75Z" fill="#F3794F"/>
<path fill-rule="evenodd" clip-rule="evenodd" d="M14.2553 12H15.7552C16.3511 12.0014 16.922 12.2391 17.3428 12.6609C17.7637 13.0827 18 13.6542 18 14.25V15.75C18 16.3467 17.7629 16.919 17.341 17.341C16.919 17.7629 16.3467 18 15.75 18H14.25C13.6551 18 13.0844 17.7644 12.6627 17.3447C12.2411 16.925 12.0028 16.3554 12 15.7605V14.2605V14.25C12 13.6533 12.2371 13.081 12.659 12.659C13.081 12.2371 13.6533 12 14.25 12H14.2553ZM16.5 15.75C16.5 15.9489 16.421 16.1397 16.2803 16.2803C16.1397 16.421 15.9489 16.5 15.75 16.5H14.25C14.0511 16.5 13.8603 16.421 13.7197 16.2803C13.579 16.1397 13.5 15.9489 13.5 15.75V14.25C13.5 14.0511 13.579 13.8603 13.7197 13.7197C13.8603 13.579 14.0511 13.5 14.25 13.5H15.75C15.9489 13.5 16.1397 13.579 16.2803 13.7197C16.421 13.8603 16.5 14.0511 16.5 14.25V15.75Z" fill="#F3794F"/>
<path fill-rule="evenodd" clip-rule="evenodd" d="M6 14.2553V14.25C6 13.6533 5.76295 13.081 5.34099 12.659C4.91903 12.2371 4.34674 12 3.75 12H3.7395H2.2395C1.64458 12.0028 1.07498 12.2411 0.655293 12.6627C0.235605 13.0844 -6.47795e-06 13.6551 1.33582e-10 14.25L1.33582e-10 15.75C1.33583e-10 16.3467 0.237053 16.919 0.65901 17.341C1.08097 17.7629 1.65326 18 2.25 18H3.75C4.34583 18 4.91733 17.7637 5.33914 17.3428C5.76094 16.922 5.99861 16.3511 6 15.7553V14.2553ZM4.5 15.75C4.5 15.9489 4.42098 16.1397 4.28033 16.2803C4.13968 16.421 3.94891 16.5 3.75 16.5H2.25C2.05109 16.5 1.86032 16.421 1.71967 16.2803C1.57902 16.1397 1.5 15.9489 1.5 15.75V14.25C1.5 14.0511 1.57902 13.8603 1.71967 13.7197C1.86032 13.579 2.05109 13.5 2.25 13.5H3.75C3.94891 13.5 4.13968 13.579 4.28033 13.7197C4.42098 13.8603 4.5 14.0511 4.5 14.25V15.75Z" fill="#F3794F"/>
</g>
<defs>
<clipPath id="clip0_330_64">
<rect width="18" height="18" fill="white"/>
</clipPath>
</defs>
</svg>
