<svg width="21" height="20" viewBox="0 0 21 20" fill="none" xmlns="http://www.w3.org/2000/svg">
<path d="M19.0395 13.396L15.4738 11.1964V7.50014C15.4737 7.42715 15.4543 7.35547 15.4176 7.29229C15.3809 7.22911 15.3282 7.17664 15.2647 7.14014L10.2462 4.22348C10.1822 4.18629 10.1095 4.16669 10.0354 4.16669C9.96134 4.16669 9.8886 4.18629 9.82463 4.22348L4.80608 7.14014C4.74326 7.17706 4.69121 7.22971 4.65512 7.29286C4.61902 7.35601 4.60013 7.42747 4.60032 7.50014V11.1968L1.03465 13.396C0.974132 13.4333 0.92419 13.4855 0.889557 13.5475C0.854924 13.6094 0.836746 13.6792 0.836746 13.7501C0.836746 13.8211 0.854924 13.8908 0.889557 13.9528C0.92419 14.0148 0.974132 14.0669 1.03465 14.1043L9.8171 19.521C9.88324 19.5618 9.95949 19.5834 10.0373 19.5834C10.1151 19.5834 10.1913 19.5618 10.2575 19.521L19.0399 14.1043C19.1004 14.0669 19.1503 14.0147 19.1849 13.9527C19.2195 13.8907 19.2377 13.821 19.2376 13.75C19.2376 13.6791 19.2194 13.6093 19.1847 13.5474C19.15 13.4854 19.1 13.4333 19.0395 13.396ZM5.43675 8.22556L9.61887 10.656V15.5247L5.43675 13.0943V8.22556ZM10.4553 10.656L14.6374 8.22556V13.0943L10.4553 15.5247V10.656ZM10.0371 5.06598L14.2255 7.50014L10.0371 9.93431L5.84869 7.50014L10.0371 5.06598ZM10.0371 18.6768L2.04923 13.7501L4.60032 12.1764V13.3335C4.60047 13.4065 4.61987 13.4782 4.65657 13.5413C4.69326 13.6045 4.74598 13.657 4.80943 13.6935L9.82797 16.6101C9.89194 16.6473 9.96468 16.6669 10.0388 16.6669C10.1128 16.6669 10.1856 16.6473 10.2495 16.6101L15.2681 13.6935C15.3309 13.6566 15.3829 13.6039 15.419 13.5408C15.4551 13.4776 15.474 13.4061 15.4738 13.3335V12.1764L18.0249 13.7501L10.0371 18.6768Z" fill="black"/>
<path d="M3.7639 4.16669H5.43675V3.33336H5.03275C6.47532 2.25168 8.23182 1.66673 10.0373 1.66673C11.8428 1.66673 13.5993 2.25168 15.0418 3.33336H14.6374V4.16669H16.3103C16.4212 4.16669 16.5275 4.12279 16.606 4.04465C16.6844 3.96651 16.7285 3.86053 16.7285 3.75002V2.08336H15.892V2.93002C14.2441 1.57466 12.174 0.833313 10.0371 0.833313C7.9002 0.833313 5.83001 1.57466 4.18211 2.93002V2.08336H3.34569V3.75002C3.34569 3.86053 3.38975 3.96651 3.46818 4.04465C3.54661 4.12279 3.65298 4.16669 3.7639 4.16669Z" fill="#F3794F"/>
</svg>
