<svg width="26" height="26" viewBox="0 0 26 26" fill="none" xmlns="http://www.w3.org/2000/svg">
<path d="M5.96287 16.8872L5.96287 16.8869L5.96287 15.7098L3.22075 17.4077L12.8837 23.3896L22.5467 17.4077L19.8045 15.7098L19.8045 16.8865M19.8045 16.8865L19.8045 16.8869C19.8045 16.8867 19.8045 16.8866 19.8045 16.8865ZM19.8045 9.5952L19.8045 9.59489L6.11287 9.5952H5.96287V9.5954C5.96287 9.59547 5.96287 9.59553 5.96287 9.59559L5.96287 14.1325L1.5933 16.8374L1.59323 16.8375C1.49615 16.8976 1.41604 16.9816 1.36049 17.0814C1.30494 17.1812 1.27578 17.2935 1.27578 17.4077C1.27578 17.5219 1.30494 17.6342 1.36049 17.734C1.41605 17.8338 1.49616 17.9177 1.59323 17.9779L1.5933 17.9779L12.5308 24.7488C12.6369 24.8145 12.7592 24.8493 12.884 24.8493C13.0088 24.8493 13.1311 24.8145 13.2372 24.7488L24.1746 17.9779L24.1748 17.9779C24.2718 17.9176 24.3519 17.8336 24.4074 17.7338C24.4629 17.634 24.492 17.5217 24.4919 17.4075C24.4918 17.2933 24.4626 17.181 24.407 17.0812C24.3514 16.9815 24.2712 16.8975 24.1741 16.8374L19.8045 14.132V9.5952Z" fill="black" stroke="black" stroke-width="0.3"/>
<path d="M5.07113 5.94936H7.15446V4.90769H6.65134C8.44788 3.5556 10.6354 2.82441 12.8839 2.82441C15.1324 2.82441 17.3199 3.5556 19.1164 4.90769H18.6128V5.94936H20.6961C20.8343 5.94936 20.9667 5.89449 21.0644 5.79681C21.1621 5.69914 21.217 5.56666 21.217 5.42853V3.34519H20.1753V4.40353C18.123 2.70933 15.5449 1.78264 12.8836 1.78264C10.2224 1.78264 7.64423 2.70933 5.59196 4.40353V3.34519H4.55029V5.42853C4.55029 5.56666 4.60517 5.69914 4.70284 5.79681C4.80052 5.89449 4.93299 5.94936 5.07113 5.94936Z" fill="#F3794F"/>
</svg>
