<svg width="26" height="26" viewBox="0 0 26 26" fill="none" xmlns="http://www.w3.org/2000/svg">
<path d="M21.0282 6.46969C20.7393 6.14521 20.2615 6.05101 19.8393 6.17661C18.9392 6.45922 17.917 6.38595 17.028 5.91493C16.1391 5.43345 15.5613 4.63795 15.3613 3.76919C15.2613 3.3505 14.9279 3.00509 14.4835 2.94229C13.3723 2.77482 12.2167 2.77482 11.0833 2.95276C10.6388 3.02603 10.3166 3.36097 10.2166 3.77965C10.0166 4.65889 9.44987 5.45438 8.56094 5.94634C7.672 6.43829 6.64973 6.50109 5.74969 6.22895C5.32744 6.10334 4.84964 6.19755 4.56074 6.52202C3.83848 7.36986 3.27178 8.31189 2.88287 9.30626C2.72731 9.70401 2.88287 10.1436 3.21622 10.4158C3.91626 11.0229 4.36073 11.8916 4.37184 12.8546C4.37184 13.828 3.92737 14.6863 3.22734 15.2934C2.89399 15.576 2.74953 16.0157 2.9051 16.4029C3.10511 16.8949 3.34956 17.3868 3.63847 17.8579C3.92737 18.3289 4.26072 18.7685 4.61629 19.1767C4.9052 19.5012 5.383 19.5954 5.80524 19.4698C6.70529 19.1872 7.72756 19.2604 8.6165 19.7315C9.50543 20.2129 10.0832 21.0084 10.2832 21.8772C10.3833 22.2854 10.7055 22.6308 11.15 22.6936C12.2722 22.8611 13.4167 22.8611 14.5501 22.6832C14.9946 22.6099 15.3168 22.275 15.4168 21.8563C15.6169 20.977 16.1835 20.1815 17.0725 19.6896C17.9614 19.1976 18.9837 19.1348 19.8837 19.407C20.3171 19.5326 20.7949 19.4384 21.0727 19.1034C21.7949 18.2556 22.3616 17.3136 22.7617 16.3192C22.9172 15.9214 22.7617 15.4818 22.4283 15.2097C21.7172 14.6131 21.2727 13.7443 21.2616 12.7813C21.2616 11.8079 21.706 10.9496 22.4061 10.3425C22.7394 10.0599 22.8839 9.62028 22.7283 9.23299C22.5283 8.74104 22.2839 8.24909 21.995 7.77807C21.7172 7.30705 21.3838 6.8779 21.0282 6.46969Z" stroke="black" stroke-width="1.2" stroke-miterlimit="10" stroke-linecap="round" stroke-linejoin="round"/>
<path d="M12.8271 15.9214C14.6436 15.9214 16.1162 14.5343 16.1162 12.8232C16.1162 11.1121 14.6436 9.72495 12.8271 9.72495C11.0106 9.72495 9.53809 11.1121 9.53809 12.8232C9.53809 14.5343 11.0106 15.9214 12.8271 15.9214Z" stroke="#F3794F" stroke-width="1.2" stroke-miterlimit="10" stroke-linecap="round" stroke-linejoin="round"/>
</svg>
