<svg width="87" height="68" viewBox="0 0 87 68" fill="none" xmlns="http://www.w3.org/2000/svg">
<circle r="4.79167" transform="matrix(-1 0 0 1 82.2083 5.12492)" fill="#F2F2F2"/>
<circle r="4.79167" transform="matrix(-1 0 0 1 43.8753 5.12504)" fill="#F2F2F2"/>
<circle r="4.79167" transform="matrix(-1 0 0 1 63.0413 5.12504)" fill="#F2F2F2"/>
<circle r="4.79167" transform="matrix(-1 0 0 1 24.7083 5.12504)" fill="#F2F2F2"/>
<circle r="4.79167" transform="matrix(-1 0 0 1 5.54134 5.12504)" fill="#F2F2F2"/>
<circle r="4.79167" transform="matrix(-1 0 0 1 82.2083 24.2918)" fill="#F2F2F2"/>
<circle r="4.79167" transform="matrix(-1 0 0 1 43.8753 24.2917)" fill="#F2F2F2"/>
<circle r="4.79167" transform="matrix(-1 0 0 1 63.0413 24.2917)" fill="#F2F2F2"/>
<circle r="4.79167" transform="matrix(-1 0 0 1 24.7083 24.2917)" fill="#F2F2F2"/>
<circle r="4.79167" transform="matrix(-1 0 0 1 5.54134 24.2917)" fill="#F2F2F2"/>
<circle r="4.79167" transform="matrix(-1 0 0 1 82.2083 43.4582)" fill="#F2F2F2"/>
<circle r="4.79167" transform="matrix(-1 0 0 1 43.8753 43.4584)" fill="#F2F2F2"/>
<circle r="4.79167" transform="matrix(-1 0 0 1 63.0413 43.4584)" fill="#F2F2F2"/>
<circle r="4.79167" transform="matrix(-1 0 0 1 24.7083 43.4584)" fill="#F2F2F2"/>
<circle r="4.79167" transform="matrix(-1 0 0 1 5.54134 43.4584)" fill="#F2F2F2"/>
<circle r="4.79167" transform="matrix(-1 0 0 1 82.2083 62.6249)" fill="#F2F2F2"/>
<circle r="4.79167" transform="matrix(-1 0 0 1 43.8753 62.6249)" fill="#F2F2F2"/>
<circle r="4.79167" transform="matrix(-1 0 0 1 63.0413 62.6249)" fill="#F2F2F2"/>
<circle r="4.79167" transform="matrix(-1 0 0 1 24.7083 62.6249)" fill="#F2F2F2"/>
<circle r="4.79167" transform="matrix(-1 0 0 1 5.54134 62.6249)" fill="#F2F2F2"/>
</svg>
