<svg width="166" height="49" viewBox="0 0 166 49" fill="none" xmlns="http://www.w3.org/2000/svg">
<path d="M159.237 48.7849H5.79045C2.6238 48.7849 0 46.1698 0 43.0137V5.77123C0 2.61509 2.57856 0 5.79045 0H159.237C162.404 0 165.118 2.57 165.118 5.77123V43.0137C165.118 46.1698 162.449 48.7849 159.237 48.7849Z" fill="#A6A6A6"/>
<path d="M163.942 43.0136C163.942 45.5836 161.861 47.7028 159.238 47.7028H5.79068C3.21212 47.7028 1.08594 45.6287 1.08594 43.0136V5.77115C1.08594 3.20115 3.21212 1.08203 5.79068 1.08203H159.238C161.816 1.08203 163.942 3.20115 163.942 5.77115V43.0136Z" fill="black"/>
<path d="M36.8692 24.1222C36.8239 20.1996 40.081 18.2608 40.262 18.1706C38.4072 15.4654 35.5573 15.1047 34.562 15.1047C32.1644 14.8341 29.812 16.5475 28.5906 16.5475C27.324 16.5475 25.4692 15.1497 23.4335 15.1948C20.8097 15.2399 18.3669 16.7278 17.0097 19.0724C14.2502 23.8517 16.2859 30.8854 18.955 34.7629C20.2669 36.6566 21.8502 38.7757 23.8859 38.6856C25.8764 38.5954 26.6002 37.4231 28.9978 37.4231C31.3954 37.4231 32.0739 38.6855 34.1549 38.6405C36.2811 38.5954 37.6382 36.7468 38.9049 34.808C40.443 32.6438 41.0763 30.4796 41.0763 30.3894C40.9858 30.3894 36.8692 28.8564 36.8692 24.1222Z" fill="white"/>
<path d="M32.9333 12.5794C34.019 11.2268 34.7428 9.4233 34.5166 7.57471C32.9785 7.66488 31.0333 8.65681 29.9024 9.96436C28.9071 11.0916 28.0476 12.9852 28.2738 14.7437C30.0381 14.8789 31.8024 13.887 32.9333 12.5794Z" fill="white"/>
<path d="M65.5951 38.4147H62.8356L61.2975 33.6354H56.0047L54.557 38.4147H51.8428L57.0904 22.1831H60.3475L65.5951 38.4147ZM60.8451 31.6515L59.488 27.4133C59.3523 26.9624 59.0808 25.9705 58.6737 24.3473H58.6285C58.4475 25.0236 58.2213 26.0607 57.8594 27.4133L56.5023 31.6515H60.8451Z" fill="white"/>
<path d="M79.0754 32.4177C79.0754 34.4016 78.5326 35.9797 77.4468 37.1519C76.4969 38.189 75.2754 38.6849 73.8278 38.6849C72.2897 38.6849 71.1588 38.1439 70.4802 37.0167H70.435V43.1937H67.8112V30.5691C67.8112 29.3067 67.7659 28.0442 67.7207 26.7367H70.0278L70.1636 28.5853H70.2088C71.0683 27.1875 72.3802 26.5112 74.1897 26.5112C75.5921 26.5112 76.723 27.0523 77.673 28.1344C78.623 29.2165 79.0754 30.6593 79.0754 32.4177ZM76.4516 32.5079C76.4516 31.3807 76.1802 30.4339 75.6826 29.7125C75.1397 28.946 74.3707 28.5402 73.4207 28.5402C72.7873 28.5402 72.1993 28.7656 71.6564 29.1714C71.1135 29.5772 70.7969 30.1633 70.6159 30.8396C70.5255 31.1553 70.4802 31.4258 70.4802 31.6512V33.59C70.4802 34.4467 70.7516 35.1681 71.2493 35.7542C71.7921 36.3404 72.4707 36.6109 73.285 36.6109C74.2802 36.6109 75.0492 36.2502 75.5921 35.4837C76.135 34.7623 76.4516 33.7704 76.4516 32.5079Z" fill="white"/>
<path d="M92.6018 32.4177C92.6018 34.4016 92.0589 35.9797 90.9732 37.1519C90.0232 38.189 88.8018 38.6849 87.3542 38.6849C85.8161 38.6849 84.6851 38.1439 84.0066 37.0167H83.9613V43.1937H81.3375V30.5691C81.3375 29.3067 81.2923 28.0442 81.2471 26.7367H83.5542L83.6899 28.5853H83.7352C84.5947 27.1875 85.9066 26.5112 87.7161 26.5112C89.1185 26.5112 90.2494 27.0523 91.1994 28.1344C92.1042 29.2165 92.6018 30.6593 92.6018 32.4177ZM89.9327 32.5079C89.9327 31.3807 89.6613 30.4339 89.1637 29.7125C88.6208 28.946 87.8518 28.5402 86.9018 28.5402C86.2685 28.5402 85.6804 28.7656 85.1375 29.1714C84.5947 29.5772 84.278 30.1633 84.0971 30.8396C84.0066 31.1553 83.9613 31.4258 83.9613 31.6512V33.59C83.9613 34.4467 84.2328 35.1681 84.7304 35.7542C85.2732 36.3404 85.9518 36.6109 86.7661 36.6109C87.7613 36.6109 88.5304 36.2502 89.0732 35.4837C89.6613 34.7623 89.9327 33.7704 89.9327 32.5079Z" fill="white"/>
<path d="M107.666 33.8612C107.666 35.2589 107.169 36.3861 106.219 37.2428C105.178 38.1896 103.685 38.6405 101.785 38.6405C100.021 38.6405 98.6186 38.3249 97.5781 37.6485L98.1662 35.4843C99.2972 36.1606 100.564 36.5213 101.921 36.5213C102.916 36.5213 103.685 36.2959 104.228 35.845C104.771 35.3942 105.042 34.808 105.042 34.0866C105.042 33.4103 104.816 32.8692 104.364 32.4184C103.911 31.9675 103.188 31.5617 102.102 31.1559C99.2519 30.1189 97.8495 28.5408 97.8495 26.5119C97.8495 25.1592 98.3472 24.0771 99.3424 23.2205C100.338 22.3638 101.65 21.958 103.323 21.958C104.816 21.958 106.038 22.2285 107.033 22.7245L106.4 24.8436C105.495 24.3477 104.454 24.0771 103.278 24.0771C102.373 24.0771 101.65 24.3026 101.152 24.7534C100.7 25.1592 100.519 25.6552 100.519 26.2413C100.519 26.8726 100.745 27.4136 101.288 27.8194C101.74 28.2252 102.509 28.631 103.64 29.0819C105.042 29.6229 106.083 30.2992 106.716 31.0657C107.35 31.7871 107.666 32.734 107.666 33.8612Z" fill="white"/>
<path d="M116.306 28.6758H113.411V34.3569C113.411 35.7997 113.909 36.5211 114.949 36.5211C115.402 36.5211 115.809 36.476 116.126 36.3858L116.216 38.3697C115.718 38.55 115.04 38.6402 114.18 38.6402C113.14 38.6402 112.326 38.3246 111.783 37.6933C111.195 37.0621 110.923 36.0251 110.923 34.5372V28.6307H109.204V26.6919H110.923V24.5277L113.502 23.7612V26.6919H116.397V28.6758H116.306Z" fill="white"/>
<path d="M129.29 32.4635C129.29 34.267 128.793 35.7549 127.752 36.8821C126.666 38.0543 125.219 38.6856 123.455 38.6856C121.736 38.6856 120.378 38.0994 119.338 36.9722C118.297 35.845 117.8 34.4022 117.8 32.6438C117.8 30.8403 118.343 29.3524 119.383 28.1801C120.424 27.0078 121.871 26.4668 123.635 26.4668C125.355 26.4668 126.757 27.0529 127.797 28.1801C128.793 29.3073 129.29 30.705 129.29 32.4635ZM126.576 32.5536C126.576 31.4715 126.35 30.5698 125.897 29.7582C125.355 28.8114 124.585 28.3605 123.545 28.3605C122.505 28.3605 121.69 28.8114 121.147 29.7582C120.695 30.5247 120.469 31.4715 120.469 32.5987C120.469 33.6808 120.695 34.5826 121.147 35.3942C121.69 36.341 122.505 36.7919 123.5 36.7919C124.495 36.7919 125.264 36.2959 125.852 35.3491C126.305 34.5826 126.576 33.6357 126.576 32.5536Z" fill="white"/>
<path d="M137.75 28.9919C137.478 28.9468 137.207 28.9017 136.935 28.9017C136.031 28.9017 135.307 29.2624 134.809 29.9387C134.357 30.5699 134.176 31.3364 134.176 32.2382V38.3701H131.552L131.597 30.3445C131.597 28.9919 131.552 27.7745 131.507 26.6473H133.769L133.859 28.9017H133.95C134.221 28.1352 134.673 27.504 135.262 27.0531C135.85 26.6473 136.483 26.4219 137.162 26.4219C137.388 26.4219 137.614 26.4219 137.795 26.467V28.9919H137.75Z" fill="white"/>
<path d="M149.421 32.0126C149.421 32.4635 149.376 32.8693 149.331 33.1849H141.505C141.55 34.3572 141.912 35.2138 142.636 35.845C143.314 36.3861 144.128 36.6566 145.214 36.6566C146.39 36.6566 147.431 36.4763 148.381 36.1156L148.788 37.9191C147.657 38.415 146.345 38.6405 144.852 38.6405C143.043 38.6405 141.595 38.0994 140.555 37.0624C139.514 35.9803 139.017 34.5826 139.017 32.7791C139.017 31.0207 139.514 29.5328 140.464 28.3605C141.459 27.098 142.862 26.4668 144.581 26.4668C146.255 26.4668 147.567 27.098 148.426 28.3605C149.059 29.3073 149.421 30.5698 149.421 32.0126ZM146.933 31.3363C146.933 30.5698 146.798 29.8935 146.436 29.3524C145.983 28.631 145.305 28.2703 144.355 28.2703C143.495 28.2703 142.817 28.631 142.274 29.3073C141.821 29.8484 141.595 30.5247 141.505 31.3363H146.933Z" fill="white"/>
<path d="M59.9853 12.2189C59.9853 13.6617 59.5329 14.7438 58.6734 15.4652C57.8591 16.1415 56.7281 16.4571 55.2805 16.4571C54.5567 16.4571 53.9234 16.412 53.4258 16.3669V8.52166C54.1043 8.43149 54.8282 8.34131 55.6424 8.34131C57.0448 8.34131 58.0853 8.65692 58.8091 9.24306C59.5781 9.96447 59.9853 10.9564 59.9853 12.2189ZM58.6281 12.2639C58.6281 11.3171 58.4019 10.6408 57.9043 10.1448C57.4067 9.64885 56.6829 9.37833 55.7329 9.37833C55.3258 9.37833 54.9639 9.42341 54.6924 9.4685V15.4201C54.8282 15.4652 55.1448 15.4652 55.552 15.4652C56.5472 15.4652 57.271 15.1946 57.8139 14.6536C58.3567 14.0675 58.6281 13.301 58.6281 12.2639Z" fill="white"/>
<path d="M67.1785 13.4813C67.1785 14.3831 66.9071 15.1045 66.4094 15.6455C65.8666 16.2317 65.188 16.5022 64.2833 16.5022C63.4238 16.5022 62.7452 16.2317 62.2476 15.6455C61.7499 15.1045 61.4785 14.3831 61.4785 13.5264C61.4785 12.6247 61.7499 11.9033 62.2476 11.3171C62.7452 10.731 63.469 10.4604 64.3285 10.4604C65.188 10.4604 65.8666 10.731 66.3642 11.3171C66.9071 11.9033 67.1785 12.6247 67.1785 13.4813ZM65.8214 13.5264C65.8214 12.9854 65.6856 12.5345 65.4595 12.1738C65.188 11.7229 64.8261 11.4975 64.3285 11.4975C63.8309 11.4975 63.4238 11.7229 63.1523 12.1738C62.9261 12.5345 62.7904 13.0304 62.7904 13.5715C62.7904 14.1126 62.9261 14.5634 63.1523 14.9241C63.4238 15.375 63.8309 15.6004 64.3285 15.6004C64.8261 15.6004 65.188 15.375 65.4595 14.879C65.7309 14.5183 65.8214 14.0224 65.8214 13.5264Z" fill="white"/>
<path d="M76.7687 10.6411L74.9592 16.3673H73.783L73.014 13.8874C72.833 13.2562 72.6521 12.625 72.5616 12.0388H72.5164C72.4259 12.6701 72.2449 13.3013 72.064 13.8874L71.2497 16.3673H70.0735L68.3545 10.6411H69.6664L70.2997 13.3915C70.4354 14.0227 70.5711 14.6539 70.7069 15.2401H70.7521C70.8426 14.7441 71.0235 14.158 71.2497 13.3915L72.064 10.6411H73.1045L73.8735 13.3464C74.0545 14.0227 74.2354 14.6088 74.3259 15.2401H74.3711C74.4616 14.6539 74.5973 14.0227 74.7783 13.3464L75.4568 10.6411H76.7687Z" fill="white"/>
<path d="M83.4189 16.3666H82.1522V13.0752C82.1522 12.0833 81.7451 11.5422 80.976 11.5422C80.6141 11.5422 80.2975 11.6775 80.0713 11.948C79.8451 12.2185 79.7094 12.5342 79.7094 12.9399V16.3666H78.4427V12.2636C78.4427 11.7677 78.4427 11.2266 78.3975 10.6405H79.5284L79.5736 11.5422H79.6189C79.7546 11.2717 79.9808 11.0463 80.2975 10.8659C80.6594 10.6405 81.0213 10.5503 81.4736 10.5503C82.0165 10.5503 82.4689 10.7306 82.8308 11.0913C83.2832 11.4971 83.5093 12.1734 83.5093 12.985V16.3666H83.4189Z" fill="white"/>
<path d="M86.9473 8.02539H85.6807V16.4117H86.9473V8.02539Z" fill="white"/>
<path d="M94.5017 13.4813C94.5017 14.3831 94.2303 15.1045 93.7327 15.6455C93.1898 16.2317 92.5113 16.5022 91.6065 16.5022C90.747 16.5022 90.0684 16.2317 89.5708 15.6455C89.0732 15.1045 88.8018 14.3831 88.8018 13.5264C88.8018 12.6247 89.0732 11.9033 89.5708 11.3171C90.0684 10.731 90.7922 10.4604 91.6518 10.4604C92.5113 10.4604 93.1898 10.731 93.6875 11.3171C94.2303 11.9033 94.5017 12.6247 94.5017 13.4813ZM93.1446 13.5264C93.1446 12.9854 93.0089 12.5345 92.7827 12.1738C92.5113 11.7229 92.1494 11.4975 91.6518 11.4975C91.1541 11.4975 90.747 11.7229 90.4756 12.1738C90.2494 12.5345 90.1137 13.0304 90.1137 13.5715C90.1137 14.1126 90.2494 14.5634 90.4756 14.9241C90.747 15.375 91.1541 15.6004 91.6518 15.6004C92.1494 15.6004 92.5113 15.375 92.7827 14.879C93.0541 14.5183 93.1446 14.0224 93.1446 13.5264Z" fill="white"/>
<path d="M100.7 16.3669H99.5689L99.4784 15.6906H99.4332C99.026 16.2317 98.4832 16.5022 97.7594 16.5022C97.2165 16.5022 96.7642 16.3219 96.4475 15.9612C96.1308 15.6455 95.9951 15.2397 95.9951 14.7889C95.9951 14.0675 96.2665 13.5715 96.8999 13.1657C97.488 12.805 98.3022 12.6247 99.388 12.6247V12.5345C99.388 11.768 98.9808 11.4073 98.2118 11.4073C97.6237 11.4073 97.1261 11.5426 96.7189 11.8131L96.4475 10.9564C96.9904 10.6408 97.6237 10.4604 98.438 10.4604C99.9308 10.4604 100.7 11.272 100.7 12.8501V14.9692C100.609 15.6005 100.655 16.0513 100.7 16.3669ZM99.388 14.4282V13.5264C97.9856 13.4813 97.2618 13.8871 97.2618 14.6987C97.2618 15.0143 97.3522 15.2397 97.488 15.375C97.6689 15.5103 97.8499 15.6004 98.1213 15.6004C98.3927 15.6004 98.6641 15.5103 98.8903 15.3299C99.1165 15.1496 99.2975 14.9241 99.3427 14.6536L99.388 14.4282Z" fill="white"/>
<path d="M107.983 16.3668H106.852L106.806 15.465H106.761C106.399 16.1864 105.766 16.5021 104.906 16.5021C104.228 16.5021 103.64 16.2315 103.187 15.6905C102.735 15.1494 102.509 14.428 102.509 13.5713C102.509 12.6245 102.735 11.9031 103.278 11.317C103.775 10.7759 104.364 10.5054 105.042 10.5054C105.811 10.5054 106.354 10.7759 106.671 11.2719H106.716V7.98047H107.983V14.8338C107.937 15.4199 107.937 15.9159 107.983 16.3668ZM106.671 13.9771V13.0303C106.671 12.8499 106.671 12.7147 106.625 12.6245C106.535 12.3089 106.399 12.0384 106.173 11.858C105.947 11.6326 105.63 11.5424 105.314 11.5424C104.816 11.5424 104.454 11.7228 104.183 12.1285C103.911 12.4892 103.775 12.9852 103.775 13.5713C103.775 14.1575 103.911 14.6084 104.183 14.9691C104.454 15.3298 104.816 15.5552 105.314 15.5552C105.721 15.5552 106.083 15.4199 106.309 15.1043C106.535 14.7436 106.671 14.3829 106.671 13.9771Z" fill="white"/>
<path d="M118.93 13.4813C118.93 14.3831 118.659 15.1045 118.161 15.6455C117.619 16.2317 116.94 16.5022 116.035 16.5022C115.176 16.5022 114.497 16.2317 114 15.6455C113.502 15.1045 113.23 14.3831 113.23 13.5264C113.23 12.6247 113.502 11.9033 114 11.3171C114.497 10.731 115.221 10.4604 116.08 10.4604C116.94 10.4604 117.619 10.731 118.116 11.3171C118.704 11.9033 118.93 12.6247 118.93 13.4813ZM117.619 13.5264C117.619 12.9854 117.483 12.5345 117.257 12.1738C116.985 11.7229 116.623 11.4975 116.126 11.4975C115.628 11.4975 115.221 11.7229 114.95 12.1738C114.723 12.5345 114.588 13.0304 114.588 13.5715C114.588 14.1126 114.723 14.5634 114.95 14.9241C115.221 15.375 115.628 15.6004 116.126 15.6004C116.623 15.6004 116.985 15.375 117.257 14.879C117.483 14.5183 117.619 14.0224 117.619 13.5264Z" fill="white"/>
<path d="M125.851 16.3666H124.585V13.0752C124.585 12.0833 124.178 11.5422 123.409 11.5422C123.047 11.5422 122.73 11.6775 122.504 11.948C122.278 12.2185 122.142 12.5342 122.142 12.9399V16.3666H120.875V12.2636C120.875 11.7677 120.875 11.2266 120.83 10.6405H121.961L122.006 11.5422H122.051C122.187 11.2717 122.413 11.0463 122.73 10.8659C123.092 10.6405 123.454 10.5503 123.906 10.5503C124.449 10.5503 124.901 10.7306 125.263 11.0913C125.716 11.4971 125.942 12.1734 125.942 12.985V16.3666H125.851Z" fill="white"/>
<path d="M134.447 11.5876H133.045V14.383C133.045 15.1044 133.316 15.4651 133.814 15.4651C134.04 15.4651 134.221 15.4651 134.402 15.42L134.447 16.3669C134.176 16.457 133.859 16.5021 133.452 16.5021C132.954 16.5021 132.547 16.3669 132.276 16.0512C132.004 15.7356 131.869 15.2397 131.869 14.5183V11.6326H130.964V10.6858H131.823V9.64879L133.09 9.28809V10.7309H134.492L134.447 11.5876Z" fill="white"/>
<path d="M141.233 16.3666H139.966V13.1203C139.966 12.0833 139.559 11.5873 138.79 11.5873C138.202 11.5873 137.795 11.9029 137.569 12.4891C137.523 12.6243 137.523 12.7596 137.523 12.94V16.4117H136.257V8.02539H137.523V11.4971H137.569C137.976 10.8659 138.564 10.5503 139.288 10.5503C139.831 10.5503 140.238 10.7307 140.6 11.0914C141.052 11.5422 141.233 12.1735 141.233 13.0301V16.3666Z" fill="white"/>
<path d="M148.244 13.2559C148.244 13.4813 148.244 13.6617 148.199 13.842H144.354C144.354 14.4282 144.535 14.834 144.897 15.1496C145.213 15.4201 145.621 15.5554 146.163 15.5554C146.751 15.5554 147.249 15.4652 147.701 15.2848L147.882 16.1866C147.34 16.412 146.706 16.5473 145.937 16.5473C145.032 16.5473 144.354 16.2768 143.811 15.7808C143.313 15.2397 143.042 14.5634 143.042 13.6617C143.042 12.805 143.268 12.0836 143.766 11.4975C144.263 10.8662 144.942 10.5957 145.801 10.5957C146.616 10.5957 147.249 10.9113 147.701 11.4975C148.063 11.9032 148.244 12.5345 148.244 13.2559ZM147.023 12.8952C147.023 12.5345 146.932 12.1738 146.797 11.9033C146.571 11.5425 146.254 11.3622 145.756 11.3622C145.349 11.3622 144.987 11.5425 144.716 11.9033C144.49 12.1738 144.399 12.4894 144.354 12.8952H147.023Z" fill="white"/>
</svg>
