<svg width="18" height="18" viewBox="0 0 18 18" fill="none" xmlns="http://www.w3.org/2000/svg">
<path fill-rule="evenodd" clip-rule="evenodd" d="M3.75 1.5H14.25C16.3178 1.5 18 3.18225 18 5.25V15.75C18 16.1648 17.6648 16.5 17.25 16.5C16.8353 16.5 16.5 16.1648 16.5 15.75V14.25H1.5V15.75C1.5 16.1648 1.164 16.5 0.75 16.5C0.336 16.5 0 16.1648 0 15.75V5.25C0 3.18225 1.68225 1.5 3.75 1.5ZM14.25 3H3.75C2.5095 3 1.5 4.0095 1.5 5.25V9.75H3H4.5H8.25H9.75H13.5H15H16.5V5.25C16.5 4.0095 15.4905 3 14.25 3ZM1.5 11.25V12.75H16.5V11.25H1.5Z" fill="black"/>
<path fill-rule="evenodd" clip-rule="evenodd" d="M3 9.75H4.5C4.5 8.92275 5.17275 8.25 6 8.25H6.75C7.57725 8.25 8.25 8.92275 8.25 9.75H9.75C9.75 8.92275 10.4227 8.25 11.25 8.25H12C12.8273 8.25 13.5 8.92275 13.5 9.75H15C15 8.0955 13.6545 6.75 12 6.75H11.25C10.3545 6.75 9.5505 7.1445 9 7.76775C8.4495 7.14375 7.6455 6.75 6.75 6.75H6C4.3455 6.75 3 8.0955 3 9.75Z" fill="#F3794F"/>
</svg>
