<svg width="18" height="18" viewBox="0 0 18 18" fill="none" xmlns="http://www.w3.org/2000/svg">
<path d="M9.29706 0.385498C4.67305 0.385498 0.911621 4.14728 0.911621 8.77093C0.911621 13.3946 4.67305 17.1564 9.29706 17.1564C13.9211 17.1564 17.6825 13.3946 17.6825 8.77093C17.6825 4.14728 13.9211 0.385498 9.29706 0.385498ZM9.29706 16.4576C5.05861 16.4576 1.6104 13.0094 1.6104 8.77093C1.6104 4.53249 5.05861 1.08427 9.29706 1.08427C13.5355 1.08427 16.9837 4.53249 16.9837 8.77093C16.9837 13.0094 13.5355 16.4576 9.29706 16.4576Z" fill="black"/>
<path d="M12.6306 8.47708L7.73912 5.33254C7.63198 5.26261 7.49345 5.25884 7.3829 5.31957C7.27029 5.38099 7.20068 5.49838 7.20068 5.62633V11.9154C7.20068 12.0433 7.27029 12.1607 7.3829 12.2222C7.43476 12.2505 7.49277 12.2648 7.55009 12.2648C7.6156 12.2648 7.6818 12.2464 7.73912 12.2092L12.6306 9.06465C12.7303 9.00051 12.791 8.8896 12.791 8.77086C12.791 8.65212 12.7303 8.54125 12.6306 8.47708ZM9.44021 10.2848C8.77469 10.7127 7.89946 10.2348 7.89946 9.44366V8.09808C7.89946 7.30692 8.77469 6.82907 9.44021 7.25689L10.4868 7.92968C11.0991 8.32331 11.0991 9.21842 10.4868 9.61205L9.44021 10.2848Z" fill="#F3794F"/>
</svg>
