<svg width="19" height="19" viewBox="0 0 19 19" fill="none" xmlns="http://www.w3.org/2000/svg">
<g clip-path="url(#clip0_330_38)">
<path d="M17.8298 12.4475L14.6381 10.4713V7.15043C14.638 7.08484 14.6206 7.02045 14.5877 6.96368C14.5549 6.90692 14.5077 6.85978 14.4509 6.82699L9.95871 4.20654C9.90145 4.17313 9.83634 4.15552 9.77004 4.15552C9.70374 4.15552 9.63863 4.17313 9.58137 4.20654L5.08917 6.82699C5.03293 6.86016 4.98634 6.90746 4.95403 6.9642C4.92172 7.02093 4.90482 7.08514 4.90499 7.15043V10.4717L1.71328 12.4475C1.65911 12.481 1.61441 12.5279 1.5834 12.5836C1.5524 12.6393 1.53613 12.7019 1.53613 12.7657C1.53613 12.8294 1.5524 12.8921 1.5834 12.9478C1.61441 13.0035 1.65911 13.0503 1.71328 13.0839L9.57463 17.9504C9.63383 17.9871 9.70209 18.0065 9.77172 18.0065C9.84136 18.0065 9.90962 17.9871 9.96882 17.9504L17.8302 13.0839C17.8843 13.0503 17.929 13.0034 17.96 12.9477C17.9909 12.892 18.0072 12.8293 18.0071 12.7656C18.0071 12.7018 17.9908 12.6392 17.9597 12.5835C17.9287 12.5278 17.884 12.481 17.8298 12.4475ZM5.65369 7.80217L9.39719 9.98575V14.36L5.65369 12.1764V7.80217ZM10.1459 9.98575L13.8894 7.80217V12.1764L10.1459 14.36V9.98575ZM9.77154 4.96348L13.5207 7.15043L9.77154 9.33738L6.02242 7.15043L9.77154 4.96348ZM9.77154 17.192L2.62145 12.7657L4.90499 11.3518V12.3913C4.90512 12.4569 4.92248 12.5213 4.95533 12.5781C4.98818 12.6348 5.03537 12.682 5.09216 12.7148L9.58436 15.3352C9.64163 15.3686 9.70673 15.3862 9.77303 15.3862C9.83933 15.3862 9.90444 15.3686 9.96171 15.3352L14.4539 12.7148C14.5101 12.6816 14.5567 12.6343 14.589 12.5776C14.6214 12.5208 14.6383 12.4566 14.6381 12.3913V11.3518L16.9216 12.7657L9.77154 17.192Z" fill="black"/>
<path d="M4.1556 4.52999H5.653V3.78129H5.29138C6.58265 2.80948 8.15493 2.28393 9.77103 2.28393C11.3871 2.28393 12.9594 2.80948 14.2507 3.78129H13.8887V4.52999H15.3861C15.4854 4.52999 15.5806 4.49055 15.6508 4.42035C15.721 4.35015 15.7604 4.25493 15.7604 4.15564V2.65825H15.0117V3.41892C13.5367 2.20122 11.6836 1.53516 9.77085 1.53516C7.85809 1.53516 6.00502 2.20122 4.52995 3.41892V2.65825H3.78125V4.15564C3.78125 4.25493 3.82069 4.35015 3.89089 4.42035C3.9611 4.49055 4.05632 4.52999 4.1556 4.52999Z" fill="#F3794F"/>
</g>
<defs>
<clipPath id="clip0_330_38">
<rect width="17.9688" height="17.9688" fill="white" transform="translate(0.786621 0.786377)"/>
</clipPath>
</defs>
</svg>
