<svg width="21" height="14" viewBox="0 0 21 14" fill="none" xmlns="http://www.w3.org/2000/svg">
<path d="M19.6312 3.14917V2.69198C19.6312 2.30595 19.358 1.98285 18.9948 1.90517V1.36304H19.7248C19.8799 1.36304 20.0056 1.23737 20.0056 1.08228C20.0056 0.927183 19.8799 0.801514 19.7248 0.801514H17.7033C17.5482 0.801514 17.4226 0.927183 17.4226 1.08228C17.4226 1.23737 17.5482 1.36304 17.7033 1.36304H18.4333V1.90517C18.0702 1.98285 17.7969 2.30599 17.7969 2.69198V3.10582C17.692 3.12188 17.5885 3.14704 17.4875 3.18182L14.4764 4.2179C14.2494 3.74738 13.7675 3.422 13.2111 3.422H12.9471C12.8107 2.49159 12.0076 1.77486 11.0399 1.77486H9.80451C8.83681 1.77486 8.03365 2.49159 7.89727 3.422H7.63332C7.07688 3.422 6.59502 3.74742 6.36805 4.2179L5.31272 3.85479C5.16594 3.80429 5.00632 3.88234 4.95589 4.0289C4.90543 4.17553 4.98337 4.3353 5.13 4.38573L6.2295 4.76404V5.96129L3.50023 4.46464C3.23897 4.3213 2.94327 4.24553 2.64518 4.24553H1.90576C1.6271 4.24553 1.40039 4.01883 1.40039 3.74016C1.40039 3.68854 1.44236 3.64657 1.49398 3.64657H2.77841C2.91344 3.64657 3.04663 3.66885 3.17425 3.71279L3.88843 3.95852C4.03533 4.00909 4.19488 3.931 4.24526 3.78441C4.29573 3.63778 4.21779 3.478 4.07115 3.42758L3.35701 3.18185C3.25597 3.14708 3.1525 3.12192 3.04753 3.10586V2.69198C3.04753 2.30595 2.77429 1.98285 2.41114 1.90517V1.36304H3.14112C3.29621 1.36304 3.42188 1.23737 3.42188 1.08228C3.42188 0.927183 3.29621 0.801514 3.14112 0.801514H1.11963C0.964536 0.801514 0.838867 0.927183 0.838867 1.08228C0.838867 1.23737 0.964536 1.36304 1.11963 1.36304H1.84961V1.90517C1.48645 1.98285 1.21322 2.30599 1.21322 2.69198V3.14917C0.992276 3.25459 0.838867 3.4795 0.838867 3.74016C0.838867 4.32845 1.31747 4.80706 1.90576 4.80706H2.64518C2.84913 4.80706 3.05142 4.8589 3.23018 4.95695L6.24047 6.60772C6.28004 6.9294 6.42855 7.21772 6.64825 7.43439L6.04038 8.16692C5.1364 9.25628 4.63856 10.6358 4.63856 12.0515V12.2941C4.63856 12.7585 5.01642 13.1363 5.48084 13.1363C5.94526 13.1363 6.32313 12.7585 6.32313 12.2941V12.0515C6.32313 11.0279 6.6831 10.0304 7.33676 9.24265L8.50125 7.83929H9.59865V8.55055H9.32774C8.87852 8.55055 8.51304 8.91603 8.51304 9.36525V11.5543C8.51304 12.0035 8.87852 12.369 9.32774 12.369H9.93557C10.0907 12.369 10.2163 12.2433 10.2163 12.0882C10.2163 11.9331 10.0907 11.8074 9.93557 11.8074H9.32774C9.18814 11.8074 9.07456 11.6939 9.07456 11.5543V9.36525C9.07456 9.22566 9.18814 9.11208 9.32774 9.11208H11.5167C11.6563 9.11208 11.7699 9.22566 11.7699 9.36525V11.5543C11.7699 11.6939 11.6563 11.8074 11.5167 11.8074H11.2458C11.0907 11.8074 10.965 11.9331 10.965 12.0882C10.965 12.2433 11.0907 12.369 11.2458 12.369H11.5167C11.9659 12.369 12.3314 12.0035 12.3314 11.5543V9.36525C12.3314 8.91603 11.9659 8.55055 11.5167 8.55055H11.2832V7.83929H12.3432L13.5077 9.24265C14.1614 10.0304 14.5214 11.0279 14.5214 12.0515V12.2941C14.5214 12.7585 14.8992 13.1363 15.3636 13.1363C15.8281 13.1363 16.2059 12.7585 16.2059 12.2941V12.0515C16.2059 11.3717 16.0923 10.7002 15.8683 10.0555C15.8174 9.90907 15.6575 9.83169 15.5109 9.88245C15.3645 9.93337 15.287 10.0934 15.3379 10.2398C15.5413 10.8251 15.6444 11.4347 15.6444 12.0515V12.2941C15.6444 12.4489 15.5185 12.5749 15.3636 12.5749C15.2088 12.5749 15.0829 12.4489 15.0829 12.2941V12.0515C15.0829 10.8973 14.6769 9.77236 13.9398 8.88414L13.0729 7.83933H13.2111C13.3915 7.83933 13.5637 7.80477 13.7223 7.74256L14.372 8.52555C14.5264 8.71167 14.67 8.91008 14.7987 9.11534C14.852 9.20035 14.9434 9.24699 15.0368 9.24699C15.0877 9.24699 15.1393 9.23314 15.1857 9.20406C15.3171 9.1217 15.3568 8.94841 15.2744 8.81705C15.1326 8.59083 14.9743 8.37214 14.8041 8.16703L14.1962 7.43451C14.4159 7.21783 14.5644 6.92951 14.604 6.60783L17.6143 4.95702C17.7931 4.85902 17.9954 4.80717 18.1993 4.80717H18.9387C19.527 4.80717 20.0056 4.32856 20.0056 3.74027C20.0056 3.4795 19.8522 3.25455 19.6312 3.14917ZM1.77474 2.69198C1.77474 2.55781 1.8839 2.44865 2.01807 2.44865H2.24268C2.37685 2.44865 2.48601 2.55781 2.48601 2.69198V3.08505H1.77474V2.69198ZM18.3584 2.69198C18.3584 2.55781 18.4676 2.44865 18.6018 2.44865H18.8264C18.9605 2.44865 19.0697 2.55781 19.0697 2.69198V3.08505H18.3584V2.69198ZM6.90461 8.8841C6.16751 9.77236 5.76157 10.8972 5.76157 12.0515V12.2941C5.76157 12.4489 5.63564 12.5748 5.4808 12.5748C5.32597 12.5748 5.20004 12.4489 5.20004 12.2941V12.0515C5.20004 10.7666 5.65192 9.51432 6.47246 8.52551L7.12218 7.74252C7.28068 7.80474 7.45299 7.83929 7.63332 7.83929H7.77156L6.90461 8.8841ZM10.7217 8.55055H10.1602V7.83929H10.7217V8.55055ZM12.4742 7.27777C10.9757 7.27777 9.12952 7.27777 7.63332 7.27777C7.1689 7.27777 6.79103 6.8999 6.79103 6.43548V4.82577C6.79103 4.36136 7.1689 3.98349 7.63332 3.98349H8.81252C8.96761 3.98349 9.09328 3.85782 9.09328 3.70272C9.09328 3.54763 8.96761 3.42196 8.81252 3.42196H8.46729C8.59715 2.80279 9.14734 2.33635 9.80455 2.33635H11.0399C11.6971 2.33635 12.2473 2.80279 12.3772 3.42196H10.1227C9.96765 3.42196 9.84198 3.54763 9.84198 3.70272C9.84198 3.85782 9.96765 3.98349 10.1227 3.98349H13.2111C13.6755 3.98349 14.0534 4.36136 14.0534 4.82577V6.43548C14.0534 6.8999 13.6755 7.27777 13.2111 7.27777H12.4742ZM18.9387 4.24553H18.1993C17.9012 4.24553 17.6055 4.32126 17.3442 4.4646L14.6149 5.96129V4.76404L17.6702 3.71279C17.7978 3.66885 17.931 3.64657 18.066 3.64657H19.3505C19.4021 3.64657 19.4441 3.68854 19.4441 3.74016C19.4441 4.01883 19.2173 4.24553 18.9387 4.24553Z" fill="black"/>
<path d="M11.2647 10.4597C11.2647 9.9953 10.8868 9.61743 10.4224 9.61743C9.95795 9.61743 9.58008 9.9953 9.58008 10.4597C9.58008 10.9241 9.95795 11.302 10.4224 11.302C10.8868 11.302 11.2647 10.9241 11.2647 10.4597ZM10.4224 10.7405C10.2675 10.7405 10.1416 10.6145 10.1416 10.4597C10.1416 10.3049 10.2675 10.179 10.4224 10.179C10.5772 10.179 10.7031 10.3049 10.7031 10.4597C10.7031 10.6145 10.5772 10.7405 10.4224 10.7405Z" fill="#F3794F"/>
</svg>
