<svg width="226" height="86" viewBox="0 0 226 86" fill="none" xmlns="http://www.w3.org/2000/svg">
<path d="M46.0596 43.6104C46.0596 40.4708 47.9315 38.2837 50.7922 38.2837C53.6529 38.2837 55.5246 40.4708 55.5246 43.6104C55.5246 46.7149 53.6529 48.9371 50.7922 48.9371C47.9315 48.9371 46.0596 46.7149 46.0596 43.6104Z" fill="#454545"/>
<path d="M70.2521 38.1426C67.5328 38.1426 65.6963 40.2591 65.6963 43.1519C65.6963 46.0798 67.568 48.2669 70.2521 48.2669C73.2188 48.2669 75.1966 46.0445 75.1966 43.1519C75.1966 40.2944 73.2188 38.1426 70.2521 38.1426Z" fill="#454545"/>
<path d="M86.0176 43.6104C86.0176 40.4708 87.8895 38.2837 90.7502 38.2837C93.6109 38.2837 95.4826 40.4708 95.4826 43.6104C95.4826 46.7149 93.6109 48.9371 90.7502 48.9371C87.8895 48.9371 86.0176 46.7149 86.0176 43.6104Z" fill="#454545"/>
<path d="M114.798 43.6456C114.798 40.506 116.705 38.3188 119.707 38.3188C122.709 38.3188 124.51 40.5413 124.51 43.6456C124.51 46.7499 122.709 48.937 119.707 48.937C116.705 48.937 114.798 46.7852 114.798 43.6456Z" fill="#454545"/>
<path fill-rule="evenodd" clip-rule="evenodd" d="M113 80.516C173.007 80.516 221.653 63.4661 221.653 42.434C221.653 21.4019 173.007 4.35205 113 4.35205C52.9917 4.35205 4.3457 21.4019 4.3457 42.434C4.3457 63.4661 52.9917 80.516 113 80.516ZM39.0775 52.3589V26.1132H34.7687V52.3589H39.0775ZM41.7146 43.6102C41.7146 48.9723 45.3171 52.7822 50.7912 52.7822C56.2654 52.7822 59.8677 48.9723 59.8677 43.6102C59.8677 38.2482 56.2654 34.4384 50.7912 34.4384C45.3171 34.4384 41.7146 38.2482 41.7146 43.6102ZM69.5105 52.0061C64.6013 52.0061 61.3168 48.3374 61.3168 43.2575C61.3168 38.1424 64.672 34.3678 69.6517 34.3678C72.2299 34.3678 74.4195 35.4615 75.479 37.2959L75.7263 34.9322H79.5405V51.477C79.5405 57.2271 75.9382 60.9309 70.2875 60.9309C65.4842 60.9309 61.9879 57.9679 61.4229 53.4171H65.7669C66.014 55.7101 67.8506 57.0154 70.5346 57.0154C73.5366 57.0154 75.3378 55.1104 75.3378 52.2529V49.2899C74.2429 50.983 72.0533 52.0061 69.5105 52.0061ZM81.6728 43.6102C81.6728 48.9723 85.2752 52.7822 90.7494 52.7822C96.2236 52.7822 99.8258 48.9723 99.8258 43.6102C99.8258 38.2482 96.2236 34.4384 90.7494 34.4384C85.2752 34.4384 81.6728 38.2482 81.6728 43.6102ZM107.067 28.7942C107.067 30.2406 105.902 31.3694 104.489 31.3694C103.041 31.3694 101.946 30.2406 101.946 28.7942C101.946 27.3831 103.041 26.2542 104.489 26.2542C105.902 26.2542 107.067 27.3831 107.067 28.7942ZM106.643 34.9322V52.3589H102.335V34.9322H106.643ZM110.418 60.4371H114.621V49.9601C115.716 51.7591 118.082 52.8174 120.695 52.8174C125.852 52.8174 128.924 48.8665 128.854 43.4339C128.748 37.9661 125.604 34.4031 120.66 34.4031C118.011 34.4031 115.61 35.5673 114.55 37.578L114.303 34.9322H110.418V60.4371ZM136.94 52.8174C132.773 52.8174 130.089 50.5949 129.948 47.1379H133.868C133.868 48.6548 134.963 49.5367 136.87 49.5367C138.459 49.5367 139.766 48.9018 139.766 47.526C139.766 46.5382 139.059 46.009 137.929 45.6916L134.892 44.9155C131.537 44.0336 130.23 42.1639 130.23 39.9062C130.23 36.5902 133.02 34.4031 136.764 34.4031C140.543 34.4031 143.121 36.5902 143.262 40.0474H139.342C139.342 38.5305 138.282 37.6133 136.658 37.6133C135.104 37.6133 134.15 38.4599 134.15 39.6594C134.15 40.7882 135.033 41.2467 136.34 41.5995L139.413 42.3403C142.273 43.0458 143.827 44.7391 143.827 47.2438C143.827 50.6303 141.037 52.8174 136.94 52.8174ZM152.765 52.8174C155.13 52.8174 157.39 51.7238 158.415 50.1011L158.698 52.3589H162.724V34.9322H158.415V44.0689C158.415 47.2085 157.214 48.9723 154.389 48.9723C152.2 48.9723 150.681 47.914 150.681 44.3159V34.9322H146.372V45.8327C146.372 49.9954 148.632 52.8174 152.765 52.8174ZM170.836 42.3403V52.3589H166.527V34.9322H170.482L170.694 36.9078C171.719 35.3556 173.555 34.4031 175.603 34.4031C178.499 34.4031 180.406 35.673 181.36 37.7191C182.208 35.673 184.292 34.4031 186.941 34.4031C191.179 34.4031 193.403 36.9431 193.403 40.9646V52.3589H189.235V41.9523C189.235 39.483 187.894 38.1778 185.811 38.1778C183.762 38.1778 182.137 39.5183 182.137 42.3756V52.3589H177.934V41.9523C177.934 39.483 176.593 38.1778 174.544 38.1778C172.496 38.1778 170.836 39.5183 170.836 42.3403Z" fill="#454545"/>
</svg>
