<svg width="202" height="51" viewBox="0 0 202 51" fill="none" xmlns="http://www.w3.org/2000/svg">
<path d="M23.2898 9.9751V3.6001H3.08984V47.4001H23.2898V41.0251C19.1519 41.0251 15.1833 39.3894 12.2574 36.4779C9.3314 33.5664 7.6876 29.6176 7.6876 25.5001C7.6876 21.3826 9.3314 17.4337 12.2574 14.5223C15.1833 11.6108 19.1519 9.9751 23.2898 9.9751Z" fill="#454545"/>
<path d="M23.29 9.9751V41.0251C27.428 41.0251 31.3966 39.3894 34.3226 36.4779C37.2485 33.5664 38.8923 29.6176 38.8923 25.5001C38.8923 21.3826 37.2485 17.4337 34.3226 14.5223C31.3966 11.6108 27.428 9.9751 23.29 9.9751Z" fill="#454545"/>
<path d="M50.2285 13.875H54.7509V35.55H50.2285V13.875Z" fill="#454545"/>
<path d="M57.2839 28.1248C57.2839 26.5654 57.7493 25.0411 58.6209 23.7451C59.4925 22.4491 60.7312 21.4398 62.18 20.845C63.6288 20.2504 65.2224 20.0971 66.7588 20.4046C68.2952 20.7121 69.7053 21.4666 70.8102 22.5724C71.9152 23.6784 72.6655 25.0857 72.9657 26.6163C73.2659 28.1469 73.1028 29.7316 72.4968 31.1698C71.8908 32.6079 70.8695 33.8347 69.562 34.6945C68.2546 35.5545 66.72 36.0087 65.1529 35.9998C64.1135 36.0079 63.0828 35.8095 62.1215 35.4159C61.1602 35.0224 60.2874 34.4419 59.5545 33.7086C58.8215 32.9751 58.2433 32.1033 57.8533 31.1445C57.4635 30.1857 57.2699 29.1591 57.2839 28.1248ZM68.62 28.1248C68.6022 27.4525 68.3856 26.8003 67.9973 26.25C67.609 25.6995 67.0663 25.2751 66.4368 25.03C65.8074 24.7849 65.1194 24.7299 64.4588 24.8719C63.7981 25.0138 63.1942 25.3464 62.7225 25.8282C62.2509 26.3098 61.9323 26.9191 61.8069 27.58C61.6815 28.2409 61.7546 28.9239 62.0172 29.5435C62.2798 30.1632 62.7201 30.6922 63.2833 31.0641C63.8464 31.4361 64.5071 31.6345 65.183 31.6348C65.6432 31.6438 66.1003 31.5582 66.5257 31.3833C66.9511 31.2085 67.3357 30.9483 67.6554 30.6189C67.9751 30.2895 68.2231 29.8978 68.384 29.4688C68.5448 29.0397 68.6149 28.5822 68.5899 28.1248H68.62Z" fill="#454545"/>
<path d="M90.9155 20.7002V34.8152C90.9155 39.7952 86.9961 41.9102 83.0315 41.9102C81.633 42.0243 80.2303 41.7479 78.9814 41.1119C77.7323 40.4759 76.6864 39.5055 75.9615 38.3102L79.7753 36.1202C80.0844 36.7403 80.576 37.2518 81.1847 37.5867C81.7934 37.9217 82.4901 38.0642 83.1822 37.9952C83.6231 38.0492 84.0705 38.0057 84.4925 37.8677C84.9146 37.7295 85.3006 37.5005 85.6232 37.1966C85.946 36.8927 86.1971 36.5217 86.3589 36.11C86.5206 35.6984 86.5889 35.2562 86.5589 34.8152V33.4502C86.0327 34.0851 85.3649 34.5891 84.6087 34.9224C83.8524 35.2557 83.0286 35.409 82.2024 35.3702C80.2033 35.3702 78.2863 34.58 76.8727 33.1734C75.4592 31.767 74.665 29.8593 74.665 27.8702C74.665 25.881 75.4592 23.9735 76.8727 22.5669C78.2863 21.1604 80.2033 20.3702 82.2024 20.3702C83.0286 20.3313 83.8524 20.4846 84.6087 20.8179C85.3649 21.1512 86.0327 21.6552 86.5589 22.2902V20.7902L90.9155 20.7002ZM86.5589 27.8252C86.5889 27.1076 86.4026 26.3973 86.0238 25.7859C85.6449 25.1745 85.0911 24.6899 84.4331 24.3942C83.7752 24.0986 83.0437 24.0056 82.3321 24.1271C81.6208 24.2486 80.962 24.579 80.4409 25.076C79.9198 25.5729 79.5599 26.2137 79.4077 26.9159C79.2554 27.618 79.3177 28.3493 79.5865 29.0159C79.8554 29.6825 80.3185 30.2538 80.9162 30.6564C81.514 31.059 82.2192 31.2746 82.941 31.2752C83.4121 31.3089 83.885 31.244 84.3291 31.0847C84.7733 30.9252 85.1791 30.6749 85.52 30.3497C85.861 30.0246 86.1296 29.6319 86.3085 29.1971C86.4875 28.7622 86.5728 28.2948 86.5589 27.8252Z" fill="#454545"/>
<path d="M93.4624 28.125C93.4624 26.5668 93.927 25.0437 94.7973 23.7483C95.6676 22.4529 96.9044 21.4436 98.3514 20.8481C99.7985 20.2524 101.39 20.0973 102.926 20.4024C104.462 20.7075 105.872 21.459 106.978 22.5618C108.084 23.6648 108.837 25.0694 109.141 26.5979C109.444 28.1265 109.285 29.7104 108.684 31.149C108.083 32.5878 107.066 33.8166 105.763 34.6802C104.459 35.5437 102.927 36.003 101.362 36C100.32 36.0101 99.2871 35.8131 98.3233 35.4207C97.3594 35.0283 96.4838 34.4484 95.7482 33.7149C95.0124 32.9814 94.4313 32.1092 94.0387 31.1493C93.6464 30.1895 93.4504 29.1612 93.4624 28.125ZM104.799 28.125C104.781 27.4521 104.564 26.7993 104.175 26.2485C103.786 25.6979 103.242 25.2735 102.612 25.0289C101.982 24.7842 101.293 24.7301 100.632 24.8733C99.9708 25.0164 99.3669 25.3506 98.8958 25.8338C98.4247 26.3169 98.1074 26.9277 97.9838 27.5895C97.86 28.2513 97.9352 28.9347 98.2001 29.5541C98.465 30.1736 98.9077 30.7014 99.4728 31.0716C100.038 31.4417 100.7 31.6377 101.377 31.635C101.837 31.644 102.294 31.5584 102.719 31.3835C103.145 31.2087 103.529 30.9485 103.849 30.6191C104.169 30.2897 104.417 29.898 104.578 29.469C104.738 29.0399 104.809 28.5824 104.783 28.125H104.799Z" fill="#454545"/>
<path d="M111.356 16.7252C111.356 16.1972 111.514 15.6809 111.809 15.2418C112.104 14.8027 112.523 14.4605 113.013 14.2584C113.503 14.0563 114.043 14.0035 114.563 14.1065C115.084 14.2095 115.562 14.4638 115.937 14.8372C116.312 15.2106 116.568 15.6864 116.671 16.2042C116.775 16.7222 116.722 17.259 116.519 17.747C116.316 18.2348 115.972 18.6518 115.53 18.9452C115.089 19.2386 114.571 19.3952 114.04 19.3952C113.33 19.3874 112.653 19.1036 112.151 18.6045C111.649 18.1055 111.364 17.4309 111.356 16.7252ZM111.794 20.7002H116.316V35.5502H111.794V20.7002Z" fill="#454545"/>
<path d="M135.672 28.1249C135.723 29.1125 135.576 30.1004 135.242 31.0316C134.908 31.9628 134.391 32.819 133.723 33.5509C133.055 34.2829 132.248 34.876 131.348 35.2963C130.448 35.7166 129.474 35.9557 128.481 35.9999C127.639 36.0557 126.794 35.9215 126.011 35.6072C125.228 35.2928 124.527 34.8067 123.959 34.1849V41.5199H119.437V20.6999H123.959V22.0949C124.528 21.475 125.23 20.9911 126.013 20.6794C126.796 20.3675 127.64 20.2361 128.481 20.2949C129.47 20.3392 130.441 20.5769 131.337 20.9944C132.234 21.4118 133.039 22.001 133.706 22.7281C134.374 23.4551 134.891 24.3059 135.229 25.232C135.566 26.158 135.717 27.1409 135.672 28.1249ZM131.15 28.1249C131.132 27.4282 130.908 26.7523 130.505 26.1818C130.103 25.6114 129.541 25.1716 128.888 24.9179C128.236 24.6641 127.523 24.6077 126.838 24.7555C126.154 24.9032 125.529 25.2488 125.041 25.7488C124.553 26.2487 124.224 26.8808 124.096 27.566C123.967 28.2511 124.045 28.9586 124.319 29.6C124.593 30.2413 125.051 30.7879 125.636 31.1713C126.221 31.5547 126.907 31.7576 127.607 31.7549C128.087 31.7752 128.565 31.6943 129.011 31.5176C129.458 31.3409 129.861 31.0724 130.196 30.7297C130.53 30.3869 130.788 29.9776 130.952 29.5288C131.117 29.0798 131.184 28.6015 131.15 28.1249Z" fill="#454545"/>
<path d="M149.435 31.0951C149.435 34.5151 146.42 35.9701 143.225 35.9701C141.921 36.0868 140.612 35.8119 139.468 35.1808C138.323 34.5498 137.395 33.5916 136.803 32.4301L140.692 30.2401C140.846 30.7753 141.18 31.2417 141.638 31.5612C142.097 31.8807 142.651 32.0338 143.209 31.9951C144.28 31.9951 144.822 31.6651 144.822 31.0651C144.822 29.4301 137.481 30.3001 137.481 25.1551C137.481 21.9151 140.225 20.2951 143.33 20.2951C144.51 20.2425 145.683 20.509 146.723 21.0663C147.764 21.6235 148.633 22.4508 149.239 23.4601L145.35 25.5001C145.178 25.1131 144.898 24.784 144.542 24.5524C144.186 24.3208 143.77 24.1968 143.345 24.1951C142.561 24.1951 142.094 24.4951 142.094 25.0201C142.094 26.7301 149.435 25.6051 149.435 31.0951Z" fill="#454545"/>
<path d="M165.821 20.7002V35.5502H161.299V34.1552C160.785 34.7727 160.132 35.2613 159.395 35.5818C158.656 35.9024 157.853 36.0456 157.048 36.0002C154.033 36.0002 151.455 33.8552 151.455 29.8502V20.7002H155.977V29.1752C155.941 29.5295 155.983 29.8872 156.101 30.2238C156.219 30.5603 156.407 30.8675 156.654 31.1243C156.903 31.3809 157.205 31.581 157.538 31.7108C157.871 31.8404 158.228 31.8965 158.585 31.8752C160.213 31.8752 161.359 30.9152 161.359 28.8752V20.7002H165.821Z" fill="#454545"/>
<path d="M191.447 26.4301V35.5501H186.925V26.8201C186.925 25.3201 186.216 24.3901 184.784 24.3901C183.352 24.3901 182.448 25.4251 182.448 27.1801V35.5501H177.925V26.8201C177.925 25.3201 177.217 24.3901 175.785 24.3901C174.353 24.3901 173.448 25.4251 173.448 27.1801V35.5501H168.926V20.7001H173.448V22.0651C173.917 21.4621 174.528 20.9845 175.228 20.6755C175.928 20.3665 176.695 20.2357 177.458 20.2951C178.222 20.2553 178.985 20.4143 179.669 20.7562C180.354 21.098 180.937 21.6112 181.362 22.2451C181.86 21.5827 182.517 21.0565 183.274 20.7155C184.029 20.3744 184.861 20.2298 185.689 20.2951C189.216 20.2951 191.447 22.7251 191.447 26.4301Z" fill="#454545"/>
<path d="M195.246 20.6098C197.078 20.6098 198.563 19.1323 198.563 17.3098C198.563 15.4873 197.078 14.0098 195.246 14.0098C193.415 14.0098 191.93 15.4873 191.93 17.3098C191.93 19.1323 193.415 20.6098 195.246 20.6098Z" fill="#454545"/>
</svg>
