<svg width="208" height="54" viewBox="0 0 208 54" fill="none" xmlns="http://www.w3.org/2000/svg">
<path d="M17.0438 48.982L12.1416 40.5319L19.3359 28.165L23.9075 36.0459L50.8951 36.0315L43.2372 49.0987L17.0438 48.982Z" fill="#454545"/>
<path d="M55.7139 27.6408L50.8117 36.0907L36.4528 36.0739L41.0248 28.1932L27.5186 4.94092L42.7187 5.00729L55.7139 27.6408Z" fill="#454545"/>
<path d="M17.7989 4.896H27.6033L34.768 17.2801L25.624 17.2796L12.143 40.5464L4.60059 27.4129L17.7989 4.896Z" fill="#454545"/>
<path fill-rule="evenodd" clip-rule="evenodd" d="M28.7992 2.93964L28.7699 2.88916H16.6411L2.27246 27.4028L12.1358 44.5778L12.1479 44.557L15.8766 50.9843L44.3928 51.1112L54.4071 34.0228H54.3405L58.0399 27.6461L43.8923 3.00553L28.7992 2.93964ZM38.1815 19.2872H38.2571L31.1274 6.964L41.5456 7.00947L53.3884 27.6358L49.6816 34.0255L39.9674 34.0306L43.3543 28.1927L38.1815 19.2872ZM26.3292 6.90325L31.1907 15.2729L24.4597 15.2728L12.9359 35.1611L12.1499 36.5125L6.93009 27.4232L18.9579 6.90325H26.3292ZM21.6551 28.1486L26.7897 19.2869L33.5226 19.2872L38.696 28.1939L35.3084 34.0331L25.0719 34.0387L21.6551 28.1486ZM14.4752 40.5403L16.4286 37.169L19.3335 32.1754L22.7437 38.054L32.9786 38.0485L32.962 38.077L47.352 38.0939L42.0819 47.0869L18.2114 46.9805L14.4752 40.5403Z" fill="#454545"/>
<path d="M131.501 17.5783C132.882 17.5783 134.004 16.4614 134.004 15.0583C134.004 13.6551 132.882 12.5669 131.501 12.5669C130.091 12.5669 128.969 13.6551 128.969 15.0583C128.969 16.4614 130.091 17.5783 131.501 17.5783ZM129.256 34.13H133.717V19.8119H129.256V34.13Z" fill="#454545"/>
<path d="M136.312 41.0027H140.686V32.6981C141.521 33.7864 143.42 34.5308 145.405 34.5308C149.693 34.5308 152.283 31.2664 152.168 26.7418C152.052 22.1312 149.376 19.3535 145.377 19.3535C143.334 19.3535 141.406 20.2412 140.6 21.5585L140.37 19.8118H136.312V41.0027ZM140.773 26.9708C140.773 24.8231 142.211 23.3914 144.283 23.3914C146.384 23.3914 147.707 24.8518 147.707 26.9708C147.707 29.0899 146.384 30.5504 144.283 30.5504C142.211 30.5504 140.773 29.1185 140.773 26.9708Z" fill="#454545"/>
<path d="M152.641 29.6054C152.755 32.4977 155.058 34.5022 158.683 34.5022C162.165 34.5022 164.583 32.6695 164.583 29.7199C164.583 27.6008 163.316 26.1977 160.956 25.6249L158.395 24.9949C157.474 24.7658 156.899 24.5368 156.899 23.7922C156.899 23.0477 157.503 22.5608 158.395 22.5608C159.402 22.5608 160.064 23.2195 160.035 24.1931H164.035C163.921 21.2149 161.646 19.3535 158.481 19.3535C155.287 19.3535 152.9 21.2435 152.9 24.1072C152.9 26.0258 153.964 27.6008 156.813 28.3454L159.345 29.0041C160.092 29.2045 160.409 29.5481 160.409 30.0349C160.409 30.7508 159.747 31.2091 158.626 31.2091C157.331 31.2091 156.641 30.6077 156.641 29.6054H152.641Z" fill="#454545"/>
<path d="M171.365 34.5024C173.12 34.5024 174.876 33.7007 175.768 32.5266L176.056 34.1301H180.228V19.812H175.797V27.2574C175.797 29.4051 175.164 30.5793 173.12 30.5793C171.537 30.5793 170.502 29.8634 170.502 27.2001V19.812H166.07V28.8038C166.07 32.2116 167.969 34.5024 171.365 34.5024Z" fill="#454545"/>
<path d="M187.254 34.1302V26.3125C187.254 23.9071 188.549 23.2198 189.815 23.2198C191.225 23.2198 192.146 24.0788 192.146 25.8544V34.1302H196.519V26.3125C196.519 23.8784 197.785 23.1911 199.051 23.1911C200.462 23.1911 201.411 24.0502 201.411 25.8544V34.1302H205.727V24.7661C205.727 21.5015 204.001 19.3252 200.289 19.3252C198.218 19.3252 196.519 20.3275 195.771 21.8738C194.908 20.3275 193.412 19.3252 191.024 19.3252C189.441 19.3252 187.973 20.0411 187.111 21.1865L186.937 19.8121H182.794V34.1302H187.254Z" fill="#454545"/>
<path d="M70.7259 12.9414H66.0068V34.1324H79.0706V29.9801H70.7259V12.9414Z" fill="#454545"/>
<path d="M79.5215 26.9444C79.5215 31.4689 82.5717 34.4758 87.1756 34.4758C91.7508 34.4758 94.8009 31.4689 94.8009 26.9444C94.8009 22.4198 91.7508 19.3843 87.1756 19.3843C82.5717 19.3843 79.5215 22.4198 79.5215 26.9444ZM83.9816 26.9158C83.9816 24.7679 85.2477 23.3362 87.1756 23.3362C89.0747 23.3362 90.3408 24.7679 90.3408 26.9158C90.3408 29.0921 89.0747 30.5239 87.1756 30.5239C85.2477 30.5239 83.9816 29.0921 83.9816 26.9158Z" fill="#454545"/>
<path d="M95.5135 26.7152C95.5135 31.0394 98.3335 33.9602 102.333 33.9602C104.261 33.9602 105.93 33.2731 106.764 32.1562V34.1322C106.764 36.1081 105.527 37.4252 103.34 37.4252C101.384 37.4252 100.031 36.5089 99.9448 34.8766H95.4561C95.8588 38.7999 98.909 41.4344 103.081 41.4344C108.002 41.4344 111.109 38.2558 111.109 33.2158V19.8139H107.11L106.88 21.2744C106.074 20.1002 104.376 19.3271 102.42 19.3271C98.391 19.3271 95.5135 22.3339 95.5135 26.7152ZM100.002 26.6008C100.002 24.5389 101.384 23.1644 103.139 23.1644C105.182 23.1644 106.678 24.5102 106.678 26.6008C106.678 28.6912 105.211 30.123 103.168 30.123C101.412 30.123 100.002 28.6912 100.002 26.6008Z" fill="#454545"/>
<path d="M112.401 26.9444C112.401 31.4689 115.451 34.4758 120.055 34.4758C124.631 34.4758 127.681 31.4689 127.681 26.9444C127.681 22.4198 124.631 19.3843 120.055 19.3843C115.451 19.3843 112.401 22.4198 112.401 26.9444ZM116.861 26.9158C116.861 24.7679 118.128 23.3362 120.055 23.3362C121.955 23.3362 123.221 24.7679 123.221 26.9158C123.221 29.0921 121.955 30.5239 120.055 30.5239C118.128 30.5239 116.861 29.0921 116.861 26.9158Z" fill="#454545"/>
</svg>
