<?xml version="1.0" encoding="utf-8"?>
<!-- Generator: Adobe Illustrator 26.2.1, SVG Export Plug-In . SVG Version: 6.00 Build 0)  -->
<svg version="1.1" id="Layer_1" xmlns="http://www.w3.org/2000/svg" xmlns:xlink="http://www.w3.org/1999/xlink" x="0px" y="0px"
	 viewBox="0 0 512 512" style="enable-background:new 0 0 512 512;" xml:space="preserve">
<style type="text/css">
	.st0{fill:#FE834C;}
</style>
<path id="Shape" class="st0" d="M230.4,294.4c0,4.7,3.8,8.5,8.5,8.5c4.7,0,8.5-3.8,8.5-8.5c0-28.2-26.1-51.6-59.7-55v-9
	c0-4.7-3.8-8.5-8.5-8.5s-8.5,3.8-8.5,8.5v9c-33.6,3.4-59.7,26.8-59.7,55c0,28.2,26.1,51.6,59.7,55v76.7
	c-24.2-3.1-42.7-18.8-42.7-37.8c0-4.7-3.8-8.5-8.5-8.5c-4.7,0-8.5,3.8-8.5,8.5c0,28.2,26.1,51.6,59.7,55v9c0,4.7,3.8,8.5,8.5,8.5
	s8.5-3.8,8.5-8.5v-9c33.6-3.4,59.7-26.8,59.7-55c0-28.2-26.1-51.6-59.7-55v-76.7C211.9,259.6,230.4,275.4,230.4,294.4z M128,294.4
	c0-19,18.5-34.8,42.7-37.8v75.6C146.5,329.2,128,313.4,128,294.4z M230.4,388.3c0,19-18.5,34.8-42.7,37.8v-75.6
	C211.9,353.5,230.4,369.3,230.4,388.3z"/>
<path id="Shape_00000053517037572709363260000016456943748397741956_" d="M30.7,257.5c-4.3-2-9.3-0.1-11.3,4.1
	C6.5,289.3-0.1,319.4,0,349.9C0,457.4,60.3,512,179.2,512c24,0.4,48-2.4,71.3-8.2c4.6-1.2,7.3-5.9,6.1-10.4
	c-1.2-4.6-5.9-7.3-10.4-6.1c-21.9,5.4-44.4,8-66.9,7.6c-109.1,0-162.1-47.5-162.1-145.1c-0.2-28,5.9-55.7,17.8-81.1
	C36.9,264.5,35,259.5,30.7,257.5z"/>
<path id="Shape_00000064340553189692090450000006365521405108116921_" d="M486.4,213.3H298.7c-14.1,0-25.6,11.5-25.6,25.6v247.5
	c0,14.1,11.5,25.6,25.6,25.6h187.7c14.1,0,25.6-11.5,25.6-25.6V238.9C512,224.8,500.5,213.3,486.4,213.3z M494.9,486.4
	c0,4.7-3.8,8.5-8.5,8.5H298.7c-4.7,0-8.5-3.8-8.5-8.5V238.9c0-4.7,3.8-8.5,8.5-8.5h187.7c4.7,0,8.5,3.8,8.5,8.5V486.4z"/>
<path id="Shape_00000183241249699680776150000009422425289698832017_" d="M332.8,324.3h119.5c9.4,0,17.1-7.6,17.1-17.1v-34.1
	c0-9.4-7.6-17.1-17.1-17.1H332.8c-9.4,0-17.1,7.6-17.1,17.1v34.1C315.7,316.6,323.4,324.3,332.8,324.3z M332.8,273.1h119.5v34.1
	H332.8V273.1z"/>
<path id="Shape_00000034079377479613765890000007700531639226629779_" d="M349.9,349.9h-25.6c-4.7,0-8.5,3.8-8.5,8.5
	s3.8,8.5,8.5,8.5h25.6c4.7,0,8.5-3.8,8.5-8.5S354.6,349.9,349.9,349.9z"/>
<path id="Shape_00000124847528886232967970000005337583010352545952_" d="M349.9,384h-25.6c-4.7,0-8.5,3.8-8.5,8.5s3.8,8.5,8.5,8.5
	h25.6c4.7,0,8.5-3.8,8.5-8.5S354.6,384,349.9,384z"/>
<path id="Shape_00000059290461970833224440000014559841111745047438_" d="M349.9,418.1h-25.6c-4.7,0-8.5,3.8-8.5,8.5
	s3.8,8.5,8.5,8.5h25.6c4.7,0,8.5-3.8,8.5-8.5S354.6,418.1,349.9,418.1z"/>
<path id="Shape_00000052800452402614109560000011736386533940749748_" d="M349.9,452.3h-25.6c-4.7,0-8.5,3.8-8.5,8.5
	s3.8,8.5,8.5,8.5h25.6c4.7,0,8.5-3.8,8.5-8.5S354.6,452.3,349.9,452.3z"/>
<path id="Shape_00000156588906021566910010000015764682258440309694_" d="M409.6,349.9H384c-4.7,0-8.5,3.8-8.5,8.5s3.8,8.5,8.5,8.5
	h25.6c4.7,0,8.5-3.8,8.5-8.5S414.3,349.9,409.6,349.9z"/>
<path id="Shape_00000078016042489782968700000015636747297127969982_" d="M409.6,384H384c-4.7,0-8.5,3.8-8.5,8.5s3.8,8.5,8.5,8.5
	h25.6c4.7,0,8.5-3.8,8.5-8.5S414.3,384,409.6,384z"/>
<path id="Shape_00000116937567533314229920000012475725706993439122_" d="M409.6,418.1H384c-4.7,0-8.5,3.8-8.5,8.5s3.8,8.5,8.5,8.5
	h25.6c4.7,0,8.5-3.8,8.5-8.5S414.3,418.1,409.6,418.1z"/>
<path id="Shape_00000115516945604029406180000010680461435828011696_" d="M409.6,452.3H384c-4.7,0-8.5,3.8-8.5,8.5s3.8,8.5,8.5,8.5
	h25.6c4.7,0,8.5-3.8,8.5-8.5S414.3,452.3,409.6,452.3z"/>
<path id="Shape_00000060717616905759703250000010986674090367856522_" d="M469.3,349.9h-25.6c-4.7,0-8.5,3.8-8.5,8.5
	s3.8,8.5,8.5,8.5h25.6c4.7,0,8.5-3.8,8.5-8.5S474,349.9,469.3,349.9z"/>
<path id="Shape_00000063610946351542868110000010657499281763526308_" d="M469.3,384h-25.6c-4.7,0-8.5,3.8-8.5,8.5s3.8,8.5,8.5,8.5
	h25.6c4.7,0,8.5-3.8,8.5-8.5S474,384,469.3,384z"/>
<path id="Shape_00000055696527699278667410000006376801832952450990_" d="M469.3,418.1h-25.6c-4.7,0-8.5,3.8-8.5,8.5
	s3.8,8.5,8.5,8.5h25.6c4.7,0,8.5-3.8,8.5-8.5S474,418.1,469.3,418.1z"/>
<path id="Shape_00000125594823652225095270000006687200688813393302_" d="M469.3,452.3h-25.6c-4.7,0-8.5,3.8-8.5,8.5
	s3.8,8.5,8.5,8.5h25.6c4.7,0,8.5-3.8,8.5-8.5S474,452.3,469.3,452.3z"/>
<path id="Shape_00000099620167235873248970000017466435133884870293_" d="M54,10.8C31.5,31.4,71,94.8,94.2,128h-4.6
	c-7.9,0-15.5,3.1-21.1,8.7c-5.6,5.6-8.7,13.2-8.7,21.1c0,10.6,5.7,20.4,15,25.7c-10,10.5-19.3,21.6-28.1,33.2
	c-2.8,3.8-2.1,9.1,1.7,11.9c3.8,2.8,9.1,2.1,11.9-1.7c10.5-13.8,21.9-26.9,34.1-39.3h174.4c10.7,0,20.5-5.7,25.9-14.9
	c5.3-9.2,5.3-20.6,0-29.9c-5.3-9.2-15.2-14.9-25.9-14.9h-4.6c23.3-33.2,62.7-96.6,40.3-117.2c-10.3-9.5-22.4-2.6-33,3.5
	c-9.6,6.6-20.9,10.5-32.5,11.3c-9.3,0-18.1-3.9-24.3-10.8C205.3,5.4,192.5,0,179.2,0c-13.3,0-26.1,5.3-35.4,14.8
	c-6.3,6.8-15.1,10.7-24.4,10.8c-11.7-0.8-22.9-4.7-32.5-11.3C76.3,8.2,64.3,1.3,54,10.8L54,10.8z M277.9,148.8
	c3.7,3.7,4.8,9.2,2.8,14s-6.7,7.9-11.9,7.9H89.6c-7.1,0-12.8-5.7-12.8-12.8c0-7.1,5.7-12.8,12.8-12.8h179.2
	C272.2,145.1,275.5,146.4,277.9,148.8z M119.4,42.7c13.3,0,26.1-5.4,35.4-14.9c6.2-6.8,15.1-10.7,24.3-10.7s18.1,3.9,24.3,10.7
	c9.3,9.5,22.1,14.9,35.5,14.9c14.7-0.8,28.8-5.5,41-13.6c3.9-2.7,8.3-4.7,13-5.7c8.8,8-14.4,56.4-49.8,104.6h-21.3V85.3
	c0-4.7-3.8-8.5-8.5-8.5s-8.5,3.8-8.5,8.5V128h-51.2V85.3c0-4.7-3.8-8.5-8.5-8.5c-4.7,0-8.5,3.8-8.5,8.5V128h-21.3
	C79.9,79.8,56.7,31.4,65.6,23.2c4.6,1.2,8.9,3.2,12.8,5.8C90.6,37.2,104.8,41.9,119.4,42.7L119.4,42.7z"/>
</svg>
