<svg width="24" height="24" viewBox="0 0 24 24" fill="none" xmlns="http://www.w3.org/2000/svg">
<path fill-rule="evenodd" clip-rule="evenodd" d="M7.792 22.041C8.84 23.286 10.374 24 12 24C13.626 24 15.16 23.285 16.124 22.075C17.744 22.214 19.334 21.635 20.485 20.485C21.635 19.335 22.215 17.745 22.04 16.208C23.286 15.16 24 13.626 24 12C24 10.374 23.286 8.84 22.075 7.876C22.214 6.254 21.634 4.664 20.485 3.514C19.335 2.365 17.75 1.783 16.208 1.959C15.16 0.714 13.626 0 12 0C10.374 0 8.84 0.715 7.876 1.925C6.252 1.785 4.665 2.364 3.515 3.515C2.365 4.665 1.785 6.255 1.96 7.792C0.714 8.84 0 10.374 0 12C0 13.626 0.714 15.16 1.925 16.124C1.786 17.746 2.366 19.336 3.515 20.486C4.665 21.635 6.252 22.218 7.792 22.041ZM9.321 20.752C8.954 20.317 8.434 20.076 7.873 20.076C7.817 20.076 7.761 20.078 7.704 20.083C6.682 20.169 5.661 19.803 4.929 19.071C4.197 18.34 3.829 17.328 3.917 16.295C3.971 15.671 3.726 15.081 3.247 14.678C2.455 14.011 2 13.034 2 12C2 10.966 2.455 9.989 3.247 9.322C3.727 8.918 3.971 8.329 3.917 7.705C3.829 6.672 4.198 5.66 4.929 4.929C5.661 4.197 6.666 3.827 7.705 3.917C8.328 3.966 8.917 3.726 9.321 3.247C9.989 2.454 10.965 1.999 12 1.999C13.035 1.999 14.011 2.454 14.679 3.247C15.082 3.725 15.67 3.973 16.296 3.916C17.323 3.832 18.339 4.197 19.071 4.928C19.803 5.659 20.171 6.671 20.083 7.704C20.029 8.328 20.274 8.918 20.753 9.321C21.545 9.988 22 10.965 22 11.999C22 13.033 21.545 14.01 20.753 14.677C20.273 15.081 20.029 15.67 20.083 16.294C20.171 17.327 19.802 18.339 19.071 19.07C18.339 19.802 17.329 20.169 16.295 20.082C15.669 20.031 15.082 20.273 14.679 20.752C14.011 21.545 13.035 22 12 22C10.965 22 9.989 21.545 9.321 20.752Z" fill="black"/>
<path fill-rule="evenodd" clip-rule="evenodd" d="M7.99988 8.99996C7.99988 8.44796 8.44788 7.99996 8.99988 7.99996C9.55188 7.99996 9.99988 8.44796 9.99988 8.99996C9.99988 9.55196 9.55188 9.99996 8.99988 9.99996C8.44788 9.99996 7.99988 9.55196 7.99988 8.99996ZM13.9999 15C13.9999 14.448 14.4479 14 14.9999 14C15.5519 14 15.9999 14.448 15.9999 15C15.9999 15.552 15.5519 16 14.9999 16C14.4479 16 13.9999 15.552 13.9999 15ZM14.8319 9.55496L10.8319 15.555C10.6399 15.844 10.3219 16 9.99888 16C9.80788 16 9.61588 15.946 9.44488 15.832C8.98488 15.526 8.86088 14.904 9.16788 14.445L13.1679 8.44496C13.4739 7.98596 14.0939 7.85996 14.5549 8.16796C15.0149 8.47396 15.1389 9.09596 14.8319 9.55496Z" fill="#F3794F"/>
</svg>
