<svg width="24" height="16" viewBox="0 0 24 16" fill="none" xmlns="http://www.w3.org/2000/svg">
<path fill-rule="evenodd" clip-rule="evenodd" d="M13.2643 0C16.1297 0 18.6458 1.77125 19.5991 4.4315C22.1629 4.95289 24 7.16914 24 9.78892C24 12.8017 21.5255 15.2527 18.4824 15.2527H15.3207C15.1068 15.2527 14.9336 15.0809 14.9336 14.8686C14.9336 14.6571 15.1068 14.4845 15.3207 14.4845H18.4824C21.0984 14.4845 23.2258 12.3779 23.2258 9.78892C23.2258 7.46993 21.5504 5.51868 19.2438 5.14873L19.0086 5.11051L18.9361 4.8854C18.149 2.42247 15.8695 0.768955 13.2658 0.768955C10.7426 0.768955 8.48802 2.35795 7.65372 4.72491L7.4942 5.17725L7.08446 4.92519C6.60777 4.6326 6.0619 4.47731 5.50582 4.47731C3.84783 4.47731 2.49834 5.81571 2.49834 7.46174L2.51761 7.78277L2.33956 7.9583C1.35937 8.62827 0.774159 9.73259 0.774159 10.9104C0.774159 12.8806 2.39437 14.483 4.38579 14.483L4.46478 14.4837C4.47031 14.4839 4.47589 14.484 4.48149 14.4841C4.51414 14.4849 4.5478 14.4856 4.58002 14.4837H8.68002C8.89362 14.4837 9.06712 14.6563 9.06712 14.8679C9.06712 15.0801 8.89362 15.252 8.68002 15.252H4.60007C4.58158 15.2534 4.55852 15.2534 4.53205 15.2534C4.51992 15.2534 4.50717 15.2533 4.49405 15.2531C4.48018 15.2529 4.4659 15.2527 4.45155 15.2527C1.96795 15.252 0 13.3044 0 10.9112C0 9.5525 0.641082 8.27565 1.72416 7.45418C1.72786 5.38804 3.42334 3.7091 5.50582 3.7091C6.05244 3.7091 6.59074 3.82686 7.08521 4.05415C8.13571 1.61146 10.5645 0 13.2643 0ZM16.0435 11.5691C15.9444 11.5691 15.8454 11.5324 15.7698 11.4573L12.3873 8.10163V14.8679C12.3873 15.0801 12.2142 15.252 12.0006 15.252C11.787 15.252 11.6135 15.0801 11.6135 14.8679V8.10163L8.2309 11.4573C8.08011 11.6067 7.83479 11.6067 7.6836 11.4573C7.53276 11.3073 7.53276 11.0634 7.6836 10.9142L11.7265 6.90274L11.7273 6.90197L12.0006 6.6312L12.2739 6.90197L12.2746 6.90274L16.3172 10.9142C16.4684 11.0634 16.4684 11.3073 16.3172 11.4573C16.2416 11.5316 16.1425 11.5691 16.0435 11.5691Z" fill="#F3794F"/>
</svg>
