<svg width="160" height="46" viewBox="0 0 160 46" fill="none" xmlns="http://www.w3.org/2000/svg">
<g opacity="0.35">
<circle cx="156" cy="4" r="4" transform="rotate(90 156 4)" fill="#FE834C"/>
<circle cx="118" cy="4" r="4" transform="rotate(90 118 4)" fill="#FE834C"/>
<circle cx="80" cy="4" r="4" transform="rotate(90 80 4)" fill="#FE834C"/>
<circle cx="42" cy="4" r="4" transform="rotate(90 42 4)" fill="#FE834C"/>
<circle cx="4" cy="4" r="4" transform="rotate(90 4 4)" fill="#FE834C"/>
<circle cx="156" cy="42" r="4" transform="rotate(90 156 42)" fill="#FE834C"/>
<circle cx="118" cy="42" r="4" transform="rotate(90 118 42)" fill="#FE834C"/>
<circle cx="80" cy="42" r="4" transform="rotate(90 80 42)" fill="#FE834C"/>
<circle cx="42" cy="42" r="4" transform="rotate(90 42 42)" fill="#FE834C"/>
<circle cx="4" cy="42" r="4" transform="rotate(90 4 42)" fill="#FE834C"/>
</g>
</svg>
