<?xml version="1.0" encoding="utf-8"?>
<!-- Generator: Adobe Illustrator 26.2.1, SVG Export Plug-In . SVG Version: 6.00 Build 0)  -->
<svg version="1.1" id="Layer_1" xmlns="http://www.w3.org/2000/svg" xmlns:xlink="http://www.w3.org/1999/xlink" x="0px" y="0px"
	 viewBox="0 0 512 512" style="enable-background:new 0 0 512 512;" xml:space="preserve">
<style type="text/css">
	.st0{fill:#FE834C;}
</style>
<path d="M423.9,224c-48.5,0.1-88,39.8-87.9,88.6c0,26.7,13.3,57.1,39.5,90.4c18.7,23.8,37.2,40.3,38,41c6.1,5.4,15.2,5.4,21.3,0
	c0.8-0.7,19.3-17.2,37.9-41c20-25.5,39.3-58.1,39.3-90.5C511.9,263.7,472.8,224,423.9,224L423.9,224z M424.1,409.8
	c-21.9-22.2-56.1-64-56.1-97.2c0-31.2,25.1-56.6,55.9-56.6c31,0,56,25.3,56.1,56.5C480,345.8,445.9,387.6,424.1,409.8L424.1,409.8z"
	/>
<path class="st0" d="M424,288c-21.2,0-32.1,25.8-17,41c12,12,32.6,8,39.1-7.8C452.7,305.5,441.1,288,424,288z"/>
<path d="M77.4,220c6.1,5.4,15.2,5.4,21.3,0c0.8-0.7,19.3-17.2,38-41c26.1-33.3,39.4-63.7,39.4-90.4C176,39.7,136.5,0,88,0
	S0,39.7,0,88.5c0,26.7,13.3,57.1,39.4,90.4C58.1,202.7,76.6,219.3,77.4,220z M88,32c30.9,0,56,25.4,56,56.5
	c0,33.3-34.2,75.1-56,97.3c-21.8-22.2-56-63.9-56-97.3C32,57.4,57.1,32,88,32z"/>
<circle class="st0" cx="88" cy="88" r="24"/>
<path d="M448.1,488c0,21.9-27.2,32.4-41.9,16H72c-39.7,0-72-32.3-72-72s32.3-72,72-72h160.5c21.8,0,39.5-17.7,39.5-39.5
	S254.3,281,232.5,281H105.9C91.1,297.4,64,286.9,64,265c0-21.9,27-32.4,41.9-16h126.6c39.4,0,71.5,32.1,71.5,71.5S272,392,232.5,392
	H72c-22.1,0-40,17.9-40,40s17.9,40,40,40h334.2C421.1,455.6,448.1,466.2,448.1,488L448.1,488z"/>
</svg>
