<svg width="16" height="15" viewBox="0 0 16 15" fill="none" xmlns="http://www.w3.org/2000/svg">
<path fill-rule="evenodd" clip-rule="evenodd" d="M6.56383 14.8729C8.04716 14.2896 7.72216 12.6812 6.97216 11.6646C6.23049 10.6229 5.20549 9.90623 4.17216 9.21456C3.43487 8.74986 2.77657 8.17033 2.22216 7.4979C2.20727 7.48035 2.19139 7.46184 2.17485 7.44256C1.9321 7.15968 1.54467 6.70818 1.99716 6.61456C2.39041 6.53458 3.0129 6.82777 3.46807 7.04216C3.58199 7.09581 3.68542 7.14453 3.77216 7.18123C4.26987 7.38906 4.76399 7.61844 5.24274 7.87406C5.6551 8.09423 6.17639 7.96817 6.41515 7.5663C6.64299 7.1828 6.53069 6.68566 6.14433 6.46268C4.97023 5.78509 3.59734 5.22709 2.30549 5.03956C1.42216 4.90623 0.488826 5.08956 0.188826 6.04789C-0.077841 6.8729 0.347159 7.70623 0.830492 8.35623C1.49143 9.23909 2.36464 9.85662 3.23991 10.4756C3.87653 10.9258 4.51424 11.3768 5.07216 11.9312L5.09613 11.9545C5.37452 12.2245 5.70183 12.542 5.86383 12.9146C6.03883 13.2812 5.99716 13.3062 5.60549 13.3062C4.83453 13.3062 3.91976 12.8563 3.15537 12.4063C2.75812 12.1724 2.24428 12.292 2.00883 12.6883C1.78049 13.0727 1.90125 13.5715 2.28919 13.7937C3.55804 14.5203 5.26168 15.3046 6.56383 14.8729Z" fill="#F3794F"/>
<path fill-rule="evenodd" clip-rule="evenodd" d="M15.8055 1.21446C15.9888 1.38946 15.9888 1.68946 15.8055 1.87279L15.309 2.36438C15.1135 2.558 14.7982 2.55722 14.6037 2.36264L13.5757 1.33468C13.3804 1.13941 13.3804 0.822831 13.5757 0.627569L14.0721 0.131123C14.1594 0.0470018 14.2759 0 14.3971 0C14.5184 0 14.6349 0.0470018 14.7221 0.131123L15.8055 1.21446ZM8.10547 8.33112C7.82933 8.33112 7.60547 8.10727 7.60547 7.83112V6.8049C7.60547 6.67229 7.65815 6.54511 7.75192 6.45134L12.3769 1.82634C12.5722 1.63108 12.8888 1.63108 13.084 1.82634L14.1102 2.85257C14.3055 3.04783 14.3055 3.36441 14.1102 3.55968L9.48525 8.18468C9.39148 8.27845 9.2643 8.33112 9.1317 8.33112H8.10547Z" fill="black"/>
</svg>
