<svg width="20" height="23" viewBox="0 0 20 23" fill="none" xmlns="http://www.w3.org/2000/svg">
<path d="M14.6945 8.89524C14.0485 7.81402 12.579 6 10 6C7.42096 6 5.9515 7.81402 5.30549 8.89524C5.10578 9.22718 5 9.60973 5 10C5 10.3903 5.10578 10.7728 5.30549 11.1048C5.9515 12.186 7.42096 14 10 14C12.579 14 14.0485 12.186 14.6945 11.1048C14.8942 10.7728 15 10.3903 15 10C15 9.60973 14.8942 9.22718 14.6945 8.89524ZM13.9844 10.6566C13.4296 11.5837 12.1738 13.1439 10 13.1439C7.82622 13.1439 6.57044 11.5837 6.01564 10.6566C5.89699 10.4593 5.83415 10.2319 5.83415 10C5.83415 9.76806 5.89699 9.5407 6.01564 9.34339C6.57044 8.41627 7.82622 6.85607 10 6.85607C12.1738 6.85607 13.4296 8.41455 13.9844 9.34339C14.103 9.5407 14.1659 9.76806 14.1659 10C14.1659 10.2319 14.103 10.4593 13.9844 10.6566Z" fill="black"/>
<path d="M10 8C9.60444 8 9.21776 8.1173 8.88886 8.33706C8.55996 8.55682 8.30362 8.86918 8.15224 9.23463C8.00087 9.60009 7.96126 10.0022 8.03843 10.3902C8.1156 10.7781 8.30608 11.1345 8.58579 11.4142C8.86549 11.6939 9.22186 11.8844 9.60982 11.9616C9.99778 12.0387 10.3999 11.9991 10.7654 11.8478C11.1308 11.6964 11.4432 11.44 11.6629 11.1111C11.8827 10.7822 12 10.3956 12 10C11.9994 9.46976 11.7884 8.96142 11.4135 8.58649C11.0386 8.21155 10.5302 8.00064 10 8ZM10 11.2C9.76266 11.2 9.53066 11.1296 9.33332 10.9978C9.13598 10.8659 8.98217 10.6785 8.89135 10.4592C8.80052 10.2399 8.77676 9.99867 8.82306 9.76589C8.86936 9.53311 8.98365 9.31929 9.15147 9.15147C9.3193 8.98365 9.53312 8.86936 9.76589 8.82306C9.99867 8.77676 10.2399 8.80052 10.4592 8.89134C10.6785 8.98217 10.8659 9.13598 10.9978 9.33332C11.1296 9.53065 11.2 9.76266 11.2 10C11.2 10.3183 11.0736 10.6235 10.8485 10.8485C10.6235 11.0736 10.3183 11.2 10 11.2Z" fill="#F3794F"/>
</svg>
