<svg width="20" height="23" viewBox="0 0 20 23" fill="none" xmlns="http://www.w3.org/2000/svg">
<path d="M16.5723 8.34286C15.6679 6.72103 13.6107 4 10 4C6.38934 4 4.3321 6.72103 3.42768 8.34286C3.1481 8.84078 3 9.4146 3 10C3 10.5854 3.1481 11.1592 3.42768 11.6571C4.3321 13.279 6.38934 16 10 16C13.6107 16 15.6679 13.279 16.5723 11.6571C16.8519 11.1592 17 10.5854 17 10C17 9.4146 16.8519 8.84078 16.5723 8.34286ZM15.5781 10.9849C14.8014 12.3756 13.0433 14.7159 10 14.7159C6.95671 14.7159 5.19861 12.3756 4.4219 10.9849C4.25579 10.689 4.16781 10.3479 4.16781 10C4.16781 9.65209 4.25579 9.31105 4.4219 9.01509C5.19861 7.6244 6.95671 5.28411 10 5.28411C13.0433 5.28411 14.8014 7.62183 15.5781 9.01509C15.7442 9.31105 15.8322 9.65209 15.8322 10C15.8322 10.3479 15.7442 10.689 15.5781 10.9849Z" fill="black"/>
<path d="M10 7C9.40666 7 8.82664 7.17595 8.33329 7.50559C7.83994 7.83524 7.45543 8.30377 7.22836 8.85195C7.0013 9.40013 6.94189 10.0033 7.05765 10.5853C7.1734 11.1672 7.45912 11.7018 7.87868 12.1213C8.29824 12.5409 8.83279 12.8266 9.41473 12.9424C9.99667 13.0581 10.5999 12.9987 11.1481 12.7716C11.6962 12.5446 12.1648 12.1601 12.4944 11.6667C12.8241 11.1734 13 10.5933 13 10C12.999 9.20464 12.6827 8.44213 12.1203 7.87973C11.5579 7.31733 10.7954 7.00095 10 7ZM10 11.8C9.64399 11.8 9.29598 11.6944 8.99997 11.4966C8.70397 11.2989 8.47326 11.0177 8.33702 10.6888C8.20078 10.3599 8.16513 9.998 8.23459 9.64884C8.30404 9.29967 8.47547 8.97894 8.72721 8.72721C8.97894 8.47547 9.29967 8.30404 9.64884 8.23459C9.998 8.16513 10.3599 8.20078 10.6888 8.33702C11.0177 8.47325 11.2989 8.70396 11.4966 8.99997C11.6944 9.29598 11.8 9.64399 11.8 10C11.8 10.4774 11.6104 10.9352 11.2728 11.2728C10.9352 11.6104 10.4774 11.8 10 11.8Z" fill="#F3794F"/>
</svg>
