<svg width="19" height="18" viewBox="0 0 19 18" fill="none" xmlns="http://www.w3.org/2000/svg">
<path d="M9.12257 16.2082H3.39148C2.75656 16.2076 2.24214 15.6837 2.24156 15.037V7.19631L8.08387 1.96429C8.67824 1.43383 9.5669 1.43383 10.1613 1.96429L16.1264 7.30724L16.1322 7.31196L17.5225 8.55874C17.7027 8.72042 17.9773 8.70213 18.136 8.51862C18.2947 8.33511 18.2768 8.05543 18.0966 7.89375L16.8685 6.79389V2.326C16.8667 1.04263 15.846 0.00236022 14.586 0C13.3249 0.00118011 12.303 1.04145 12.3018 2.326V2.70481L10.7377 1.30166C9.81484 0.478534 8.43609 0.478534 7.51325 1.30166L0.147365 7.89316C-0.0327996 8.05484 -0.0501789 8.33511 0.108551 8.51862C0.267281 8.70213 0.542452 8.71983 0.722617 8.55815L1.37376 7.97459V15.037C1.37492 16.1722 2.27806 17.0921 3.39264 17.0933H9.12257C9.3624 17.0933 9.55705 16.895 9.55705 16.6508C9.55705 16.4065 9.3624 16.2082 9.12257 16.2082V16.2082ZM13.1708 2.326C13.1864 1.53001 13.8329 0.898063 14.6144 0.913995C15.3733 0.929926 15.9856 1.55302 16.0007 2.326V6.01502L13.1708 3.47778V2.326Z" fill="black"/>
<path d="M9.12267 4.50256C7.96463 4.50374 7.02673 5.45963 7.02557 6.63915C7.02615 7.81867 7.96521 8.77515 9.12324 8.77456C10.2813 8.77397 11.2203 7.81749 11.2198 6.63797C11.2192 5.45845 10.2807 4.50256 9.12267 4.50256V4.50256ZM9.12209 7.88889C8.44372 7.8883 7.89396 7.32834 7.89453 6.63738C7.89511 5.94702 8.44488 5.38706 9.12267 5.38706C9.80103 5.38765 10.3502 5.94761 10.3508 6.63856C10.3502 7.32952 9.80045 7.88948 9.12209 7.88889Z" fill="#F3794F"/>
<path d="M16.7765 12.6036H15.1048V10.9009C15.1048 10.4862 14.7744 10.1497 14.3673 10.1497C13.9601 10.1497 13.6297 10.4862 13.6297 10.9009V12.6036H11.958C11.5509 12.6036 11.2205 12.9401 11.2205 13.3548C11.2205 13.7695 11.5509 14.106 11.958 14.106H13.6297V15.8088C13.6297 16.2234 13.9601 16.56 14.3673 16.56C14.7744 16.56 15.1048 16.2234 15.1048 15.8088V14.106H16.7765C17.1836 14.106 17.514 13.7695 17.514 13.3548C17.514 12.9391 17.1836 12.6036 16.7765 12.6036Z" fill="#F3794F"/>
</svg>
