<svg width="54" height="54" viewBox="0 0 54 54" fill="none" xmlns="http://www.w3.org/2000/svg">
<path d="M28.8329 31.8169C27.5979 30.6402 25.8329 30.2652 24.2264 30.8392C22.2516 31.5445 20.9248 33.4272 20.9248 35.5241L20.9248 37.1981C20.9248 39.455 22.761 41.2912 25.0179 41.2912C26.5125 41.2912 27.8875 40.4772 28.6065 39.1668L29.6715 37.2254C30.6492 35.4434 30.3044 33.2193 28.8329 31.8169ZM27.8221 36.2109L26.7571 38.1524C26.4087 38.7874 25.7423 39.182 25.0179 39.182C23.9241 39.182 23.0342 38.292 23.0342 37.1982L23.0342 35.5242C23.0342 34.3164 23.7984 33.2321 24.9358 32.8257C25.1997 32.7314 25.4717 32.6855 25.7408 32.6855C26.3402 32.6855 26.9259 32.9135 27.3776 33.344C28.1576 34.0873 28.3405 35.2662 27.8221 36.2109Z" fill="#749A32"/>
<path d="M44.0348 49.2372L41.0892 52.1828C40.6773 52.5947 40.6772 53.2625 41.0892 53.6745C41.2952 53.8804 41.5651 53.9834 41.835 53.9834C42.1049 53.9834 42.3749 53.8804 42.5807 53.6745L45.5264 50.7288C45.9382 50.317 45.9383 49.6492 45.5264 49.2372C45.1145 48.8256 44.4467 48.8256 44.0348 49.2372Z" fill="#749A32"/>
<path d="M52.7152 26.2618C51.8985 25.5749 50.8274 25.2855 49.7758 25.4687C48.0444 25.7698 46.7878 27.2639 46.7878 29.0214L46.7878 31.0948C45.5308 28.378 43.7151 25.9245 41.433 23.9061L43.3051 21.5304C44.1694 21.9858 45.1526 22.2451 46.1955 22.2451C49.2705 22.2451 51.8867 19.9608 52.3453 16.965C53.3868 16.0188 53.9965 14.6598 53.9965 13.2429C53.9965 10.474 51.7438 8.2214 48.9749 8.2214C47.558 8.2214 46.199 8.83112 45.2529 9.87264C42.2571 10.3312 39.9728 12.9474 39.9728 16.0224C39.9728 17.6516 40.603 19.1358 41.6313 20.2462L39.7871 22.5866C36.3667 20.107 32.2927 18.6726 28.0546 18.4679L28.0546 15.541C29.0011 16.0877 30.0843 16.3838 31.2201 16.3838C34.7153 16.3838 37.5588 13.5402 37.5588 10.045C37.5588 7.3171 35.8296 4.92653 33.2913 4.05292C32.1747 1.61604 29.7114 0.0134274 26.9999 0.0134274C24.2885 0.0134274 21.8252 1.61594 20.7086 4.05292C18.1703 4.92642 16.4411 7.317 16.4411 10.045C16.4411 13.5402 19.2846 16.3838 22.7798 16.3838C23.9156 16.3838 24.9988 16.0877 25.9452 15.541L25.9452 18.4678C21.7075 18.6725 17.6332 20.1068 14.2128 22.5864L12.3687 20.2461C13.397 19.1357 14.0272 17.6515 14.0272 16.0223C14.0272 12.9474 11.7429 10.3311 8.74714 9.87253C7.80097 8.83102 6.44199 8.2213 5.02511 8.2213C2.25621 8.2213 0.00348063 10.4739 0.00348066 13.2428C0.00348068 14.6597 0.613202 16.0187 1.65472 16.9648C2.1133 19.9606 4.72948 22.245 7.80445 22.245C8.84744 22.245 9.83063 21.9857 10.695 21.5303L12.567 23.906C10.2851 25.9242 8.46922 28.3777 7.21224 31.0945L7.21224 29.0213C7.21224 27.264 5.95556 25.7698 4.22406 25.4685C3.17274 25.2859 2.10149 25.5748 1.28483 26.2617C0.468286 26.9485 3.31264e-07 27.9544 3.43914e-07 29.0214L4.15011e-07 35.0182C4.70344e-07 39.6854 1.81746 44.0731 5.11761 47.3733L11.4191 53.6748C11.6251 53.8806 11.895 53.9837 12.1649 53.9837C12.4348 53.9837 12.7048 53.8806 12.9107 53.6748C13.3225 53.2629 13.3225 52.5951 12.9107 52.1831L6.60905 45.8816C3.70747 42.9799 2.1094 39.1218 2.1094 35.0182L2.1094 29.0214C2.1094 28.5786 2.30378 28.1611 2.64276 27.8761C2.98163 27.5909 3.42619 27.4712 3.86273 27.5468C4.58129 27.6719 5.10294 28.292 5.10294 29.0214L5.10294 35.7175C5.10294 37.8699 5.94122 39.8937 7.46325 41.4158L13.1837 47.1363L13.6089 47.5614C14.0208 47.9732 14.6886 47.9733 15.1005 47.5614C15.5124 47.1496 15.5124 46.4817 15.1005 46.0698L9.11628 40.0855C8.41448 39.3838 8.41448 38.242 9.11628 37.5402C9.81797 36.8384 10.9599 36.8384 11.6616 37.5402L16.4572 42.3358C16.6549 42.5336 16.9233 42.6447 17.203 42.6447C19.2464 42.6447 21.1676 43.4405 22.6125 44.8854C24.7618 47.0347 25.9455 49.8923 25.9455 52.9318C25.9455 53.5142 26.4176 53.9865 27.0002 53.9865C27.5827 53.9865 28.0549 53.5142 28.0549 52.9318C28.0549 49.8923 29.2385 47.0347 31.3878 44.8854C32.8326 43.4405 34.7538 42.6447 36.7972 42.6447C37.077 42.6447 37.3453 42.5336 37.543 42.3358L42.3385 37.5402C43.0403 36.8384 44.1821 36.8386 44.8839 37.5402C45.5857 38.2419 45.5857 39.3837 44.8839 40.0855L38.8997 46.0698C38.4878 46.4816 38.4878 47.1495 38.8997 47.5614C39.1057 47.7673 39.3756 47.8703 39.6455 47.8703C39.9154 47.8703 40.1854 47.7673 40.3912 47.5614L40.8164 47.1363L46.5369 41.4158C48.0589 39.8936 48.8972 37.8699 48.8972 35.7175L48.8972 29.0214C48.8972 28.292 49.4187 27.6718 50.1373 27.5469C50.5734 27.4709 51.0184 27.5908 51.3572 27.8761C51.6962 28.1611 51.8906 28.5786 51.8906 29.0214L51.8906 35.0182C51.8906 37.5593 51.2522 40.0842 50.0444 42.3202C49.7675 42.8327 49.9586 43.4727 50.4711 43.7495C50.9833 44.026 51.6233 43.8353 51.9003 43.3228C53.2739 40.7798 54 37.9081 54 35.0182L54 29.0214C54 27.9544 53.5317 26.9485 52.7152 26.2618ZM45.8755 11.9229C46.1789 11.8996 46.4575 11.7463 46.6397 11.5025C47.1958 10.7577 48.047 10.3308 48.9748 10.3308C50.5807 10.3308 51.887 11.6373 51.887 13.2429C51.887 14.1707 51.46 15.0218 50.7152 15.5781C50.4714 15.7604 50.3182 16.0389 50.2948 16.3424C50.1316 18.4695 48.3308 20.1357 46.1954 20.1357C43.9273 20.1357 42.0821 18.2905 42.0821 16.0224C42.0822 13.8869 43.7483 12.0862 45.8755 11.9229ZM18.5504 10.045C18.5504 8.10138 19.8653 6.4146 21.7481 5.94283C22.0874 5.85782 22.3625 5.61008 22.4825 5.28143C23.1723 3.39215 24.9877 2.12282 26.9999 2.12282C29.0122 2.12282 30.8277 3.39215 31.5174 5.28143C31.6375 5.60997 31.9125 5.85782 32.2518 5.94283C34.1346 6.4146 35.4494 8.10138 35.4494 10.045C35.4494 12.377 33.5522 14.2744 31.2201 14.2744C30.0933 14.2744 29.0436 13.8379 28.2574 13.0616L30.1669 11.1521C30.5787 10.7402 30.5787 10.0724 30.1669 9.66043C29.755 9.24868 29.0872 9.24868 28.6752 9.66043L28.0545 10.2811L28.0545 6.73322C28.0545 6.15082 27.5824 5.67853 26.9998 5.67853C26.4173 5.67853 25.9451 6.15082 25.9451 6.73322L25.9451 11.345L24.2651 9.66497C23.8533 9.25321 23.1854 9.25321 22.7735 9.66497C22.3616 10.0768 22.3616 10.7447 22.7735 11.1566L25.1594 13.5426C24.4681 14.0152 23.6469 14.2743 22.7796 14.2743C20.4477 14.2743 18.5504 12.377 18.5504 10.045ZM3.70505 16.3424C3.68174 16.0389 3.52849 15.7603 3.28465 15.5781C2.53992 15.0219 2.11288 14.1707 2.11288 13.2429C2.11288 11.6371 3.41933 10.3308 5.02511 10.3308C5.95293 10.3308 6.80407 10.7578 7.36021 11.5025C7.54236 11.7464 7.82101 11.8997 8.12444 11.9229C10.2516 12.0862 11.9178 13.8868 11.9178 16.0223C11.9178 18.2904 10.0726 20.1356 7.80445 20.1356C5.66911 20.1357 3.86842 18.4695 3.70505 16.3424ZM7.79823 35.8862C8.42007 33.136 9.61958 30.6142 11.2547 28.4443L14.2994 28.4443C15.7347 28.4443 16.9025 29.6119 16.9025 31.0474C16.9025 31.8686 16.5086 32.6505 15.8486 33.1392C14.7317 33.9665 13.9357 35.146 13.5651 36.4608L13.153 36.0488C11.6853 34.581 9.33165 34.5274 7.79823 35.8862ZM36.3503 40.5454C33.9112 40.6545 31.6337 41.6563 29.8961 43.3939C28.6437 44.6463 27.6685 46.102 27.0001 47.6862C26.3316 46.102 25.3564 44.6462 24.1041 43.3939C22.3664 41.6563 20.0889 40.6545 17.6498 40.5454L15.4395 38.335L15.4395 38.1386C15.4395 36.8415 16.0618 35.6062 17.1041 34.8342C18.2988 33.9495 19.0119 32.5338 19.0119 31.0473C19.0119 28.4488 16.8979 26.3348 14.2994 26.3348L13.0903 26.3348C16.6831 22.7507 21.6316 20.551 27.0001 20.551C30.6724 20.551 34.1476 21.5795 37.1269 23.376C34.0887 24.2899 31.8685 27.1119 31.8685 30.444C31.8685 32.9636 33.1329 35.2826 35.2508 36.6476L37.4443 38.061C37.7232 38.2407 37.9684 38.4651 38.1726 38.7227L36.3503 40.5454ZM40.8469 36.0488L39.6699 37.2258C39.3558 36.8659 38.9924 36.5494 38.5871 36.2882L36.3935 34.8748C34.881 33.8999 33.9779 32.2436 33.9779 30.4442C33.9779 27.5378 36.3424 25.1732 39.2488 25.1732L39.6416 25.1732C42.8697 27.8809 45.2346 31.6072 46.202 35.8863C44.6686 34.5274 42.3148 34.5809 40.8469 36.0488Z" fill="black"/>
<path d="M48.1367 45.5732C47.8583 45.5732 47.5862 45.6851 47.39 45.8812C47.1938 46.0774 47.082 46.3495 47.082 46.6279C47.082 46.9053 47.1938 47.1764 47.39 47.3736C47.5872 47.5698 47.8583 47.6826 48.1367 47.6826C48.4141 47.6826 48.6852 47.5699 48.8824 47.3736C49.0786 47.1764 49.1914 46.9053 49.1914 46.6279C49.1914 46.3495 49.0786 46.0784 48.8824 45.8812C48.6852 45.6851 48.4142 45.5732 48.1367 45.5732Z" fill="#749A32"/>
</svg>
