<svg width="21" height="20" viewBox="0 0 21 20" fill="none" xmlns="http://www.w3.org/2000/svg">
<g clip-path="url(#clip0_321_7583)">
<path fill-rule="evenodd" clip-rule="evenodd" d="M13.6084 1.40827L19.8265 7.5972C20.0557 7.82383 20.2374 8.09348 20.3611 8.39051C20.4848 8.68755 20.548 9.00606 20.5471 9.32759V17.3367C20.5471 17.9858 20.288 18.6083 19.8267 19.0673C19.3655 19.5263 18.74 19.7842 18.0877 19.7842H3.33145C2.67919 19.7842 2.05364 19.5263 1.59241 19.0673C1.13119 18.6083 0.87208 17.9858 0.87208 17.3367V9.32759C0.87116 9.00606 0.93438 8.68755 1.05808 8.39051C1.18177 8.09348 1.36348 7.82383 1.59268 7.5972L7.8108 1.40827C8.58038 0.644636 9.62281 0.21582 10.7096 0.21582C11.7963 0.21582 12.8388 0.644636 13.6084 1.40827ZM8.25021 18.1525H6.61062H3.33145C3.11403 18.1525 2.90552 18.0665 2.75177 17.9135C2.59803 17.7605 2.51166 17.553 2.51166 17.3367V9.32759C2.51242 9.11138 2.59872 8.90416 2.75186 8.7508L8.96998 2.56431C9.4321 2.10657 10.0576 1.84959 10.7096 1.84959C11.3616 1.84959 11.9871 2.10657 12.4492 2.56431L18.6673 8.75324C18.8198 8.90601 18.9061 9.11223 18.9075 9.32759V17.3367C18.9075 17.553 18.8211 17.7605 18.6674 17.9135C18.5136 18.0665 18.3051 18.1525 18.0877 18.1525H14.8085H13.169H8.25021Z" fill="black"/>
<path fill-rule="evenodd" clip-rule="evenodd" d="M14.8325 14.9427V18.1524H13.1977V14.9427C13.1977 14.2935 12.9394 13.671 12.4795 13.2119C12.0197 12.7529 11.3959 12.495 10.7456 12.495C10.0952 12.495 9.47154 12.7529 9.01167 13.2119C8.5518 13.671 8.29345 14.2935 8.29345 14.9427V18.1524H6.65869V14.9427C6.65869 13.8608 7.08927 12.8232 7.85572 12.0581C8.62216 11.2931 9.66168 10.8633 10.7456 10.8633C11.8295 10.8633 12.869 11.2931 13.6355 12.0581C14.4019 12.8232 14.8325 13.8608 14.8325 14.9427Z" fill="#F3794F"/>
</g>
<defs>
<clipPath id="clip0_321_7583">
<rect width="20.109" height="20" fill="white" transform="translate(0.654785)"/>
</clipPath>
</defs>
</svg>
