<svg width="65" height="66" viewBox="0 0 65 66" fill="none" xmlns="http://www.w3.org/2000/svg">
<path d="M20.3494 34.1602H10.5029C9.98753 34.1602 9.49322 34.3639 9.12877 34.7265C8.76432 35.0891 8.55957 35.5809 8.55957 36.0938C8.55957 36.6066 8.76432 37.0984 9.12877 37.461C9.49322 37.8236 9.98753 38.0273 10.5029 38.0273H20.3494C20.8648 38.0273 21.3591 37.8236 21.7235 37.461C22.088 37.0984 22.2927 36.6066 22.2927 36.0938C22.2927 35.5809 22.088 35.0891 21.7235 34.7265C21.3591 34.3639 20.8648 34.1602 20.3494 34.1602Z" fill="url(#paint0_linear_321_6496)"/>
<path d="M20.3494 25.9102H10.5029C9.98753 25.9102 9.49322 26.1139 9.12877 26.4765C8.76432 26.8391 8.55957 27.3309 8.55957 27.8438C8.55957 28.3566 8.76432 28.8484 9.12877 29.211C9.49322 29.5736 9.98753 29.7773 10.5029 29.7773H20.3494C20.8648 29.7773 21.3591 29.5736 21.7235 29.211C22.088 28.8484 22.2927 28.3566 22.2927 27.8438C22.2927 27.3309 22.088 26.8391 21.7235 26.4765C21.3591 26.1139 20.8648 25.9102 20.3494 25.9102Z" fill="url(#paint1_linear_321_6496)"/>
<path d="M39.524 17.6602H10.5029C9.98753 17.6602 9.49322 17.8639 9.12877 18.2265C8.76432 18.5891 8.55957 19.0809 8.55957 19.5938C8.55957 20.1066 8.76432 20.5984 9.12877 20.961C9.49322 21.3236 9.98753 21.5273 10.5029 21.5273H39.524C40.0394 21.5273 40.5337 21.3236 40.8981 20.961C41.2626 20.5984 41.4673 20.1066 41.4673 19.5938C41.4673 19.0809 41.2626 18.5891 40.8981 18.2265C40.5337 17.8639 40.0394 17.6602 39.524 17.6602Z" fill="url(#paint2_linear_321_6496)"/>
<path d="M39.524 10.4414H10.5029C9.98753 10.4414 9.49322 10.6451 9.12877 11.0077C8.76432 11.3704 8.55957 11.8622 8.55957 12.375C8.55957 12.8878 8.76432 13.3796 9.12877 13.7423C9.49322 14.1049 9.98753 14.3086 10.5029 14.3086H39.524C40.0394 14.3086 40.5337 14.1049 40.8981 13.7423C41.2626 13.3796 41.4673 12.8878 41.4673 12.375C41.4673 11.8622 41.2626 11.3704 40.8981 11.0077C40.5337 10.6451 40.0394 10.4414 39.524 10.4414Z" fill="url(#paint3_linear_321_6496)"/>
<path d="M60.5297 31.0664H49.2409V8.16063C49.2386 5.9964 48.3733 3.92151 46.8349 2.39149C45.2965 0.86147 43.2107 0.00136482 41.0355 0H8.98802C6.81345 0.00227488 4.7286 0.862786 3.19094 2.39271C1.65328 3.92263 0.788419 5.99699 0.786133 8.16063V52.5938C0.790704 56.1479 2.21175 59.5552 4.73764 62.0684C7.26352 64.5816 10.688 65.9955 14.2602 66H55.0693C57.6455 65.9973 60.1154 64.9778 61.9371 63.1653C63.7588 61.3528 64.7834 58.8953 64.7861 56.332V35.3048C64.7852 34.1813 64.3363 33.104 63.538 32.3094C62.7397 31.5148 61.6572 31.0678 60.528 31.0664H60.5297ZM14.2602 62.1328C11.7185 62.1296 9.28175 61.1236 7.48447 59.3354C5.6872 57.5471 4.67608 55.1227 4.67288 52.5938V8.16063C4.67288 7.02103 5.12787 5.9281 5.93777 5.12228C6.74766 4.31646 7.84612 3.86375 8.99148 3.86375H41.0355C42.1809 3.86375 43.2793 4.31646 44.0892 5.12228C44.8991 5.9281 45.3541 7.02103 45.3541 8.16063V56.332C45.3525 58.425 46.0366 60.4614 47.3027 62.1328H14.2602ZM60.9011 56.332C60.9011 57.8705 60.2869 59.346 59.1935 60.4338C58.1002 61.5217 56.6172 62.1328 55.071 62.1328C53.5248 62.1328 52.0418 61.5217 50.9485 60.4338C49.8551 59.346 49.2409 57.8705 49.2409 56.332V34.9336H60.5297C60.5786 34.9336 60.6271 34.9432 60.6722 34.9619C60.7174 34.9806 60.7584 35.0079 60.7929 35.0424C60.8275 35.0769 60.8548 35.1179 60.8733 35.1629C60.8919 35.2079 60.9013 35.2562 60.9011 35.3048V56.332Z" fill="url(#paint4_linear_321_6496)"/>
<path d="M36.3023 39.1514C35.9758 39.0362 35.6424 38.9176 35.3107 38.7956V32.8126C36.4802 33.2647 36.5614 33.8439 37.5927 33.8439C37.9768 33.8421 38.3517 33.7271 38.6702 33.5136C38.9888 33.3001 39.2366 32.9975 39.3826 32.644C39.5285 32.2906 39.566 31.902 39.4904 31.5273C39.4147 31.1527 39.2292 30.8087 38.9574 30.5387C38.9954 30.4975 37.4666 29.2377 35.3107 28.8045V27.7733C35.3107 27.2605 35.106 26.7686 34.7415 26.406C34.3771 26.0434 33.8828 25.8397 33.3674 25.8397C32.852 25.8397 32.3576 26.0434 31.9932 26.406C31.6287 26.7686 31.424 27.2605 31.424 27.7733V28.9369C26.157 30.3119 25.0549 36.9841 28.553 39.7134C29.4398 40.3828 30.4036 40.9448 31.424 41.3875V49.3659C30.581 49.2439 29.9418 48.9517 28.9278 48.2917C28.4965 48.0109 27.9707 47.9121 27.4661 48.017C26.9616 48.1219 26.5196 48.422 26.2374 48.8512C25.9551 49.2803 25.8558 49.8035 25.9613 50.3055C26.0667 50.8075 26.3683 51.2473 26.7996 51.5281C28.5495 52.6676 29.8244 53.1059 31.424 53.2469V54.4053C31.424 54.9181 31.6287 55.4099 31.9932 55.7726C32.3576 56.1352 32.852 56.3389 33.3674 56.3389C33.8828 56.3389 34.3771 56.1352 34.7415 55.7726C35.106 55.4099 35.3107 54.9181 35.3107 54.4053V53.075C42.1065 51.3562 43.4418 41.6625 36.3023 39.1531V39.1514ZM31.424 37.0064C31.2512 36.8981 31.0958 36.7864 30.9507 36.673C30.1232 36.0267 30.2459 34.0948 31.424 33.1478V37.0064ZM35.3107 48.9328V42.9172C38.1472 44.1427 37.4683 47.6609 35.3107 48.9328Z" fill="url(#paint5_linear_321_6496)"/>
<defs>
<linearGradient id="paint0_linear_321_6496" x1="15.6952" y1="11.5" x2="71.9811" y2="46.493" gradientUnits="userSpaceOnUse">
<stop stop-color="#289328"/>
<stop offset="1" stop-color="#66D05E"/>
</linearGradient>
<linearGradient id="paint1_linear_321_6496" x1="15.6952" y1="11.5" x2="71.9811" y2="46.493" gradientUnits="userSpaceOnUse">
<stop stop-color="#289328"/>
<stop offset="1" stop-color="#66D05E"/>
</linearGradient>
<linearGradient id="paint2_linear_321_6496" x1="15.6952" y1="11.5" x2="71.9811" y2="46.493" gradientUnits="userSpaceOnUse">
<stop stop-color="#289328"/>
<stop offset="1" stop-color="#66D05E"/>
</linearGradient>
<linearGradient id="paint3_linear_321_6496" x1="15.6952" y1="11.5" x2="71.9811" y2="46.493" gradientUnits="userSpaceOnUse">
<stop stop-color="#289328"/>
<stop offset="1" stop-color="#66D05E"/>
</linearGradient>
<linearGradient id="paint4_linear_321_6496" x1="15.6952" y1="11.5" x2="71.9811" y2="46.493" gradientUnits="userSpaceOnUse">
<stop stop-color="#289328"/>
<stop offset="1" stop-color="#66D05E"/>
</linearGradient>
<linearGradient id="paint5_linear_321_6496" x1="15.6952" y1="11.5" x2="71.9811" y2="46.493" gradientUnits="userSpaceOnUse">
<stop stop-color="#289328"/>
<stop offset="1" stop-color="#66D05E"/>
</linearGradient>
</defs>
</svg>
