<svg width="32" height="32" viewBox="0 0 32 32" fill="none" xmlns="http://www.w3.org/2000/svg">
<path d="M15.9998 29.3333C23.3636 29.3333 29.3332 23.3638 29.3332 16C29.3332 8.63616 23.3636 2.66663 15.9998 2.66663C8.63604 2.66663 2.6665 8.63616 2.6665 16C2.6665 23.3638 8.63604 29.3333 15.9998 29.3333Z" fill="#E4E5E9"/>
<path d="M17 10.6665C17 10.1142 16.5523 9.6665 16 9.6665C15.4477 9.6665 15 10.1142 15 10.6665V15H10.668C10.1157 15 9.66797 15.4477 9.66797 16C9.66797 16.5523 10.1157 17 10.668 17H15V21.3332C15 21.8855 15.4477 22.3332 16 22.3332C16.5523 22.3332 17 21.8855 17 21.3332V17H21.3346C21.8869 17 22.3346 16.5523 22.3346 16C22.3346 15.4477 21.8869 15 21.3346 15H17V10.6665Z" fill="#72727D"/>
</svg>
