<svg width="73" height="51" viewBox="0 0 73 51" fill="none" xmlns="http://www.w3.org/2000/svg">
<g clip-path="url(#clip0_769_2700)">
<path d="M9.22438 17.3556C6.89171 17.3556 5 15.8657 5 14.0254C5 12.1851 6.89171 10.6919 9.22438 10.6919V17.3567V17.3556Z" fill="#507104"/>
<path d="M5 13.6456C5 13.7089 5.0032 13.7722 5.00746 13.8355C5.13208 12.0826 6.97266 10.6909 9.22438 10.6909V10.311C6.89171 10.311 5 11.8042 5 13.6445V13.6456Z" fill="#7ED03C"/>
<path style="mix-blend-mode:multiply" d="M10.2036 -3C12.1401 -3 13.7091 5.40577 13.7091 15.7741C13.7091 26.1424 12.1401 34.5482 10.2036 34.5482C8.26721 34.5482 6.69824 26.1424 6.69824 15.7741C6.69824 5.40577 8.26721 -3 10.2036 -3Z" fill="url(#paint0_radial_769_2700)"/>
<g style="mix-blend-mode:multiply">
<path opacity="0.03" d="M67.6568 24.1919L72.6683 15.6006C72.958 15.104 72.6097 14.4731 72.0441 14.4731L7.49609 13.7319V33.1871L71.944 33.5604C72.5266 33.5604 72.8718 32.8935 72.5469 32.399L67.677 24.9909C67.5194 24.7508 67.5109 24.4397 67.6557 24.1919H67.6568Z" fill="#7ED03C" fill-opacity="0.05"/>
<path opacity="0.06" d="M67.5474 24.1918L72.5419 15.6692C72.8338 15.1726 72.4844 14.5406 71.9188 14.5406L7.55078 13.8213V33.1673L71.8208 33.5286C72.4035 33.5286 72.7496 32.8617 72.4237 32.3672L67.5677 24.993C67.409 24.7528 67.4015 24.4407 67.5474 24.1918V24.1918Z" fill="#7ED03C" fill-opacity="0.05"/>
<path opacity="0.09" d="M67.4363 24.1908L72.4127 15.7359C72.7056 15.2393 72.3573 14.6051 71.7907 14.6051L7.60156 13.9087V33.1456L71.6948 33.4959C72.2774 33.4959 72.6236 32.8279 72.2966 32.3335L67.4544 24.993C67.2957 24.7518 67.2872 24.4385 67.4353 24.1897L67.4363 24.1908Z" fill="#7ED03C" fill-opacity="0.05"/>
<path opacity="0.12" d="M67.327 24.1895L72.2863 15.8034C72.5814 15.3068 72.2331 14.6715 71.6653 14.6715L7.65625 13.998V33.1258L71.5727 33.4652C72.1553 33.4652 72.5015 32.7972 72.1745 32.3028L67.3461 24.9962C67.1864 24.7549 67.1789 24.4395 67.327 24.1906V24.1895Z" fill="#7ED03C" fill-opacity="0.05"/>
<path opacity="0.15" d="M67.2158 24.1886L72.157 15.8702C72.4542 15.3746 72.1048 14.7361 71.5371 14.7361L7.70801 14.0845V33.1031L71.4476 33.4305C72.0313 33.4305 72.3764 32.7614 72.0494 32.2669L67.2349 24.9942C67.0741 24.7519 67.0677 24.4364 67.2168 24.1865L67.2158 24.1886Z" fill="#7ED03C" fill-opacity="0.05"/>
<path opacity="0.18" d="M67.1065 24.1874L72.0307 15.9377C72.3289 15.4422 71.9806 14.8025 71.4118 14.8025L7.76172 14.1738V33.0833L71.3234 33.3998C71.9071 33.3998 72.2533 32.7307 71.9242 32.2362L67.1236 24.9973C66.9627 24.755 66.9553 24.4374 67.1054 24.1874H67.1065Z" fill="#7ED03C" fill-opacity="0.05"/>
<path opacity="0.21" d="M66.9953 24.1864L71.9014 16.0055C72.2017 15.5099 71.8534 14.8681 71.2836 14.8681L7.81348 14.2612V33.0615L71.1984 33.3671C71.7821 33.3671 72.1283 32.6969 71.7991 32.2025L67.0123 24.9974C66.8504 24.754 66.844 24.4363 66.9953 24.1853V24.1864Z" fill="#7ED03C" fill-opacity="0.05"/>
<path opacity="0.24" d="M66.886 24.1865L71.775 16.0732C72.0764 15.5777 71.7292 14.9348 71.1583 14.9348L7.86816 14.3508V33.042L71.0762 33.3356C71.661 33.3356 72.0061 32.6643 71.6759 32.1709L66.903 24.9997C66.74 24.7563 66.7336 24.4364 66.886 24.1865Z" fill="#7ED03C" fill-opacity="0.05"/>
<path opacity="0.26" d="M66.7748 24.1854L71.6458 16.1409C71.9493 15.6453 71.601 15.0013 71.0301 15.0013L7.91895 14.4392V33.0212L70.9492 33.3039C71.5339 33.3039 71.879 32.6326 71.5488 32.1381L66.7897 25.0007C66.6257 24.7562 66.6204 24.4353 66.7738 24.1854H66.7748Z" fill="#7ED03C" fill-opacity="0.05"/>
<path opacity="0.29" d="M66.6655 24.1841L71.5194 16.2073C71.824 15.7118 71.4768 15.0656 70.9048 15.0656L7.97363 14.5264V32.9992L70.827 33.2699C71.4118 33.2699 71.7569 32.5975 71.4267 32.103L66.6815 24.9995C66.5174 24.755 66.511 24.433 66.6666 24.1819L66.6655 24.1841Z" fill="#7ED03C" fill-opacity="0.05"/>
<path opacity="0.32" d="M66.5544 24.1831L71.3901 16.2751C71.6969 15.7795 71.3497 15.1323 70.7766 15.1323L8.02441 14.616V32.9796L70.701 33.2394C71.2868 33.2394 71.6319 32.567 71.2996 32.0726L66.5682 25.0028C66.4031 24.7572 66.3978 24.4342 66.5533 24.1831H66.5544Z" fill="#7ED03C" fill-opacity="0.05"/>
<path opacity="0.35" d="M66.445 24.1821L71.2638 16.3428C71.5716 15.8473 71.2243 15.1978 70.6513 15.1978L8.0791 14.7034V32.9579L70.5789 33.2068C71.1647 33.2068 71.5098 32.5333 71.1775 32.0388L66.4599 25.0029C66.2938 24.7562 66.2884 24.4321 66.4461 24.181L66.445 24.1821Z" fill="#7ED03C" fill-opacity="0.05"/>
<path opacity="0.38" d="M66.3337 24.181L71.1354 16.4094C71.4454 15.9138 71.0981 15.2633 70.524 15.2633L8.13184 14.7917V32.9371L70.4537 33.174C71.0395 33.174 71.3847 32.5005 71.0523 32.0061L66.3486 25.0051C66.1825 24.7584 66.1771 24.4331 66.3348 24.181H66.3337Z" fill="#7ED03C" fill-opacity="0.05"/>
<path opacity="0.41" d="M66.2245 24.1809L71.0081 16.4781C71.3202 15.9826 70.973 15.3298 70.3978 15.3298L8.18457 14.8801V32.9163L70.3296 33.1423C70.9155 33.1423 71.2606 32.4677 70.9272 31.9733L66.2373 25.0061C66.0701 24.7583 66.0648 24.432 66.2245 24.1798V24.1809Z" fill="#7ED03C" fill-opacity="0.05"/>
<path opacity="0.44" d="M66.1133 24.1798L70.8798 16.5447C71.1929 16.0502 70.8468 15.3953 70.2705 15.3953L8.2373 14.9685V32.8956L70.2056 33.1106C70.7925 33.1106 71.1376 32.4349 70.8031 31.9416L66.1271 25.0083C65.9588 24.7605 65.9545 24.433 66.1143 24.1798H66.1133Z" fill="#7ED03C" fill-opacity="0.05"/>
<path opacity="0.47" d="M66.0042 24.1788L70.7526 16.6124C71.0679 16.118 70.7207 15.462 70.1433 15.462L8.28906 15.0581V32.876L70.0805 33.079C70.6674 33.079 71.0125 32.4034 70.678 31.9089L66.0159 25.0095C65.8476 24.7606 65.8423 24.432 66.0042 24.1788Z" fill="#7ED03C" fill-opacity="0.05"/>
<path opacity="0.5" d="M65.8929 24.1776L70.6243 16.6799C70.9406 16.1855 70.5944 15.5273 70.0161 15.5273L8.3418 15.1453V32.854L69.9554 33.0461C70.5423 33.0461 70.8874 32.3694 70.5518 31.876L65.9035 25.0104C65.7342 24.7615 65.7299 24.4308 65.8929 24.1776Z" fill="#7ED03C" fill-opacity="0.05"/>
<path opacity="0.53" d="M65.7836 24.1764L70.4969 16.7465C70.8154 16.252 70.4692 15.5928 69.8898 15.5928L8.39551 15.2336V32.8343L69.8322 33.0155C70.4202 33.0155 70.7643 32.3388 70.4287 31.8443L65.7943 25.0125C65.6238 24.7626 65.6196 24.4318 65.7836 24.1775V24.1764Z" fill="#7ED03C" fill-opacity="0.05"/>
<path opacity="0.56" d="M65.6724 24.1754L70.3687 16.8142C70.6882 16.3198 70.342 15.6583 69.7626 15.6583L8.44727 15.321V32.8126L69.7072 32.9818C70.2952 32.9818 70.6392 32.3039 70.3037 31.8106L65.6831 25.0126C65.5126 24.7627 65.5084 24.4297 65.6735 24.1754H65.6724Z" fill="#7ED03C" fill-opacity="0.05"/>
<path opacity="0.59" d="M65.5632 24.1755L70.2413 16.882C70.563 16.3876 70.2168 15.725 69.6363 15.725L8.50098 15.4106V32.793L69.583 32.9513C70.171 32.9513 70.5161 32.2735 70.1784 31.779L65.5717 25.0149C65.4002 24.7638 65.3959 24.4309 65.5621 24.1755H65.5632Z" fill="#7ED03C" fill-opacity="0.05"/>
<path opacity="0.62" d="M65.4519 24.1743L70.113 16.9495C70.4358 16.4551 70.0907 15.7903 69.5091 15.7903L8.55273 15.4978V32.771L69.458 32.9184C70.0459 32.9184 70.391 32.2395 70.0534 31.7461L65.4605 25.0158C65.2879 24.7637 65.2847 24.4297 65.4519 24.1743Z" fill="#7ED03C" fill-opacity="0.05"/>
<path opacity="0.65" d="M65.3427 24.1733L69.9857 17.0173C70.3105 16.5228 69.9644 15.857 69.3828 15.857L8.60645 15.5874V32.7515L69.3349 32.8868C69.9239 32.8868 70.2679 32.2068 69.9292 31.7135L65.3501 25.017C65.1765 24.7649 65.1744 24.4287 65.3427 24.1733Z" fill="#7ED03C" fill-opacity="0.05"/>
<path opacity="0.68" d="M65.2314 24.1721L69.8573 17.0838C70.1843 16.5894 69.8382 15.9225 69.2555 15.9225L8.65918 15.6758V32.7307L69.2108 32.8552C69.7998 32.8552 70.1439 32.1751 69.8051 31.6818L65.2399 25.0192C65.0663 24.7659 65.0631 24.4297 65.2325 24.1732L65.2314 24.1721Z" fill="#7ED03C" fill-opacity="0.05"/>
<path opacity="0.71" d="M65.1222 24.1711L69.7301 17.1516C70.0581 16.6571 69.713 15.988 69.1293 15.988L8.71191 15.7632V32.709L69.0856 32.8225C69.6747 32.8225 70.0198 32.1414 69.68 31.648L65.1286 25.0192C64.9539 24.766 64.9518 24.4276 65.1222 24.1711V24.1711Z" fill="#7ED03C" fill-opacity="0.05"/>
<path opacity="0.74" d="M65.0109 24.1699L69.6017 17.2191C69.9319 16.7258 69.5868 16.0545 69.002 16.0545L8.76465 15.8525V32.6892L68.9616 32.7907C69.5517 32.7907 69.8957 32.1096 69.5548 31.6162L65.0173 25.0213C64.8416 24.767 64.8394 24.4275 65.0109 24.171V24.1699Z" fill="#7ED03C" fill-opacity="0.05"/>
<path opacity="0.76" d="M64.9017 24.17L69.4743 17.2869C69.8056 16.7935 69.4605 16.12 68.8757 16.12L8.81836 15.9399V32.6674L68.8385 32.758C69.4285 32.758 69.7726 32.0758 69.4317 31.5825L64.908 25.0214C64.7323 24.767 64.7302 24.4265 64.9027 24.1689L64.9017 24.17Z" fill="#7ED03C" fill-opacity="0.05"/>
<path opacity="0.79" d="M64.7905 24.169L69.3461 17.3546C69.6795 16.8613 69.3344 16.1867 68.7485 16.1867L8.87012 16.0295V32.6479L68.7134 32.7265C69.3035 32.7265 69.6475 32.0443 69.3067 31.5509L64.7968 25.0236C64.62 24.7682 64.6179 24.4266 64.7915 24.1701L64.7905 24.169Z" fill="#7ED03C" fill-opacity="0.05"/>
<path opacity="0.82" d="M64.6812 24.1677L69.2187 17.4211C69.5532 16.9277 69.2091 16.251 68.6222 16.251L8.92383 16.1167V32.6259L68.5892 32.6936C69.1793 32.6936 69.5234 32.0103 69.1814 31.5169L64.6855 25.0235C64.5076 24.7681 64.5065 24.4253 64.6812 24.1677V24.1677Z" fill="#7ED03C" fill-opacity="0.05"/>
<path opacity="0.85" d="M64.57 24.1668L69.0905 17.4889C69.4271 16.9956 69.082 16.3177 68.4951 16.3177L8.97559 16.2053V32.6054L68.4642 32.6621C69.0553 32.6621 69.3994 31.9777 69.0564 31.4855L64.5742 25.0259C64.3964 24.7694 64.3942 24.4255 64.571 24.1679L64.57 24.1668Z" fill="#7ED03C" fill-opacity="0.05"/>
<path opacity="0.88" d="M64.4607 24.1656L68.9631 17.5565C69.3018 17.0631 68.9567 16.3842 68.3688 16.3842L9.0293 16.2947V32.5856L68.3411 32.6303C68.9322 32.6303 69.2763 31.9459 68.9333 31.4526L64.465 25.0268C64.286 24.7692 64.285 24.4243 64.4618 24.1667L64.4607 24.1656Z" fill="#7ED03C" fill-opacity="0.05"/>
<path opacity="0.91" d="M64.3495 24.1645L68.8349 17.623C69.1746 17.1296 68.8306 16.4485 68.2405 16.4485L9.08105 16.3809V32.5626L68.216 32.5964C68.8072 32.5964 69.1512 31.911 68.8072 31.4187L64.3527 25.0268C64.1727 24.7692 64.1716 24.4232 64.3506 24.1645H64.3495Z" fill="#7ED03C" fill-opacity="0.05"/>
<path opacity="0.94" d="M64.2403 24.1644L68.7076 17.6918C69.0495 17.1984 68.7055 16.5162 68.1143 16.5162L9.13379 16.4714V32.544L68.0909 32.5669C68.6831 32.5669 69.0261 31.8815 68.682 31.3881L64.2414 25.03C64.0603 24.7713 64.0603 24.4242 64.2393 24.1655L64.2403 24.1644Z" fill="#7ED03C" fill-opacity="0.05"/>
<path opacity="0.97" d="M64.1291 24.1635L68.5792 17.7585C68.9222 17.2652 68.5792 16.5808 67.987 16.5808L9.18652 16.5579V32.5213L67.9668 32.5322C68.559 32.5322 68.9031 31.8456 68.5569 31.3534L64.1301 25.0291C63.949 24.7704 63.948 24.4222 64.1291 24.1625V24.1635Z" fill="#7ED03C" fill-opacity="0.05"/>
<path d="M64.0198 24.1623L68.4529 17.8261C68.7981 17.3327 68.4529 16.6472 67.8618 16.6472H9.24023V32.5015H67.8437C68.4359 32.5015 68.7799 31.8149 68.4338 31.3216L64.0209 25.0312C63.8387 24.7714 63.8387 24.4221 64.0209 24.1623H64.0198Z" fill="#7ED03C" fill-opacity="0.05"/>
</g>
<g style="mix-blend-mode:multiply">
<path opacity="0.03" d="M67.7681 23.5008L72.623 13.9566C72.9042 13.4053 72.5655 12.7046 72.0191 12.7046H8.39453V33.9029H71.9222C72.4867 33.9029 72.8212 33.1629 72.5059 32.6138L67.7883 24.3871C67.636 24.1208 67.6275 23.7758 67.7681 23.5008Z" fill="#FFFEFE"/>
<path opacity="0.06" d="M67.6316 23.4507L72.4716 14.0036C72.7549 13.4545 72.4162 12.7549 71.8677 12.7549H8.41992V33.7906H71.7729C72.3374 33.7906 72.6729 33.0527 72.3566 32.5048L67.6497 24.337C67.4963 24.0717 67.4888 23.7257 67.6305 23.4507H67.6316Z" fill="#FEFEFE"/>
<path opacity="0.09" d="M67.4941 23.4004L72.3203 14.0505C72.6047 13.5025 72.267 12.804 71.7174 12.804H8.44434V33.6781H71.6247C72.1903 33.6781 72.5258 32.9413 72.2084 32.3956L67.5133 24.2856C67.3588 24.0204 67.3513 23.6744 67.4941 23.4004Z" fill="#FEFDFD"/>
<path opacity="0.12" d="M67.3575 23.3492L72.1688 14.0964C72.4553 13.5506 72.1166 12.8521 71.567 12.8521H8.4707V33.5647H71.4764C72.042 33.5647 72.3775 32.8301 72.0601 32.2854L67.3756 24.2344C67.2201 23.9691 67.2137 23.6231 67.3575 23.3492V23.3492Z" fill="#FDFCFC"/>
<path opacity="0.15" d="M67.221 23.2989L72.0173 14.1433C72.306 13.5997 71.9673 12.9011 71.4155 12.9011H8.49609V33.4511H71.3282C71.8948 33.4511 72.2304 32.7176 71.9119 32.1751L67.238 24.183C67.0825 23.9178 67.075 23.5718 67.2199 23.2989H67.221Z" fill="#FDFBFB"/>
<path opacity="0.18" d="M67.0835 23.2486L71.866 14.1902C72.1557 13.6477 71.8181 12.9502 71.2653 12.9502H8.52051V33.3386H71.18C71.7478 33.3386 72.0833 32.6073 71.7637 32.0659L67.1005 24.1328C66.9439 23.8675 66.9376 23.5215 67.0835 23.2486V23.2486Z" fill="#FDFBFB"/>
<path opacity="0.21" d="M66.9459 23.1984L71.7135 14.237C72.0054 13.6967 71.6666 12.9993 71.1128 12.9993H8.5459V33.2262H71.0307C71.5985 33.2262 71.934 32.4959 71.6144 31.9567L66.9629 24.0814C66.8053 23.8162 66.7989 23.4702 66.9459 23.1984V23.1984Z" fill="#FCFAFA"/>
<path opacity="0.24" d="M66.8095 23.1484L71.5632 14.2842C71.8572 13.745 71.5185 13.0486 70.9636 13.0486H8.57031V33.1128H70.8826C71.4514 33.1128 71.7869 32.3848 71.4663 31.8467L66.8255 24.0303C66.6667 23.7662 66.6604 23.4191 66.8095 23.1473V23.1484Z" fill="#FCF9F9"/>
<path opacity="0.26" d="M66.6719 23.097L71.4107 14.3311C71.7058 13.794 71.3681 13.0977 70.8121 13.0977H8.5957V33.0004H70.7344C71.3032 33.0004 71.6398 32.2734 71.3181 31.7375L66.6879 23.9801C66.5292 23.7159 66.5228 23.3688 66.673 23.0981L66.6719 23.097Z" fill="#FCF8F9"/>
<path opacity="0.29" d="M66.5355 23.0468L71.2594 14.378C71.5566 13.8431 71.2179 13.1467 70.6608 13.1467H8.62012V32.8879H70.5852C71.155 32.8879 71.4916 32.162 71.1689 31.6283L66.5493 23.9298C66.3895 23.6657 66.3832 23.3186 66.5344 23.0479L66.5355 23.0468Z" fill="#FBF8F8"/>
<path opacity="0.32" d="M66.3979 22.9965L71.108 14.4248C71.4073 13.8911 71.0686 13.1958 70.5104 13.1958H8.64551V32.7743H70.4369C71.0068 32.7743 71.3434 32.0507 71.0206 31.518L66.4128 23.8785C66.252 23.6143 66.2466 23.2672 66.399 22.9976L66.3979 22.9965Z" fill="#FBF7F7"/>
<path opacity="0.35" d="M66.2613 22.9463L70.9565 14.4717C71.2569 13.9402 70.9192 13.2449 70.3589 13.2449H8.67188V32.6619H70.2886C70.8596 32.6619 71.1961 31.9393 70.8723 31.4088L66.2752 23.8271C66.1133 23.563 66.1079 23.217 66.2613 22.9463V22.9463Z" fill="#FAF6F7"/>
<path opacity="0.38" d="M66.1249 22.896L70.8062 14.5186C71.1087 13.9881 70.77 13.2939 70.2097 13.2939H8.69629V32.5483H70.1405C70.7125 32.5483 71.0491 31.8279 70.7242 31.2985L66.1377 23.7758C65.9747 23.5127 65.9704 23.1656 66.1249 22.896V22.896Z" fill="#FAF5F6"/>
<path opacity="0.41" d="M65.9873 22.8448L70.6537 14.5645C70.9583 14.0362 70.6196 13.342 70.0572 13.342H8.72168V32.4348H69.9923C70.5642 32.4348 70.9008 31.7155 70.576 31.1883L66.0001 23.7245C65.8371 23.4615 65.8318 23.1144 65.9873 22.8448V22.8448Z" fill="#FAF5F5"/>
<path opacity="0.44" d="M65.8498 22.7945L70.5013 14.6114C70.8081 14.0853 70.4694 13.3911 69.9059 13.3911H8.74609V32.3224H69.8431C70.4161 32.3224 70.7527 31.6052 70.4268 31.0802L65.8615 23.6754C65.6975 23.4123 65.6932 23.0652 65.8498 22.7967V22.7945Z" fill="#F9F4F4"/>
<path opacity="0.47" d="M65.7133 22.7445L70.351 14.6586C70.6588 14.1335 70.3201 13.4404 69.7566 13.4404H8.77148V32.209H69.6948C70.2679 32.209 70.6055 31.493 70.2785 30.9702L65.725 23.6232C65.5599 23.3601 65.5557 23.013 65.7133 22.7445V22.7445Z" fill="#F9F3F4"/>
<path opacity="0.5" d="M65.5758 22.6943L70.1986 14.7055C70.5085 14.1826 70.1698 13.4895 69.6042 13.4895H8.7959V32.0966H69.5467C70.1208 32.0966 70.4585 31.3827 70.1304 30.861L65.5875 23.5729C65.4214 23.3099 65.4171 22.9628 65.5769 22.6953L65.5758 22.6943Z" fill="#F9F3F3"/>
<path opacity="0.53" d="M65.4393 22.644L70.0482 14.7523C70.3603 14.2317 70.0216 13.5386 69.4549 13.5386H8.82129V31.9841H69.3974C69.9726 31.9841 70.3092 31.2713 69.9811 30.7518L65.4489 23.5227C65.2827 23.2596 65.2785 22.9125 65.4393 22.6451V22.644Z" fill="#F8F2F2"/>
<path opacity="0.56" d="M65.3028 22.5928L69.8968 14.7983C70.2099 14.2787 69.8712 13.5867 69.3035 13.5867H8.84668V31.8696H69.2502C69.8254 31.8696 70.1631 31.159 69.8339 30.6405L65.3124 23.4703C65.1451 23.2084 65.1409 22.8602 65.3028 22.5939V22.5928Z" fill="#F8F1F2"/>
<path opacity="0.59" d="M65.1652 22.5425L69.7443 14.8451C70.0596 14.3278 69.7209 13.6357 69.1521 13.6357H8.87207V31.7571H69.102C69.6782 31.7571 70.0159 31.0476 69.6857 30.5313L65.1759 23.4201C65.0076 23.1581 65.0044 22.8099 65.1673 22.5436L65.1652 22.5425Z" fill="#F7F0F1"/>
<path opacity="0.62" d="M65.0287 22.4923L69.5939 14.892C69.9113 14.3757 69.5716 13.6848 69.0028 13.6848H8.89746V31.6446H68.9527C69.529 31.6446 69.8666 30.9373 69.5364 30.4221L65.0372 23.3687C64.8679 23.1068 64.8647 22.7586 65.0287 22.4934V22.4923Z" fill="#F7F0F0"/>
<path opacity="0.65" d="M64.8912 22.442L69.4415 14.9389C69.76 14.4248 69.4213 13.7339 68.8504 13.7339H8.92188V31.5311H68.8046C69.3819 31.5311 69.7195 30.8248 69.3883 30.3118L64.8997 23.3174C64.7293 23.0554 64.7272 22.7072 64.8923 22.442H64.8912Z" fill="#F7EFEF"/>
<path opacity="0.68" d="M64.7547 22.3917L69.2912 14.9858C69.6118 14.4739 69.2731 13.783 68.7011 13.783H8.94727V31.4186H68.6553C69.2336 31.4186 69.5713 30.7135 69.239 30.2026L64.7611 23.2671C64.5907 23.0052 64.5875 22.657 64.7536 22.3928L64.7547 22.3917Z" fill="#F6EEEF"/>
<path opacity="0.71" d="M64.6172 22.3417L69.1388 15.0329C69.4615 14.5221 69.1217 13.8323 68.5487 13.8323H8.97168V31.3053H68.5071C69.0855 31.3053 69.4242 30.6023 69.0898 30.0926L64.6236 23.216C64.4521 22.9541 64.45 22.6059 64.6172 22.3417V22.3417Z" fill="#F6EDEE"/>
<path opacity="0.74" d="M64.4796 22.2903L68.9863 15.0786C69.3101 14.57 68.9714 13.8801 68.3972 13.8801H8.99707V31.1916H68.3589C68.9383 31.1916 69.276 30.4897 68.9415 29.9822L64.486 23.1635C64.3135 22.9026 64.3113 22.5533 64.4796 22.2903V22.2903Z" fill="#F5EDED"/>
<path opacity="0.76" d="M64.3442 22.24L68.837 15.1255C69.1629 14.6179 68.8242 13.9292 68.249 13.9292H9.02246V31.0791H68.2107C68.7901 31.0791 69.1288 30.3794 68.7933 29.873L64.3484 23.1132C64.1748 22.8523 64.1727 22.5031 64.3431 22.24H64.3442Z" fill="#F5ECED"/>
<path opacity="0.79" d="M64.2066 22.1899L68.6845 15.1736C69.0126 14.6682 68.6728 13.9795 68.0965 13.9795H9.04785V30.9668H68.0624C68.6429 30.9668 68.9817 30.2682 68.6451 29.7639L64.2109 23.0631C64.0372 22.8022 64.0351 22.4529 64.2066 22.1899Z" fill="#F5EBEC"/>
<path opacity="0.82" d="M64.0691 22.1396L68.5332 15.2205C68.8634 14.7173 68.5236 14.0286 67.9463 14.0286H9.07227V30.8543H67.9143C68.4959 30.8543 68.8335 30.1579 68.4969 29.6547L64.0734 23.0128C63.8987 22.752 63.8966 22.4038 64.0691 22.1407V22.1396Z" fill="#F4EAEB"/>
<path opacity="0.85" d="M63.9326 22.0896L68.3817 15.2676C68.713 14.7655 68.3743 14.0779 67.7948 14.0779H9.09766V30.7421H67.765C68.3466 30.7421 68.6853 30.0468 68.3476 29.5458L63.9358 22.9628C63.76 22.702 63.759 22.3538 63.9326 22.0907V22.0896Z" fill="#F4EAEB"/>
<path opacity="0.88" d="M63.795 22.0381L68.2292 15.3133C68.5626 14.8134 68.2228 14.1257 67.6434 14.1257H9.12305V30.6273H67.6168C68.1994 30.6273 68.5381 29.9342 68.1994 29.4342L63.7982 22.9092C63.6214 22.6494 63.6203 22.3001 63.795 22.0381V22.0381Z" fill="#F4E9EA"/>
<path opacity="0.91" d="M63.6586 21.9879L68.079 15.3602C68.4145 14.8625 68.0747 14.1748 67.4942 14.1748H9.14746V30.5148H67.4676C68.0502 30.5148 68.39 29.8228 68.0502 29.325L63.6597 22.8589C63.4829 22.5991 63.4818 22.2498 63.6575 21.9879H63.6586Z" fill="#F3E8E9"/>
<path opacity="0.94" d="M63.521 21.9379L67.9265 15.4073C68.2631 14.9107 67.9244 14.2241 67.3417 14.2241H9.17285V30.4026H67.3194C67.9031 30.4026 68.2418 29.7127 67.902 29.2161L63.5221 22.8089C63.3442 22.5491 63.3432 22.1998 63.52 21.939L63.521 21.9379Z" fill="#F3E7E8"/>
<path opacity="0.97" d="M63.3835 21.8876L67.7751 15.4542C68.1139 14.9598 67.7751 14.2732 67.1914 14.2732H9.19727V30.289H67.1712C67.7549 30.289 68.0947 29.6003 67.7538 29.1058L63.3857 22.7575C63.2067 22.4978 63.2067 22.1485 63.3846 21.8876H63.3835Z" fill="#F2E7E8"/>
<path d="M63.248 21.8374L67.6247 15.5011C67.9655 15.0077 67.6247 14.3223 67.041 14.3223H9.22363V30.1765H67.0229C67.6077 30.1765 67.9474 29.49 67.6055 28.9966L63.248 22.7062C63.068 22.4464 63.068 22.0971 63.248 21.8374Z" fill="#F2E6E7"/>
</g>
<path d="M69.2615 33.2088H9.22545C6.88851 33.2088 5 31.7156 5 29.8742V14.0232C5 15.8646 6.88638 17.3545 9.22438 17.3545H69.2764L63.7153 25.304L69.2615 33.2077V33.2088Z" fill="url(#paint1_linear_769_2700)"/>
<path d="M9.22438 17.3546H69.2764L69.6567 16.811H9.22438C6.88744 16.811 5 15.3222 5 13.4797V14.0233C5 15.8647 6.88638 17.3546 9.22438 17.3546Z" fill="#7ED03C"/>
<path d="M63.7148 25.304L69.2611 33.2088H69.6424L63.9055 25.0322L63.7148 25.304Z" fill="#7ED03C"/>
<path d="M17.52 22.216V28H16.968C16.8827 28 16.8107 27.9867 16.752 27.96C16.696 27.9307 16.6413 27.8827 16.588 27.816L13.568 23.96C13.584 24.136 13.592 24.2987 13.592 24.448V28H12.644V22.216H13.208C13.2533 22.216 13.292 22.2187 13.324 22.224C13.3587 22.2267 13.388 22.2347 13.412 22.248C13.4387 22.2587 13.464 22.276 13.488 22.3C13.512 22.3213 13.5387 22.3507 13.568 22.388L16.6 26.26C16.592 26.1667 16.5853 26.0747 16.58 25.984C16.5747 25.8933 16.572 25.8093 16.572 25.732V22.216H17.52ZM19.8881 23.072V24.676H21.9121V25.504H19.8881V27.14H22.4561V28H18.8081V22.216H22.4561V23.072H19.8881ZM31.1056 22.216L29.3096 28H28.3376L27.0736 24.048C27.039 23.952 27.007 23.8347 26.9776 23.696C26.9616 23.7627 26.9456 23.8253 26.9296 23.884C26.9136 23.9427 26.8963 23.9973 26.8776 24.048L25.6016 28H24.6256L22.8336 22.216H23.7336C23.827 22.216 23.9043 22.2387 23.9656 22.284C24.0296 22.3267 24.0723 22.3853 24.0936 22.46L25.0776 25.92C25.099 26.0053 25.119 26.0987 25.1376 26.2C25.159 26.2987 25.1803 26.4027 25.2016 26.512C25.223 26.4 25.2456 26.2947 25.2696 26.196C25.2963 26.0973 25.3243 26.0053 25.3536 25.92L26.4896 22.46C26.511 22.3987 26.5523 22.3427 26.6136 22.292C26.6776 22.2413 26.755 22.216 26.8456 22.216H27.1616C27.255 22.216 27.331 22.2387 27.3896 22.284C27.4483 22.3293 27.4923 22.388 27.5216 22.46L28.6536 25.92C28.7096 26.0853 28.7603 26.276 28.8056 26.492C28.8403 26.2813 28.879 26.0907 28.9216 25.92L29.9056 22.46C29.9216 22.3933 29.9616 22.336 30.0256 22.288C30.0923 22.24 30.171 22.216 30.2616 22.216H31.1056ZM39.2225 25.108C39.2225 25.532 39.1518 25.9253 39.0105 26.288C38.8718 26.648 38.6745 26.96 38.4185 27.224C38.1625 27.488 37.8545 27.6947 37.4945 27.844C37.1345 27.9907 36.7345 28.064 36.2945 28.064C35.8572 28.064 35.4585 27.9907 35.0985 27.844C34.7385 27.6947 34.4292 27.488 34.1705 27.224C33.9145 26.96 33.7158 26.648 33.5745 26.288C33.4332 25.9253 33.3625 25.532 33.3625 25.108C33.3625 24.684 33.4332 24.292 33.5745 23.932C33.7158 23.5693 33.9145 23.256 34.1705 22.992C34.4292 22.728 34.7385 22.5227 35.0985 22.376C35.4585 22.2267 35.8572 22.152 36.2945 22.152C36.5878 22.152 36.8638 22.1867 37.1225 22.256C37.3812 22.3227 37.6185 22.4187 37.8345 22.544C38.0505 22.6667 38.2438 22.8173 38.4145 22.996C38.5878 23.172 38.7345 23.3693 38.8545 23.588C38.9745 23.8067 39.0652 24.044 39.1265 24.3C39.1905 24.556 39.2225 24.8253 39.2225 25.108ZM38.1225 25.108C38.1225 24.7907 38.0798 24.5067 37.9945 24.256C37.9092 24.0027 37.7878 23.788 37.6305 23.612C37.4732 23.436 37.2812 23.3013 37.0545 23.208C36.8305 23.1147 36.5772 23.068 36.2945 23.068C36.0118 23.068 35.7572 23.1147 35.5305 23.208C35.3065 23.3013 35.1145 23.436 34.9545 23.612C34.7972 23.788 34.6758 24.0027 34.5905 24.256C34.5052 24.5067 34.4625 24.7907 34.4625 25.108C34.4625 25.4253 34.5052 25.7107 34.5905 25.964C34.6758 26.2147 34.7972 26.428 34.9545 26.604C35.1145 26.7773 35.3065 26.9107 35.5305 27.004C35.7572 27.0973 36.0118 27.144 36.2945 27.144C36.5772 27.144 36.8305 27.0973 37.0545 27.004C37.2812 26.9107 37.4732 26.7773 37.6305 26.604C37.7878 26.428 37.9092 26.2147 37.9945 25.964C38.0798 25.7107 38.1225 25.4253 38.1225 25.108ZM41.2474 23.072V24.784H43.4154V25.644H41.2474V28H40.1674V22.216H43.8154V23.072H41.2474ZM45.7787 23.072V24.784H47.9467V25.644H45.7787V28H44.6987V22.216H48.3467V23.072H45.7787ZM50.3099 23.072V24.676H52.3339V25.504H50.3099V27.14H52.8779V28H49.2299V22.216H52.8779V23.072H50.3099ZM55.5795 24.968C55.7822 24.968 55.9582 24.9427 56.1075 24.892C56.2595 24.8413 56.3835 24.772 56.4795 24.684C56.5782 24.5933 56.6515 24.4867 56.6995 24.364C56.7475 24.2413 56.7715 24.1067 56.7715 23.96C56.7715 23.6667 56.6742 23.4413 56.4795 23.284C56.2875 23.1267 55.9928 23.048 55.5955 23.048H54.9075V24.968H55.5795ZM58.3475 28H57.3755C57.1915 28 57.0582 27.928 56.9755 27.784L55.7595 25.932C55.7142 25.8627 55.6635 25.8133 55.6075 25.784C55.5542 25.7547 55.4742 25.74 55.3675 25.74H54.9075V28H53.8315V22.216H55.5955C55.9875 22.216 56.3235 22.2573 56.6035 22.34C56.8862 22.42 57.1168 22.5333 57.2955 22.68C57.4768 22.8267 57.6102 23.0027 57.6955 23.208C57.7808 23.4107 57.8235 23.6347 57.8235 23.88C57.8235 24.0747 57.7942 24.2587 57.7355 24.432C57.6795 24.6053 57.5968 24.7627 57.4875 24.904C57.3808 25.0453 57.2475 25.1693 57.0875 25.276C56.9302 25.3827 56.7502 25.4667 56.5475 25.528C56.6168 25.568 56.6808 25.616 56.7395 25.672C56.7982 25.7253 56.8515 25.7893 56.8995 25.864L58.3475 28Z" fill="white"/>
</g>
<defs>
<radialGradient id="paint0_radial_769_2700" cx="0" cy="0" r="1" gradientUnits="userSpaceOnUse" gradientTransform="translate(-55.3486 16.6384) rotate(-90) scale(18.1634 4.43115)">
<stop stop-color="#B3898D"/>
<stop offset="0.17" stop-color="#C7A8AB"/>
<stop offset="0.42" stop-color="#DFCDCF"/>
<stop offset="0.65" stop-color="#F0E8E9"/>
<stop offset="0.85" stop-color="#FBF9F9"/>
<stop offset="1" stop-color="white"/>
</radialGradient>
<linearGradient id="paint1_linear_769_2700" x1="5" y1="23.6154" x2="69.2764" y2="23.6154" gradientUnits="userSpaceOnUse">
<stop stop-color="#76C835"/>
<stop offset="0.25" stop-color="#7BA51C"/>
<stop offset="0.5" stop-color="#7BA51C"/>
<stop offset="0.75" stop-color="#7BA51C"/>
<stop offset="1" stop-color="#76C835"/>
</linearGradient>
<clipPath id="clip0_769_2700">
<rect width="73" height="51" fill="white" transform="matrix(1 0 0 -1 0 51)"/>
</clipPath>
</defs>
</svg>
