<svg width="25" height="24" viewBox="0 0 25 24" fill="none" xmlns="http://www.w3.org/2000/svg">
<path d="M10.1934 13C10.6244 13.5741 11.1743 14.0491 11.8059 14.3929C12.4374 14.7367 13.1357 14.9411 13.8535 14.9923C14.5713 15.0435 15.2918 14.9403 15.966 14.6897C16.6403 14.4392 17.2526 14.047 17.7613 13.54L20.7724 10.54C21.6866 9.59695 22.1925 8.33394 22.181 7.02296C22.1696 5.71198 21.6418 4.45791 20.7113 3.53087C19.7808 2.60383 18.5221 2.07799 17.2063 2.0666C15.8904 2.0552 14.6227 2.55918 13.6762 3.46997L11.9498 5.17997" stroke="#868686" stroke-width="2" stroke-linecap="round" stroke-linejoin="round"/>
<path d="M14.2081 11C13.777 10.4259 13.2271 9.9508 12.5956 9.60704C11.964 9.26328 11.2657 9.05886 10.5479 9.00765C9.8301 8.95643 9.10964 9.05961 8.43539 9.3102C7.76114 9.56079 7.14887 9.95291 6.6401 10.46L3.62898 13.46C2.71481 14.403 2.20897 15.666 2.2204 16.977C2.23184 18.288 2.75963 19.542 3.69011 20.4691C4.62059 21.3961 5.8793 21.922 7.19515 21.9334C8.51099 21.9447 9.77869 21.4408 10.7252 20.53L12.4415 18.82" stroke="#868686" stroke-width="2" stroke-linecap="round" stroke-linejoin="round"/>
</svg>
