<svg width="20" height="21" viewBox="0 0 20 21" fill="none" xmlns="http://www.w3.org/2000/svg">
<g clip-path="url(#clip0_321_7356)">
<path fill-rule="evenodd" clip-rule="evenodd" d="M11.5404 1.96191L19.3623 9.27215C20.2126 10.0667 20.2126 11.3568 19.3623 12.1514L11.5404 19.4616C10.6902 20.2562 9.30983 20.2562 8.45961 19.4616L0.637659 12.1514C-0.212553 11.3568 -0.212553 10.0667 0.637659 9.27215L8.45961 1.96191C9.30983 1.16732 10.6902 1.16732 11.5404 1.96191ZM2.99825 10.7118L10 17.2555L17.0018 10.7118L10 4.16807L2.99825 10.7118Z" fill="black"/>
<path fill-rule="evenodd" clip-rule="evenodd" d="M7.90162 12.9572C9.08286 14.0612 10.9174 14.0612 12.0987 12.9572C13.3985 11.7424 13.3985 9.68115 12.0987 8.46636C10.9174 7.36241 9.08286 7.36241 7.90162 8.46636C6.6018 9.68115 6.6018 11.7424 7.90162 12.9572Z" fill="#F3794F"/>
</g>
<defs>
<clipPath id="clip0_321_7356">
<rect width="20" height="20" fill="white" transform="translate(0 0.618408)"/>
</clipPath>
</defs>
</svg>
