<svg width="25" height="25" viewBox="0 0 25 25" fill="none" xmlns="http://www.w3.org/2000/svg">
<path fill-rule="evenodd" clip-rule="evenodd" d="M17.8204 22.3814L21.7554 15.97C22.6653 14.3521 23.0711 12.4998 22.9208 10.6503C22.7704 8.80071 22.0708 7.03804 20.9114 5.5878L22.64 3.86073C22.7397 3.76464 22.8191 3.6497 22.8738 3.52262C22.9285 3.39553 22.9573 3.25884 22.9585 3.12053C22.9597 2.98222 22.9333 2.84506 22.8808 2.71704C22.8284 2.58903 22.7509 2.47272 22.653 2.37492C22.555 2.27711 22.4385 2.19977 22.3103 2.14739C22.1821 2.09502 22.0447 2.06866 21.9062 2.06986C21.7677 2.07107 21.6308 2.0998 21.5035 2.15439C21.3763 2.20899 21.2612 2.28834 21.1649 2.38783L19.4342 4.11594C17.9249 2.90577 16.0731 2.19937 14.1401 2.09639C12.2072 1.99341 10.2906 2.49906 8.66088 3.54199L2.64462 7.25654C1.9399 7.6914 1.34285 8.27983 0.898181 8.97776C0.453509 9.67568 0.172742 10.465 0.0769079 11.2867C-0.0189265 12.1083 0.072655 12.9409 0.344794 13.7222C0.616933 14.5035 1.06258 15.2132 1.64835 15.7981L3.02018 17.1658L4.52868 18.6741L8.40842 22.5491L9.99829 24.0053C10.9139 24.6511 12.007 24.9986 13.1279 25.0001C13.3469 25.0002 13.5657 24.9873 13.7831 24.9616C14.6082 24.8664 15.4008 24.5845 16.1004 24.1374C16.8 23.6903 17.3882 23.0897 17.8204 22.3814ZM14.4384 4.2166C16.0748 4.39617 17.5998 5.13139 18.7582 6.29925V6.29405C19.8695 7.40539 20.588 8.84799 20.8048 10.4035C21.0217 11.959 20.7251 13.5427 19.96 14.9148L16.0427 21.295C15.7734 21.7332 15.4081 22.1048 14.9743 22.3818C14.5404 22.6588 14.0494 22.8339 13.5379 22.8941C13.0265 22.9542 12.5081 22.8978 12.0217 22.7291C11.5353 22.5604 11.0935 22.2837 10.7296 21.9199L3.12451 14.3252C2.76117 13.9624 2.48475 13.5223 2.31594 13.0377C2.14712 12.5531 2.09029 12.0367 2.14969 11.5271C2.2091 11.0175 2.38321 10.5279 2.65898 10.095C2.93474 9.6621 3.30502 9.29711 3.74209 9.02735L9.76878 5.3128C11.1536 4.42402 12.8021 4.03704 14.4384 4.2166Z" fill="black"/>
<path fill-rule="evenodd" clip-rule="evenodd" d="M6.70431 24.9804C7.8839 25.0589 9.05265 24.713 9.99879 24.0052L8.40892 22.549C7.86383 22.8333 7.24335 22.9404 6.6343 22.8552C6.02524 22.7701 5.45809 22.4969 5.0122 22.074C4.57018 21.6381 4.28356 21.0695 4.19632 20.4553C4.10907 19.8412 4.226 19.2154 4.52919 18.674L3.02069 17.1657C2.32954 18.1234 2.0048 19.2966 2.10532 20.4728C2.20584 21.6489 2.72497 22.7502 3.56864 23.5772C4.41231 24.4041 5.52472 24.9019 6.70431 24.9804ZM19.4794 24.8022C19.6579 24.9311 19.8727 25.0004 20.093 25C20.3139 25 20.529 24.9299 20.7075 24.8C22.9393 23.124 24.461 20.6736 24.9721 17.9323C25.0039 17.7979 25.0086 17.6586 24.9859 17.5223C24.9632 17.3861 24.9136 17.2557 24.84 17.1388C24.7664 17.0219 24.6702 16.9208 24.5571 16.8413C24.444 16.7618 24.3162 16.7056 24.1811 16.6759C24.046 16.6462 23.9064 16.6436 23.7703 16.6683C23.6342 16.693 23.5044 16.7445 23.3884 16.8197C23.2725 16.8949 23.1726 16.9925 23.0947 17.1066C23.0168 17.2207 22.9625 17.3491 22.9347 17.4844C22.5394 19.732 21.3031 21.7454 19.4765 23.1167C19.2984 23.2463 19.1661 23.4288 19.0984 23.6382C19.0307 23.8475 19.0311 24.0729 19.0995 24.282C19.168 24.4911 19.301 24.6732 19.4794 24.8022ZM0.493458 5.82192C0.657213 5.9233 0.845891 5.97743 1.03857 5.97829C1.20097 5.97768 1.36098 5.93923 1.50587 5.86599C1.65076 5.79275 1.77652 5.68674 1.87315 5.55641C3.26609 3.69354 5.32723 2.44146 7.62442 2.06269C7.89557 2.00744 8.13363 1.8469 8.28623 1.61639C8.43883 1.38588 8.49347 1.10428 8.43814 0.833538C8.3828 0.562799 8.22202 0.325098 7.99116 0.172726C7.7603 0.0203535 7.47828 -0.0342074 7.20713 0.0210456C4.41007 0.51096 1.90547 2.04768 0.203994 4.31788C0.0895393 4.47266 0.0202489 4.65605 0.003806 4.84775C-0.0126369 5.03944 0.02441 5.23193 0.110839 5.40388C0.197268 5.57583 0.329703 5.72053 0.493458 5.82192Z" fill="#F3794F"/>
</svg>
