<svg width="48" height="36" viewBox="0 0 48 36" fill="none" xmlns="http://www.w3.org/2000/svg">
<path d="M43.45 4.00609C42.3287 3.05315 40.9975 2.29721 39.5323 1.78146C38.0671 1.2657 36.4966 1.00024 34.9106 1.00024C33.3246 1.00024 31.7541 1.2657 30.2889 1.78146C28.8237 2.29721 27.4925 3.05315 26.3712 4.00609L24.0443 5.98285L21.7174 4.00609C19.4526 2.08212 16.3809 1.00124 13.178 1.00124C9.97516 1.00124 6.90346 2.08212 4.63868 4.00609C2.3739 5.93006 1.10156 8.53953 1.10156 11.2604C1.10156 13.9813 2.3739 16.5908 4.63868 18.5148L6.9656 20.4915L24.0443 35.0002L41.123 20.4915L43.45 18.5148C44.5717 17.5623 45.4615 16.4314 46.0687 15.1867C46.6758 13.9419 46.9883 12.6078 46.9883 11.2604C46.9883 9.91309 46.6758 8.57895 46.0687 7.33422C45.4615 6.0895 44.5717 4.95858 43.45 4.00609V4.00609Z" stroke="#00B16B" stroke-width="2" stroke-linecap="round" stroke-linejoin="round"/>
</svg>
