<svg width="166" height="49" viewBox="0 0 166 49" fill="none" xmlns="http://www.w3.org/2000/svg">
<path d="M159.885 48.7849H6.99733C3.57265 48.7849 0.881836 46.1018 0.881836 42.6868V6.09812C0.881836 2.68317 3.57265 0 6.99733 0H159.885C163.309 0 166 2.68317 166 6.09812V42.6868C166 45.9798 163.309 48.7849 159.885 48.7849Z" fill="black"/>
<path d="M159.885 0.975699C162.698 0.975699 165.022 3.29298 165.022 6.09812V42.6868C165.022 45.492 162.698 47.8092 159.885 47.8092H6.99733C4.1842 47.8092 1.86031 45.492 1.86031 42.6868V6.09812C1.86031 3.29298 4.1842 0.975699 6.99733 0.975699H159.885ZM159.885 0H6.99733C3.57265 0 0.881836 2.68317 0.881836 6.09812V42.6868C0.881836 46.1018 3.57265 48.7849 6.99733 48.7849H159.885C163.309 48.7849 166 46.1018 166 42.6868V6.09812C166 2.80513 163.309 0 159.885 0Z" fill="#A6A6A6"/>
<path d="M58.8562 12.4403C58.8562 13.416 58.6116 14.2697 58 14.8795C57.2661 15.6113 56.41 15.9772 55.3092 15.9772C54.2084 15.9772 53.3522 15.6113 52.6184 14.8795C51.8845 14.1478 51.5176 13.294 51.5176 12.1964C51.5176 11.0987 51.8845 10.245 52.6184 9.51319C53.3522 8.78141 54.2084 8.41553 55.3092 8.41553C55.7984 8.41553 56.2877 8.53749 56.7769 8.78142C57.2661 9.02534 57.6331 9.26926 57.8777 9.63515L57.2661 10.245C56.7769 9.63515 56.1654 9.39123 55.3092 9.39123C54.5753 9.39123 53.8415 9.63515 53.3522 10.245C52.7407 10.7328 52.4961 11.4646 52.4961 12.3183C52.4961 13.1721 52.7407 13.9038 53.3522 14.3917C53.9638 14.8795 54.5753 15.2454 55.3092 15.2454C56.1654 15.2454 56.7769 15.0015 57.3885 14.3917C57.7554 14.0258 58 13.5379 58 12.9281H55.3092V12.0744H58.8562C58.8562 12.0744 58.8562 12.3183 58.8562 12.4403Z" fill="white" stroke="white" stroke-width="0.2" stroke-miterlimit="10"/>
<path d="M64.483 9.39134H61.1806V11.7086H64.2384V12.5624H61.1806V14.8796H64.483V15.8553H60.2021V8.5376H64.483V9.39134Z" fill="white" stroke="white" stroke-width="0.2" stroke-miterlimit="10"/>
<path d="M68.5187 15.8553H67.5402V9.39134H65.4609V8.5376H70.5979V9.39134H68.5187V15.8553Z" fill="white" stroke="white" stroke-width="0.2" stroke-miterlimit="10"/>
<path d="M74.1445 15.8553V8.5376H75.123V15.8553H74.1445Z" fill="white" stroke="white" stroke-width="0.2" stroke-miterlimit="10"/>
<path d="M79.2824 15.8553H78.3039V9.39134H76.2246V8.5376H81.2393V9.39134H79.1601V15.8553H79.2824Z" fill="white" stroke="white" stroke-width="0.2" stroke-miterlimit="10"/>
<path d="M90.9013 14.8795C90.1675 15.6113 89.3113 15.9772 88.2105 15.9772C87.1098 15.9772 86.2536 15.6113 85.5197 14.8795C84.7859 14.1478 84.4189 13.294 84.4189 12.1964C84.4189 11.0987 84.7859 10.245 85.5197 9.51319C86.2536 8.78141 87.1098 8.41553 88.2105 8.41553C89.3113 8.41553 90.1675 8.78141 90.9013 9.51319C91.6352 10.245 92.0021 11.0987 92.0021 12.1964C92.0021 13.294 91.6352 14.1478 90.9013 14.8795ZM86.2536 14.2697C86.7428 14.7576 87.4767 15.1235 88.2105 15.1235C88.9444 15.1235 89.6783 14.8795 90.1675 14.2697C90.6567 13.7819 91.0237 13.0501 91.0237 12.1964C91.0237 11.3426 90.779 10.6108 90.1675 10.123C89.6783 9.63515 88.9444 9.26926 88.2105 9.26926C87.4767 9.26926 86.7428 9.51319 86.2536 10.123C85.7644 10.6108 85.3974 11.3426 85.3974 12.1964C85.3974 13.0501 85.642 13.7819 86.2536 14.2697Z" fill="white" stroke="white" stroke-width="0.2" stroke-miterlimit="10"/>
<path d="M93.3477 15.8553V8.5376H94.4484L97.9954 14.2698V12.8063V8.5376H98.9739V15.8553H97.9954L94.2038 9.87918V11.3427V15.8553H93.3477Z" fill="white" stroke="white" stroke-width="0.2" stroke-miterlimit="10"/>
<path d="M84.175 26.5877C81.2396 26.5877 78.9157 28.783 78.9157 31.8321C78.9157 34.7592 81.2396 37.0765 84.175 37.0765C87.1105 37.0765 89.4343 34.8811 89.4343 31.8321C89.4343 28.6611 87.1105 26.5877 84.175 26.5877ZM84.175 34.8811C82.585 34.8811 81.2396 33.5396 81.2396 31.7101C81.2396 29.8807 82.585 28.5391 84.175 28.5391C85.765 28.5391 87.1105 29.7587 87.1105 31.7101C87.1105 33.5396 85.765 34.8811 84.175 34.8811ZM72.8002 26.5877C69.8648 26.5877 67.5409 28.783 67.5409 31.8321C67.5409 34.7592 69.8648 37.0765 72.8002 37.0765C75.7356 37.0765 78.0595 34.8811 78.0595 31.8321C78.0595 28.6611 75.7356 26.5877 72.8002 26.5877ZM72.8002 34.8811C71.2102 34.8811 69.8648 33.5396 69.8648 31.7101C69.8648 29.8807 71.2102 28.5391 72.8002 28.5391C74.3902 28.5391 75.7356 29.7587 75.7356 31.7101C75.7356 33.5396 74.3902 34.8811 72.8002 34.8811ZM59.2238 28.1732V30.3685H64.4831C64.3608 31.5882 63.8716 32.5639 63.26 33.1737C62.5262 33.9054 61.3031 34.7592 59.2238 34.7592C55.9215 34.7592 53.4753 32.198 53.4753 28.905C53.4753 25.612 56.0438 23.0508 59.2238 23.0508C60.9362 23.0508 62.2816 23.7826 63.26 24.6363L64.8501 23.0508C63.5047 21.8312 61.7923 20.8555 59.3461 20.8555C54.943 20.8555 51.1514 24.5143 51.1514 28.905C51.1514 33.2956 54.943 36.9545 59.3461 36.9545C61.7923 36.9545 63.5047 36.2227 64.9724 34.6372C66.4401 33.1737 66.9293 31.1003 66.9293 29.5148C66.9293 29.0269 66.9293 28.5391 66.807 28.1732H59.2238ZM114.752 29.8807C114.263 28.6611 113.04 26.5877 110.349 26.5877C107.658 26.5877 105.457 28.6611 105.457 31.8321C105.457 34.7592 107.658 37.0765 110.594 37.0765C112.918 37.0765 114.386 35.6129 114.875 34.7592L113.162 33.5396C112.551 34.3933 111.817 35.0031 110.594 35.0031C109.371 35.0031 108.637 34.5153 108.025 33.4176L114.997 30.4905L114.752 29.8807ZM107.659 31.5882C107.659 29.6368 109.249 28.5391 110.349 28.5391C111.205 28.5391 112.062 29.0269 112.306 29.6368L107.659 31.5882ZM101.91 36.5886H104.234V21.3433H101.91V36.5886ZM98.2406 27.6854C97.6291 27.0756 96.6506 26.4657 95.4275 26.4657C92.859 26.4657 90.4128 28.783 90.4128 31.7101C90.4128 34.6372 92.7367 36.8325 95.4275 36.8325C96.6506 36.8325 97.6291 36.2227 98.1183 35.6129H98.2406V36.3447C98.2406 38.2961 97.1399 39.3937 95.4275 39.3937C94.0821 39.3937 93.1036 38.418 92.859 37.5643L90.9021 38.418C91.5136 39.7596 92.9813 41.4671 95.5498 41.4671C98.2406 41.4671 100.442 39.8816 100.442 36.1008V26.8316H98.2406V27.6854ZM95.5498 34.8811C93.9598 34.8811 92.6144 33.5396 92.6144 31.7101C92.6144 29.8807 93.9598 28.5391 95.5498 28.5391C97.1399 28.5391 98.3629 29.8807 98.3629 31.7101C98.3629 33.5396 97.1399 34.8811 95.5498 34.8811ZM125.393 21.3433H119.889V36.5886H122.213V30.8564H125.393C127.962 30.8564 130.408 29.0269 130.408 26.0998C130.408 23.1728 127.962 21.3433 125.393 21.3433ZM125.516 28.6611H122.213V23.4167H125.516C127.228 23.4167 128.207 24.8802 128.207 25.9779C128.084 27.3195 127.106 28.6611 125.516 28.6611ZM139.581 26.4657C137.869 26.4657 136.157 27.1975 135.545 28.783L137.624 29.6368C138.114 28.783 138.847 28.5391 139.704 28.5391C140.927 28.5391 142.028 29.2709 142.15 30.4905V30.6125C141.783 30.3685 140.804 30.0026 139.826 30.0026C137.624 30.0026 135.423 31.2223 135.423 33.4176C135.423 35.491 137.257 36.8325 139.214 36.8325C140.804 36.8325 141.538 36.1008 142.15 35.369H142.272V36.5886H144.474V30.7344C144.229 28.0512 142.15 26.4657 139.581 26.4657ZM139.337 34.8811C138.603 34.8811 137.502 34.5153 137.502 33.5396C137.502 32.3199 138.847 31.954 139.948 31.954C140.927 31.954 141.416 32.198 142.028 32.4419C141.783 33.9054 140.56 34.8811 139.337 34.8811ZM152.179 26.8316L149.611 33.4176H149.488L146.798 26.8316H144.351L148.388 36.1008L146.064 41.2232H148.388L154.625 26.8316H152.179ZM131.631 36.5886H133.955V21.3433H131.631V36.5886Z" fill="white"/>
<path d="M13.6018 9.14697C13.2349 9.51286 12.9902 10.1227 12.9902 10.8544V37.8081C12.9902 38.5399 13.2349 39.1497 13.6018 39.5156L13.7241 39.6376L28.8905 24.5142V24.3923V24.2703L13.6018 9.14697Z" fill="url(#paint0_linear_321_6147)"/>
<path d="M33.9053 29.6368L28.8906 24.6364V24.3924V24.2705L33.9053 19.27L34.0276 19.392L40.0208 22.8069C41.7332 23.7826 41.7332 25.3681 40.0208 26.3438L33.9053 29.6368Z" fill="url(#paint1_linear_321_6147)"/>
<path d="M34.0273 29.5145L28.8903 24.3921L13.6016 39.6374C14.2131 40.2472 15.0693 40.2472 16.1701 39.7593L34.0273 29.5145Z" fill="url(#paint2_linear_321_6147)"/>
<path d="M34.0273 19.2699L16.1701 9.14701C15.0693 8.5372 14.2131 8.65917 13.6016 9.26898L28.8903 24.3923L34.0273 19.2699Z" fill="url(#paint3_linear_321_6147)"/>
<path opacity="0.2" d="M33.905 29.3931L16.1701 39.394C15.1916 40.0038 14.3354 39.8818 13.7239 39.394L13.6016 39.5159L13.7239 39.6379C14.3354 40.1258 15.1916 40.2477 16.1701 39.6379L33.905 29.3931Z" fill="black"/>
<path opacity="0.12" d="M13.6015 39.3935C13.2346 39.0276 13.1123 38.4178 13.1123 37.686V37.808C13.1123 38.5398 13.3569 39.1496 13.7239 39.5155V39.3935H13.6015Z" fill="black"/>
<path opacity="0.12" d="M40.0208 25.9776L33.9053 29.3925L34.0276 29.5145L40.0208 26.0996C40.8769 25.6117 41.2439 25.0019 41.2439 24.3921C41.2439 25.0019 40.7546 25.4897 40.0208 25.9776Z" fill="black"/>
<path opacity="0.25" d="M16.1701 9.26906L40.0205 22.8069C40.7543 23.2947 41.2436 23.7826 41.2436 24.3924C41.2436 23.7826 40.8766 23.1728 40.0205 22.6849L16.1701 9.1471C14.4577 8.1714 13.1123 9.02514 13.1123 10.9765V11.0985C13.1123 9.1471 14.4577 8.29337 16.1701 9.26906Z" fill="white"/>
<defs>
<linearGradient id="paint0_linear_321_6147" x1="27.5447" y1="10.6224" x2="7.07661" y2="31.1488" gradientUnits="userSpaceOnUse">
<stop stop-color="#00A0FF"/>
<stop offset="0.00657445" stop-color="#00A1FF"/>
<stop offset="0.2601" stop-color="#00BEFF"/>
<stop offset="0.5122" stop-color="#00D2FF"/>
<stop offset="0.7604" stop-color="#00DFFF"/>
<stop offset="1" stop-color="#00E3FF"/>
</linearGradient>
<linearGradient id="paint1_linear_321_6147" x1="42.2645" y1="24.3941" x2="12.6693" y2="24.3941" gradientUnits="userSpaceOnUse">
<stop stop-color="#FFE000"/>
<stop offset="0.4087" stop-color="#FFBD00"/>
<stop offset="0.7754" stop-color="#FFA500"/>
<stop offset="1" stop-color="#FF9C00"/>
</linearGradient>
<linearGradient id="paint2_linear_321_6147" x1="31.2472" y1="27.1925" x2="3.49076" y2="55.028" gradientUnits="userSpaceOnUse">
<stop stop-color="#FF3A44"/>
<stop offset="1" stop-color="#C31162"/>
</linearGradient>
<linearGradient id="paint3_linear_321_6147" x1="9.80666" y1="0.214734" x2="22.2012" y2="12.6444" gradientUnits="userSpaceOnUse">
<stop stop-color="#32A071"/>
<stop offset="0.0685" stop-color="#2DA771"/>
<stop offset="0.4762" stop-color="#15CF74"/>
<stop offset="0.8009" stop-color="#06E775"/>
<stop offset="1" stop-color="#00F076"/>
</linearGradient>
</defs>
</svg>
