<svg width="43" height="43" viewBox="0 0 43 43" fill="none" xmlns="http://www.w3.org/2000/svg">
<path d="M34.6113 26.7406L34.6113 26.74L34.6113 22.8186L34.6113 22.818C34.6118 22.4792 34.7467 22.1544 34.9863 21.9149C35.226 21.6754 35.5508 21.5407 35.8896 21.5402L35.8902 21.5402L38.4001 21.5402L38.4002 21.5402C38.4057 21.5402 38.4112 21.5386 38.4158 21.5357C38.4205 21.5327 38.4242 21.5286 38.4266 21.5237C38.4289 21.5188 38.4298 21.5133 38.4292 21.508C38.4286 21.5026 38.4265 21.4975 38.4231 21.4932L38.4228 21.4929L34.8912 17.0811L34.8904 17.0802C34.7102 16.8536 34.6118 16.5727 34.6113 16.2832L34.6113 16.2825L34.6113 4.51698C34.6113 4.50922 34.6082 4.50172 34.6026 4.49615C34.5972 4.49076 34.5899 4.48761 34.5822 4.4874C34.582 4.48739 34.5817 4.48739 34.5815 4.48739L31.9463 4.50786C31.9463 4.50786 31.9463 4.50786 31.9463 4.50786C31.9383 4.50795 31.9308 4.51117 31.9253 4.51674C31.9198 4.52229 31.9168 4.52974 31.9168 4.53744L34.6113 26.7406ZM34.6113 26.7406C34.6118 27.0794 34.7467 27.4041 34.9863 27.6437C35.226 27.8832 35.5508 28.0179 35.8896 28.0184L35.8902 27.6184L35.8919 28.0184C36.2301 28.0169 36.554 27.8817 36.7928 27.6423C37.0317 27.4029 37.166 27.0787 37.1665 26.7406L37.1665 26.74L37.1665 24.1259C37.1665 24.1183 37.1696 24.111 37.175 24.1055C37.1805 24.1001 37.1879 24.097 37.1957 24.097L41.1214 24.097L41.1216 24.097C41.3624 24.0968 41.5984 24.0288 41.8022 23.9006C42.0061 23.7724 42.1697 23.5892 42.2741 23.3722C42.3785 23.1551 42.4195 22.913 42.3923 22.6737C42.3651 22.4344 42.2709 22.2076 42.1205 22.0195L42.1203 22.0192L37.1729 15.8416L37.1721 15.8406C37.1685 15.8361 37.1665 15.8306 37.1665 15.8249L37.1665 15.8241L37.1665 4.51698L37.1665 4.51651C37.1657 3.83646 36.8951 3.18454 36.414 2.70374C35.9329 2.22295 35.2807 1.95253 34.6005 1.95173L34.6 1.95173L31.9428 1.95173L31.9418 1.95173C31.2621 1.95333 30.6107 2.22411 30.1303 2.70481C29.6499 3.18552 29.3796 3.83698 29.3788 4.51651L29.3788 4.51698L29.3788 7.22579L29.3788 7.2263C29.3788 7.23218 29.377 7.23795 29.3736 7.24281C29.3702 7.24768 29.3654 7.25143 29.3597 7.2535C29.3541 7.25557 29.3479 7.25585 29.3421 7.25431C29.3362 7.25276 29.3311 7.24947 29.3272 7.24492L29.327 7.24462L24.9366 2.05668L34.6113 26.7406ZM31.9373 10.7963L31.9168 4.53754L16.5048 6.69889L16.5047 7.09888C16.5048 7.09888 16.5049 7.09888 16.505 7.09888C16.6892 7.0989 16.8712 7.05933 17.0387 6.98284C17.2063 6.90631 17.3554 6.79461 17.476 6.65532L17.4768 6.65445L19.9623 3.76702L19.9623 3.76702L19.9633 3.76587L19.9646 3.76471C20.3871 3.3892 20.9329 3.18174 21.4984 3.18174C22.0638 3.18174 22.6096 3.3892 23.0321 3.76471L23.0321 3.76471L23.0328 3.76532L23.0348 3.76767L29.6815 11.6212C29.6816 11.6213 29.6816 11.6213 29.6817 11.6214C29.8507 11.8212 30.077 11.9644 30.33 12.0316C30.5831 12.0988 30.8507 12.0867 31.0967 11.997C31.3427 11.9073 31.5552 11.7443 31.7056 11.5299C31.8559 11.3155 31.9368 11.0602 31.9373 10.7984L31.9373 10.7963Z" fill="black" stroke="black" stroke-width="0.8"/>
<path d="M8.41994 42.3985L8.41947 42.3985C7.73384 42.3977 7.07647 42.1251 6.59165 41.6405C6.10683 41.1558 5.83416 40.4986 5.83356 39.8132L5.83356 39.8128L5.83355 24.1272C5.83355 24.1196 5.83054 24.1122 5.82508 24.1068C5.81962 24.1013 5.81217 24.0982 5.80435 24.0982L1.8805 24.0982C1.88035 24.0982 1.8802 24.0982 1.88005 24.0982C1.88004 24.0982 1.88002 24.0982 1.88 24.0982C1.63497 24.0984 1.39501 24.0283 1.1887 23.8961C0.982239 23.7638 0.818164 23.5749 0.716061 23.352C0.613958 23.129 0.578146 22.8814 0.612905 22.6387C0.647633 22.3962 0.751338 22.1688 0.911643 21.9835C0.911787 21.9833 0.91193 21.9832 0.912074 21.983L5.41149 16.7552L5.41174 16.7549C5.63301 16.4983 5.94712 16.3401 6.28501 16.315C6.62283 16.2898 6.95686 16.3997 7.21369 16.6206L8.41994 42.3985ZM8.41994 42.3985L25.42 42.3985C25.5887 42.4023 25.7566 42.3726 25.9138 42.3112C26.073 42.2491 26.218 42.1557 26.3405 42.0366C26.4629 41.9175 26.5602 41.7751 26.6267 41.6177C26.6932 41.4604 26.7274 41.2913 26.7274 41.1205C26.7274 40.9497 26.6932 40.7806 26.6267 40.6232C26.5602 40.4658 26.4629 40.3234 26.3405 40.2043C26.218 40.0852 26.073 39.9918 25.9138 39.9297C25.7565 39.8683 25.5887 39.8386 25.4199 39.8424L8.41994 39.8424C8.41607 39.8424 8.41224 39.8416 8.40868 39.8402C8.40511 39.8387 8.40189 39.8365 8.39919 39.8338C8.39817 39.8328 8.39724 39.8317 8.39638 39.8306C8.39498 39.8287 8.39381 39.8266 8.39291 39.8244C8.39147 39.8209 8.39073 39.8172 8.39073 39.8134L8.39073 39.8128L8.39073 22.8186L8.39073 22.8183C8.39049 22.4795 8.25577 22.1546 8.01621 21.915C7.77666 21.6754 7.45185 21.5407 7.11305 21.5402L7.11246 21.5402M8.41994 42.3985L7.11246 21.5402M7.11246 21.5402L4.73037 21.5402C4.72471 21.5401 4.71921 21.5384 4.71448 21.5354C4.70969 21.5323 4.70591 21.5279 4.70356 21.5228C4.70121 21.5177 4.70038 21.5121 4.70116 21.5065C4.70192 21.5011 4.70421 21.4959 4.70778 21.4916C4.70784 21.4916 4.7079 21.4915 4.70796 21.4914L7.34889 18.4232M7.11246 21.5402L7.21383 16.6207C7.34109 16.7302 7.44555 16.8636 7.52124 17.0133C7.59697 17.1632 7.64241 17.3265 7.65497 17.4939C7.66753 17.6613 7.64696 17.8296 7.59443 17.989C7.54191 18.1485 7.45847 18.296 7.34889 18.4232M7.34889 18.4232L7.04584 18.1622L7.349 18.4231L7.34889 18.4232Z" fill="black" stroke="black" stroke-width="0.8"/>
<path d="M34.611 39.8127L34.6111 39.8133C34.6111 39.8171 34.6103 39.8208 34.6089 39.8243C34.6074 39.8278 34.6053 39.831 34.6026 39.8337C34.5999 39.8364 34.5967 39.8386 34.5931 39.8401C34.5895 39.8416 34.5857 39.8423 34.5818 39.8423L33.2786 39.8423C33.1098 39.8385 32.942 39.8682 32.7847 39.9296C32.6256 39.9918 32.4805 40.0851 32.3581 40.2042C32.2356 40.3233 32.1383 40.4658 32.0718 40.6231C32.0053 40.7805 31.9711 40.9496 31.9711 41.1204C31.9711 41.2912 32.0053 41.4603 32.0718 41.6177C32.1383 41.775 32.2356 41.9175 32.3581 42.0366C32.4805 42.1557 32.6256 42.249 32.7847 42.3112C32.942 42.3726 33.1099 42.4023 33.2786 42.3985L34.5818 42.3985L34.5823 42.3985C35.2684 42.3977 35.9261 42.1248 36.4111 41.6397C36.8961 41.1545 37.1687 40.4968 37.1689 39.8109L37.1689 39.8108L37.1689 37.1968C37.1689 36.8576 37.0341 36.5324 36.7942 36.2927C36.5543 36.053 36.2291 35.9184 35.89 35.9184C35.5508 35.9184 35.2256 36.053 34.9857 36.2927C34.7458 36.5324 34.611 36.8576 34.611 37.1968L34.611 39.8127Z" fill="black" stroke="black" stroke-width="0.8"/>
<path d="M29.3495 41.9983C29.1165 41.998 28.8932 41.9053 28.7284 41.7407C28.5637 41.576 28.471 41.3528 28.4706 41.1199C28.4706 35.863 25.454 32.8475 20.1934 32.8475C19.9603 32.8475 19.7367 32.755 19.5719 32.5902C19.4071 32.4255 19.3145 32.2021 19.3145 31.9691C19.3145 31.7362 19.4071 31.5127 19.5719 31.348C19.7367 31.1833 19.9603 31.0907 20.1934 31.0907C25.454 31.0907 28.4706 28.0759 28.4706 22.8183C28.4706 22.5854 28.5632 22.3619 28.728 22.1972C28.8929 22.0325 29.1164 21.9399 29.3495 21.9399C29.5826 21.9399 29.8062 22.0325 29.971 22.1972C30.1358 22.3619 30.2284 22.5854 30.2284 22.8183C30.2284 28.0759 33.2457 31.0907 38.5063 31.0907C38.7394 31.0907 38.963 31.1833 39.1278 31.348C39.2926 31.5127 39.3852 31.7362 39.3852 31.9691C39.3852 32.2021 39.2926 32.4255 39.1278 32.5902C38.963 32.755 38.7394 32.8475 38.5063 32.8475C33.2457 32.8475 30.2284 35.863 30.2284 41.1199C30.2281 41.3528 30.1354 41.576 29.9706 41.7407C29.8059 41.9053 29.5825 41.998 29.3495 41.9983V41.9983ZM29.3495 28.0215C29.2724 28.0215 29.1967 28.0423 29.1304 28.0817C29.0641 28.1212 29.0096 28.1778 28.9729 28.2456C28.2067 29.6636 27.0427 30.827 25.6238 31.5927C25.556 31.6295 25.4993 31.6838 25.4599 31.7501C25.4204 31.8164 25.3996 31.892 25.3996 31.9691C25.3996 32.0462 25.4204 32.1219 25.4599 32.1882C25.4993 32.2544 25.556 32.3088 25.6238 32.3456C27.0426 33.1117 28.2066 34.2752 28.9729 35.6933C29.0099 35.7609 29.0644 35.8173 29.1308 35.8566C29.1971 35.8958 29.2728 35.9166 29.3498 35.9166C29.4269 35.9166 29.5026 35.8958 29.5689 35.8566C29.6353 35.8173 29.6898 35.7609 29.7268 35.6933C30.4924 34.2747 31.6566 33.111 33.0759 32.3456C33.1436 32.3087 33.2 32.2542 33.2393 32.188C33.2786 32.1217 33.2994 32.0461 33.2994 31.9691C33.2994 31.8921 33.2786 31.8165 33.2393 31.7503C33.2 31.684 33.1436 31.6296 33.0759 31.5927C31.657 30.827 30.4929 29.6636 29.7268 28.2456C29.6899 28.1778 29.6354 28.1212 29.569 28.0818C29.5026 28.0423 29.4268 28.0215 29.3495 28.0215Z" fill="#F3794F"/>
<path d="M9.72794 18.4674C9.49511 18.4671 9.27192 18.3745 9.10728 18.2099C8.94265 18.0454 8.85001 17.8223 8.84967 17.5896C8.88113 16.6666 8.72235 15.7469 8.38317 14.8877C8.044 14.0285 7.53169 13.2482 6.87806 12.5953C6.22443 11.9424 5.44345 11.4307 4.58362 11.0921C3.7238 10.7536 2.8035 10.5953 1.87989 10.6272C1.64679 10.6272 1.42323 10.5346 1.2584 10.3699C1.09358 10.2051 1.00098 9.98172 1.00098 9.74876C1.00098 9.51579 1.09358 9.29237 1.2584 9.12764C1.42323 8.96291 1.64679 8.87036 1.87989 8.87036C2.804 8.90228 3.7248 8.74384 4.58503 8.40492C5.44525 8.06599 6.22652 7.55382 6.88023 6.90024C7.53395 6.24667 8.04613 5.46568 8.38494 4.60583C8.72375 3.74598 8.88194 2.82566 8.84967 1.90211C8.8465 1.7848 8.86688 1.66805 8.90961 1.55875C8.95233 1.44944 9.01654 1.34981 9.09844 1.26572C9.18034 1.18163 9.27827 1.11479 9.38644 1.06915C9.49461 1.02351 9.61084 0.999999 9.72826 0.999999C9.84567 0.999999 9.9619 1.02351 10.0701 1.06915C10.1782 1.11479 10.2762 1.18163 10.3581 1.26572C10.44 1.34981 10.5042 1.44944 10.5469 1.55875C10.5896 1.66805 10.61 1.7848 10.6068 1.90211C10.575 2.8254 10.7335 3.74537 11.0726 4.60484C11.4116 5.46431 11.9238 6.24491 12.5775 6.89813C13.2312 7.55136 14.0123 8.06324 14.8723 8.40197C15.7323 8.74071 16.6528 8.89905 17.5766 8.86716C17.8097 8.86716 18.0333 8.9597 18.1981 9.12443C18.3629 9.28917 18.4555 9.51259 18.4555 9.74555C18.4555 9.97852 18.3629 10.2019 18.1981 10.3667C18.0333 10.5314 17.8097 10.6239 17.5766 10.6239C16.653 10.5925 15.7328 10.7512 14.8731 11.0902C14.0134 11.4291 13.2327 11.9412 12.5794 12.5944C11.926 13.2476 11.4141 14.0282 11.0753 14.8875C10.7365 15.7468 10.5782 16.6666 10.61 17.5896C10.6099 17.7052 10.5869 17.8196 10.5425 17.9262C10.498 18.0329 10.433 18.1298 10.3511 18.2113C10.2691 18.2928 10.1719 18.3574 10.065 18.4013C9.95809 18.4453 9.84355 18.4677 9.72794 18.4674V18.4674ZM9.72794 6.32417C9.65388 6.32415 9.58108 6.3433 9.51664 6.37977C9.4522 6.41623 9.39831 6.46877 9.36023 6.53224C8.6564 7.69875 7.67801 8.6757 6.51018 9.37806C6.44663 9.41617 6.39404 9.47008 6.35752 9.53454C6.32101 9.599 6.30182 9.6718 6.30182 9.74587C6.30182 9.81994 6.32101 9.89275 6.35752 9.95721C6.39404 10.0217 6.44663 10.0756 6.51018 10.1137C7.67733 10.8158 8.65491 11.7926 9.35767 12.9589C9.3958 13.0224 9.44974 13.0749 9.51424 13.1114C9.57873 13.1479 9.65158 13.1671 9.72569 13.1671C9.79981 13.1671 9.87266 13.1479 9.93715 13.1114C10.0016 13.0749 10.0556 13.0224 10.0937 12.9589C10.797 11.7926 11.7753 10.8162 12.9431 10.115C13.0067 10.0769 13.0593 10.0229 13.0958 9.95849C13.1323 9.89403 13.1515 9.82122 13.1515 9.74715C13.1515 9.67308 13.1323 9.60028 13.0958 9.53582C13.0593 9.47136 13.0067 9.41745 12.9431 9.37934C11.7762 8.67569 10.7993 7.69736 10.0976 6.52968C10.0594 6.46611 10.0054 6.41352 9.94088 6.37705C9.87631 6.34058 9.80338 6.32147 9.72922 6.32161L9.72794 6.32417Z" fill="#F3794F"/>
</svg>
