<svg width="41" height="41" viewBox="0 0 41 41" fill="none" xmlns="http://www.w3.org/2000/svg">
<path d="M23.917 6.83325H3.41699V29.0416H23.917V6.83325Z" fill="white"/>
<path d="M37.5837 18.7917V29.0417H23.917V10.25H30.7503L34.167 17.0833L37.5837 18.7917Z" fill="white"/>
<path d="M10.2497 34.1666C12.1366 34.1666 13.6663 32.6369 13.6663 30.7499C13.6663 28.8629 12.1366 27.3333 10.2497 27.3333C8.3627 27.3333 6.83301 28.8629 6.83301 30.7499C6.83301 32.6369 8.3627 34.1666 10.2497 34.1666Z" fill="white"/>
<path d="M30.7497 34.1666C32.6366 34.1666 34.1663 32.6369 34.1663 30.7499C34.1663 28.8629 32.6366 27.3333 30.7497 27.3333C28.8627 27.3333 27.333 28.8629 27.333 30.7499C27.333 32.6369 28.8627 34.1666 30.7497 34.1666Z" fill="white"/>
<path d="M32.4587 15.375H30.7503C29.8068 15.375 29.042 16.1398 29.042 17.0833C29.042 18.0268 29.8068 18.7917 30.7503 18.7917H32.4587C33.4021 18.7917 34.167 18.0268 34.167 17.0833C34.167 16.1398 33.4021 15.375 32.4587 15.375Z" fill="#F3794F"/>
<path d="M36.0406 16.0999C35.6556 15.9066 35.3433 15.594 35.1502 15.2088L32.3621 9.64556C32.023 8.96891 31.3309 8.54167 30.5741 8.54167H27.333C26.3895 8.54167 25.6247 7.77682 25.6247 6.83333C25.6247 5.88985 24.8598 5.125 23.9163 5.125H3.70801C2.60344 5.125 1.70801 6.02043 1.70801 7.125V29.0417C1.70801 29.9852 2.47285 30.75 3.41634 30.75C4.35983 30.75 5.09805 31.5354 5.40678 32.4269C5.65822 33.153 6.07211 33.8203 6.62575 34.3739C7.58688 35.335 8.89044 35.875 10.2497 35.875C11.6089 35.875 12.9125 35.335 13.8736 34.3739C14.3572 33.8903 14.7341 33.3201 14.9893 32.6997C15.4095 31.6781 16.2701 30.75 17.3747 30.75H23.6247C24.7292 30.75 25.5898 31.6781 26.01 32.6997C26.2652 33.3201 26.6422 33.8903 27.1257 34.3739C28.0869 35.335 29.3904 35.875 30.7497 35.875C32.1089 35.875 33.4125 35.335 34.3736 34.3739C34.9272 33.8203 35.3411 33.153 35.5926 32.4269C35.9013 31.5354 36.6395 30.75 37.583 30.75C38.5265 30.75 39.2913 29.9852 39.2913 29.0417V18.9661C39.2913 18.2099 38.8648 17.5183 38.1889 17.1789L36.0406 16.0999ZM10.2497 32.4583C9.9118 32.4583 9.58151 32.3581 9.30058 32.1704C9.01964 31.9827 8.80068 31.7159 8.67138 31.4037C8.54208 31.0916 8.50825 30.7481 8.57417 30.4167C8.64008 30.0853 8.80279 29.7809 9.0417 29.542C9.28061 29.3031 9.58501 29.1404 9.9164 29.0745C10.2478 29.0086 10.5913 29.0424 10.9034 29.1717C11.2156 29.301 11.4824 29.52 11.6701 29.8009C11.8578 30.0818 11.958 30.4121 11.958 30.75C11.958 31.2031 11.778 31.6376 11.4576 31.958C11.1373 32.2784 10.7028 32.4583 10.2497 32.4583ZM22.208 25.3333C22.208 26.4379 21.3126 27.3333 20.208 27.3333H14.927C14.3635 27.3333 13.8386 27.0787 13.3936 26.733C13.065 26.4778 12.7057 26.2629 12.3232 26.0937C11.6701 25.8047 10.9638 25.6554 10.2497 25.6554C9.53551 25.6554 8.82923 25.8047 8.17613 26.0937C7.64784 26.3274 7.16379 26.6483 6.74384 27.0422C6.55397 27.2202 6.30877 27.3333 6.04847 27.3333C5.53827 27.3333 5.12467 26.9197 5.12467 26.4095V10.5417C5.12467 9.4371 6.0201 8.54167 7.12467 8.54167H20.208C21.3126 8.54167 22.208 9.4371 22.208 10.5417V25.3333ZM30.7497 32.4583C30.4118 32.4583 30.0815 32.3581 29.8006 32.1704C29.5196 31.9827 29.3007 31.7159 29.1714 31.4037C29.0421 31.0916 29.0082 30.7481 29.0742 30.4167C29.1401 30.0853 29.3028 29.7809 29.5417 29.542C29.7806 29.3031 30.085 29.1404 30.4164 29.0745C30.7478 29.0086 31.0913 29.0424 31.4034 29.1717C31.7156 29.301 31.9824 29.52 32.1701 29.8009C32.3578 30.0818 32.458 30.4121 32.458 30.75C32.458 31.2031 32.278 31.6376 31.9576 31.958C31.6373 32.2784 31.2028 32.4583 30.7497 32.4583ZM35.8747 26.4095C35.8747 26.9197 35.4611 27.3333 34.9509 27.3333C34.6906 27.3333 34.4454 27.2202 34.2555 27.0422C33.8356 26.6483 33.3515 26.3274 32.8232 26.0937C32.1701 25.8047 31.4638 25.6554 30.7497 25.6554C30.0355 25.6554 29.3292 25.8047 28.6761 26.0937C28.1478 26.3274 27.6638 26.6483 27.2438 27.0422C27.054 27.2202 26.8088 27.3333 26.5485 27.3333C26.0383 27.3333 25.6247 26.9197 25.6247 26.4095V13.9583C25.6247 12.8538 26.5201 11.9583 27.6247 11.9583H28.453C29.2113 11.9583 29.9044 12.3872 30.2428 13.0658L32.5859 17.7646C32.7801 18.154 33.0958 18.4694 33.4854 18.663L34.765 19.2992C35.4448 19.6371 35.8747 20.3309 35.8747 21.0901V26.4095Z" fill="#292932"/>
<path d="M19.4747 16.3145C19.803 16.5608 19.6289 17.0833 19.2184 17.0833C18.9826 17.0833 18.7913 17.2745 18.7913 17.5103V20.4999C18.7913 21.4434 18.0265 22.2083 17.083 22.2083C16.1395 22.2083 15.3747 21.4434 15.3747 20.4999C15.3747 19.5564 14.6098 18.7916 13.6663 18.7916C12.7229 18.7916 11.958 19.5564 11.958 20.4999C11.958 21.4434 11.1932 22.2083 10.2497 22.2083C9.30619 22.2083 8.54134 21.4434 8.54134 20.4999V17.5103C8.54134 17.2745 8.35013 17.0833 8.11426 17.0833C7.70383 17.0833 7.52966 16.5608 7.85801 16.3145L12.4663 12.8583C13.1775 12.3249 14.1552 12.3249 14.8663 12.8583L19.4747 16.3145Z" fill="#F3794F"/>
</svg>
