<svg width="41" height="41" viewBox="0 0 41 41" fill="none" xmlns="http://www.w3.org/2000/svg">
<path d="M25.6247 13.6667H23.9163V18.7917H20.4997V15.3751H17.083V18.7917H13.6663V13.6667H11.958L18.7913 8.54175L25.6247 13.6667Z" fill="#F3794F"/>
<path d="M29.8521 2.81917C28.8206 1.78772 27.4217 1.20825 25.963 1.20825H8.417C5.37943 1.20825 2.91699 3.67069 2.91699 6.70825V34.2916C2.91699 37.3292 5.37943 39.7916 8.41699 39.7916H29.167C32.2046 39.7916 34.667 37.3291 34.667 34.2916V9.91224C34.667 8.45354 34.0875 7.0546 33.0561 6.02315L29.8521 2.81917ZM31.1805 31.9468C31.1548 34.4137 29.1477 36.3999 26.6807 36.3999H10.5646C8.07934 36.3999 6.06462 34.3852 6.06462 31.8999V9.3928C6.06462 6.90752 8.07934 4.8928 10.5646 4.8928H25.247C26.3874 4.8928 27.4853 5.32581 28.3188 6.1043L29.9709 7.64753C30.8938 8.50967 31.412 9.71999 31.3989 10.9829L31.1805 31.9468Z" fill="#292932" stroke="black"/>
<path d="M23.9167 22.2083H11.9583C11.0148 22.2083 10.25 22.9731 10.25 23.9166C10.25 24.8601 11.0148 25.6249 11.9583 25.6249H23.9167C24.8602 25.6249 25.625 24.8601 25.625 23.9166C25.625 22.9731 24.8602 22.2083 23.9167 22.2083Z" fill="#292932"/>
<path d="M18.7917 29.0417H11.9583C11.0148 29.0417 10.25 29.8066 10.25 30.7501C10.25 31.6936 11.0148 32.4584 11.9583 32.4584H18.7917C19.7352 32.4584 20.5 31.6936 20.5 30.7501C20.5 29.8066 19.7352 29.0417 18.7917 29.0417Z" fill="#292932"/>
<path d="M26.1962 31.8209C25.4135 32.083 24.6683 31.3377 24.9304 30.5551L25.4312 29.0598C25.4803 28.913 25.5628 28.7797 25.6723 28.6702L34.4654 19.8771C34.8569 19.4856 35.492 19.4867 35.8822 19.8796L36.8811 20.8856C37.2695 21.2768 37.2681 21.9085 36.8779 22.2979L28.0809 31.0795C27.9715 31.1886 27.8384 31.2709 27.6919 31.32L26.1962 31.8209Z" fill="#F3794F"/>
</svg>
