<svg width="40" height="40" viewBox="0 0 40 40" fill="none" xmlns="http://www.w3.org/2000/svg">
<path d="M18.3333 8.88325V18.3333H5V8.88325L11.6667 3.33325L18.3333 8.88325Z" fill="white"/>
<path d="M35.0003 27.2167V36.6667H21.667V27.2167L28.3337 21.6667L35.0003 27.2167Z" fill="white"/>
<path d="M17.5913 20.0001C18.9214 20.0001 19.9996 18.9219 19.9996 17.5918V12.9818C19.9996 12.7706 20.2459 12.6553 20.4081 12.7905C20.5138 12.8786 20.671 12.8642 20.759 12.7583L21.6675 11.6653C22.2561 10.9571 22.1597 9.906 21.4521 9.3167L13.5861 2.76568C12.4738 1.83932 10.8587 1.83932 9.74641 2.76568L1.88044 9.3167C1.17286 9.906 1.07646 10.9571 1.66507 11.6653L2.57356 12.7583C2.66155 12.8642 2.81874 12.8786 2.92449 12.7905C3.08669 12.6553 3.33294 12.7706 3.33294 12.9818V17.5918C3.33294 18.9219 4.41116 20.0001 5.7412 20.0001H17.5913ZM15.5868 8.76721C16.2708 9.33719 16.6663 10.1815 16.6663 11.0719V13.6667C16.6663 15.3236 15.3231 16.6667 13.6663 16.6667H9.66628C8.00942 16.6667 6.66628 15.3236 6.66628 13.6667V11.0719C6.66628 10.1815 7.06174 9.33719 7.74572 8.76721L9.74572 7.10054C10.8583 6.17343 12.4743 6.17343 13.5868 7.10054L15.5868 8.76721Z" fill="#292932"/>
<path d="M38.3345 29.9985C38.9231 29.2904 38.8267 28.2392 38.1191 27.6499L30.2531 21.0989C29.1408 20.1726 27.5257 20.1726 26.4134 21.0989L18.5474 27.6499C17.8398 28.2392 17.7435 29.2904 18.3321 29.9985L19.2406 31.0916C19.3285 31.1974 19.4857 31.2118 19.5915 31.1237C19.7537 30.9885 19.9999 31.1039 19.9999 31.315V35.9251C19.9999 37.2551 21.0781 38.3333 22.4082 38.3333H34.2583C35.5884 38.3333 36.6666 37.2551 36.6666 35.9251V31.315C36.6666 31.1039 36.9129 30.9885 37.075 31.1237C37.1808 31.2118 37.338 31.1974 37.426 31.0916L38.3345 29.9985ZM33.3333 32C33.3333 33.6569 31.9901 35 30.3333 35H26.3333C24.6764 35 23.3333 33.6569 23.3333 32V29.4051C23.3333 28.5148 23.7287 27.6704 24.4127 27.1005L26.4127 25.4338C27.5253 24.5067 29.1413 24.5067 30.2538 25.4338L32.2538 27.1005C32.9378 27.6704 33.3333 28.5148 33.3333 29.4051V32Z" fill="#292932"/>
<path d="M12.3333 13.3333H11C10.4477 13.3333 10 13.781 10 14.3333V15.6666C10 16.2189 10.4477 16.6666 11 16.6666H12.3333C12.8856 16.6666 13.3333 16.2189 13.3333 15.6666V14.3333C13.3333 13.781 12.8856 13.3333 12.3333 13.3333Z" fill="#F3794F"/>
<path d="M29.0003 31.6667H27.667C27.1147 31.6667 26.667 32.1145 26.667 32.6667V34.0001C26.667 34.5524 27.1147 35.0001 27.667 35.0001H29.0003C29.5526 35.0001 30.0003 34.5524 30.0003 34.0001V32.6667C30.0003 32.1145 29.5526 31.6667 29.0003 31.6667Z" fill="#F3794F"/>
<path d="M33.8878 15.5298C33.4049 16.2497 32.2974 16.0562 32.0872 15.2153L31.6667 13.5334C31.2975 12.0457 30.4399 10.7248 29.2313 9.78209C28.2876 9.04602 27.1725 8.57368 25.9993 8.40392C25.4517 8.32468 25 7.884 25 7.33067V5.99791C25 5.44645 25.4475 4.99397 25.9964 5.04685C27.3849 5.18061 28.7348 5.59911 29.9603 6.28021C31.0315 6.87554 31.9825 7.6575 32.7705 8.58527C33.2365 9.13402 34.1255 9.15593 34.5362 8.56458L34.7752 8.22037C35.0854 7.77371 35.6957 7.65679 36.149 7.95717L37.2617 8.69453C37.7239 9.00082 37.8487 9.62469 37.5398 10.0852L33.8878 15.5298Z" fill="#F3794F"/>
<path d="M15.0004 34.0022C15.0004 34.5537 14.5529 35.0062 14.004 34.9533C12.6155 34.8195 11.2656 34.401 10.0401 33.7199C8.96889 33.1246 8.01792 32.3426 7.22993 31.4148C6.76386 30.8661 5.87487 30.8442 5.4642 31.4355L5.22517 31.7797C4.91499 32.2264 4.30473 32.3433 3.85142 32.0429L2.73512 31.3032C2.2743 30.9979 2.14867 30.3765 2.45467 29.9161L6.0837 24.4558C6.56143 23.737 7.6642 23.9204 7.88366 24.7551L8.33372 26.4668C8.70294 27.9544 9.56045 29.2753 10.7691 30.218C11.7128 30.9541 12.8279 31.4264 14.0011 31.5962C14.5487 31.6754 15.0004 32.1161 15.0004 32.6694V34.0022Z" fill="#F3794F"/>
</svg>
