<svg width="22" height="19" viewBox="0 0 22 19" fill="none" xmlns="http://www.w3.org/2000/svg">
<path d="M17.8045 15.8619L16.1112 14.1686C16.4605 13.6412 16.6665 13.0112 16.6665 12.3333C16.6665 10.4953 15.1712 9 13.3333 9C11.4953 9 10 10.4953 10 12.3333C10 14.1712 11.4953 15.6665 13.3333 15.6665C14.0112 15.6665 14.6412 15.4605 15.1686 15.1112L16.8619 16.8045C17.1225 17.0652 17.5438 17.0652 17.8045 16.8045C18.0652 16.5438 18.0652 16.1225 17.8045 15.8619ZM13.3333 14.3332C12.2306 14.3332 11.3333 13.4359 11.3333 12.3333C11.3333 11.2306 12.2306 10.3333 13.3333 10.3333C14.4359 10.3333 15.3332 11.2306 15.3332 12.3333C15.3332 13.4359 14.4359 14.3332 13.3333 14.3332Z" fill="#F3794F"/>
<path d="M17.8381 5.6601V5.7053L17.8721 5.73516L21.6168 9.0316C21.9885 9.35938 21.9954 9.89147 21.6312 10.2252L21.6309 10.2256C21.2635 10.5658 20.6524 10.5739 20.2729 10.2392L20.2729 10.2391L11.1455 2.20304L11.0794 2.14486L11.0134 2.20305L2.8114 9.42495L2.6126 9.6H2.87749H4.22074C4.75909 9.6 5.17592 9.99039 5.17592 10.45V16.625C5.17592 16.9522 5.46838 17.2 5.80351 17.2H9.49666C10.035 17.2 10.4518 17.5904 10.4518 18.05C10.4518 18.5096 10.035 18.9 9.49666 18.9H5.80351C4.39353 18.9 3.26555 17.8693 3.26555 16.625V11.4V11.3H3.16555H1.58278C0.755231 11.3 0.1 10.6958 0.1 9.975C0.1 9.61885 0.255106 9.28371 0.541894 9.03172L0.541967 9.03166L10.4079 0.345807L10.408 0.345756C10.7796 0.0181241 11.3782 0.0180104 11.751 0.34584L15.7617 3.87696L15.9278 4.02318V3.8019V1.9C15.9278 1.44039 16.3446 1.05 16.8829 1.05C17.4213 1.05 17.8381 1.44039 17.8381 1.9V5.6601ZM2.99106 9.4H2.87749V9.5L2.94357 9.57505L3.02881 9.5H4.22074C4.80425 9.5 5.27592 9.9256 5.27592 10.45V16.625C5.27592 16.8872 5.51334 17.1 5.80351 17.1H9.49666C10.0802 17.1 10.5518 17.5256 10.5518 18.05C10.5518 18.5744 10.0802 19 9.49666 19H5.80351C4.34841 19 3.16555 17.9341 3.16555 16.625V11.5V11.4H3.06555H1.58278C0.710139 11.4 0 10.7606 0 9.975C0 9.58835 0.16883 9.2264 0.475888 8.9566L2.99106 9.4Z" fill="black" stroke="#F9F9FA" stroke-width="0.2"/>
</svg>
