<svg width="22" height="22" viewBox="0 0 22 22" fill="none" xmlns="http://www.w3.org/2000/svg">
<path d="M19.0282 4.4696C18.7393 4.14512 18.2615 4.05091 17.8393 4.17652C16.9392 4.45913 15.917 4.38586 15.028 3.91484C14.1391 3.43336 13.5613 2.63786 13.3613 1.7691C13.2613 1.35041 12.9279 1.005 12.4835 0.942197C11.3723 0.774724 10.2167 0.774724 9.08329 0.952664C8.63882 1.02593 8.31658 1.36088 8.21658 1.77956C8.01657 2.6588 7.44987 3.45429 6.56094 3.94624C5.672 4.4382 4.64973 4.501 3.74969 4.22885C3.32744 4.10325 2.84964 4.19745 2.56074 4.52193C1.83848 5.36976 1.27178 6.3118 0.882873 7.30617C0.72731 7.70392 0.882873 8.14354 1.21622 8.41568C1.91626 9.02277 2.36073 9.89154 2.37184 10.8545C2.37184 11.8279 1.92737 12.6862 1.22734 13.2933C0.893985 13.5759 0.749533 14.0156 0.905097 14.4028C1.10511 14.8948 1.34956 15.3867 1.63847 15.8578C1.92737 16.3288 2.26072 16.7684 2.61629 17.1766C2.9052 17.5011 3.383 17.5953 3.80524 17.4697C4.70529 17.1871 5.72756 17.2603 6.6165 17.7314C7.50543 18.2129 8.08324 19.0083 8.28325 19.8771C8.38325 20.2853 8.70549 20.6307 9.14996 20.6935C10.2722 20.861 11.4167 20.861 12.5501 20.6831C12.9946 20.6098 13.3168 20.2749 13.4168 19.8562C13.6169 18.9769 14.1835 18.1815 15.0725 17.6895C15.9614 17.1975 16.9837 17.1347 17.8837 17.4069C18.3171 17.5325 18.7949 17.4383 19.0727 17.1033C19.7949 16.2555 20.3616 15.3135 20.7617 14.3191C20.9172 13.9214 20.7617 13.4817 20.4283 13.2096C19.7172 12.613 19.2727 11.7442 19.2616 10.7812C19.2616 9.8078 19.706 8.9495 20.4061 8.34241C20.7394 8.0598 20.8839 7.62018 20.7283 7.2329C20.5283 6.74095 20.2839 6.249 19.995 5.77798C19.7172 5.30696 19.3838 4.87781 19.0282 4.4696Z" stroke="black" stroke-width="1.2" stroke-miterlimit="10" stroke-linecap="round" stroke-linejoin="round"/>
<path d="M10.8271 13.9214C12.6436 13.9214 14.1162 12.5342 14.1162 10.8231C14.1162 9.11199 12.6436 7.72485 10.8271 7.72485C9.01065 7.72485 7.53809 9.11199 7.53809 10.8231C7.53809 12.5342 9.01065 13.9214 10.8271 13.9214Z" stroke="#F3794F" stroke-width="1.2" stroke-miterlimit="10" stroke-linecap="round" stroke-linejoin="round"/>
</svg>
