<svg width="24" height="22" viewBox="0 0 24 22" fill="none" xmlns="http://www.w3.org/2000/svg">
<path d="M16.9254 3.72192V5.02341L20.0981 7.81617V3.72185C20.0807 2.87164 19.3945 2.18627 18.5439 2.16871L16.9254 3.72192ZM16.9254 3.72192C16.9434 2.84631 17.668 2.15121 18.5439 2.16871L16.9254 3.72192ZM15.6898 3.94282L13.9917 2.44729L13.9915 2.4471C12.854 1.45094 11.1544 1.45094 10.0169 2.4471L10.0167 2.44721L1.23805 10.1599L1.23794 10.16C0.981774 10.3857 0.957079 10.7768 1.18276 11.033C1.40845 11.2891 1.79959 11.3138 2.05574 11.0882L2.66567 10.5515V18.5939L2.66567 18.594C2.66711 19.9776 3.78816 21.0986 5.17168 21.1001H5.17178H12.0007C12.3418 21.1001 12.6185 20.8233 12.6185 20.4822C12.6185 20.1412 12.3418 19.8644 12.0007 19.8644H5.17049C4.46895 19.8638 3.90056 19.2954 3.89992 18.5939V9.46487L10.8287 3.37289C10.8287 3.37286 10.8288 3.37283 10.8288 3.3728C11.4995 2.78525 12.5021 2.78528 13.1728 3.37289L20.2819 9.62453L20.2818 9.62461L20.2855 9.62753L20.2905 9.63159L21.9457 11.0888C22.2021 11.3147 22.5925 11.2889 22.818 11.033C23.0439 10.7766 23.0181 10.3862 22.7621 10.1607L22.7621 10.1606L21.3323 8.90354V3.7209V3.72077C21.3302 2.16401 20.069 0.902131 18.5123 0.899267L18.512 0.899268C16.9538 0.900699 15.6912 2.16258 15.6898 3.72081V3.7209V3.94282Z" fill="black" stroke="black" stroke-width="0.2"/>
<path d="M12.0008 6.26758C10.6206 6.26896 9.50285 7.38744 9.50146 8.76759C9.50216 10.1477 10.6213 11.2669 12.0015 11.2662C13.3816 11.2655 14.5008 10.1464 14.5001 8.76621C14.4994 7.38606 13.3809 6.26758 12.0008 6.26758ZM12.0001 10.2299C11.1916 10.2292 10.5364 9.574 10.5371 8.76552C10.5378 7.95773 11.193 7.30252 12.0008 7.30252C12.8093 7.30321 13.4638 7.95842 13.4645 8.7669C13.4638 9.57538 12.8086 10.2306 12.0001 10.2299Z" fill="#F3794F"/>
<path d="M21.1227 15.7466H19.1303V13.7542C19.1303 13.269 18.7365 12.8752 18.2513 12.8752C17.7661 12.8752 17.3723 13.269 17.3723 13.7542V15.7466H15.38C14.8948 15.7466 14.501 16.1404 14.501 16.6256C14.501 17.1108 14.8948 17.5046 15.38 17.5046H17.3723V19.4969C17.3723 19.9821 17.7661 20.3759 18.2513 20.3759C18.7365 20.3759 19.1303 19.9821 19.1303 19.4969V17.5046H21.1227C21.6079 17.5046 22.0016 17.1108 22.0016 16.6256C22.0016 16.1392 21.6079 15.7466 21.1227 15.7466Z" fill="#F3794F"/>
</svg>
