<svg width="24" height="24" viewBox="0 0 24 24" fill="none" xmlns="http://www.w3.org/2000/svg">
<g clip-path="url(#clip0_321_8022)">
<path d="M8.61133 14.9168L10.7194 19.5162C10.7194 19.5163 10.7195 19.5164 10.7195 19.5165C10.9073 19.9362 10.9871 20.3962 10.9518 20.8547C10.9164 21.3133 10.7669 21.7557 10.5169 22.1417C10.2669 22.5278 9.92428 22.8452 9.52029 23.065C9.11631 23.2849 8.66375 23.4002 8.20382 23.4005C7.62416 23.4003 7.05698 23.2321 6.57093 22.9162C6.08486 22.6004 5.70078 22.1504 5.46517 21.6207L5.46506 21.6205L2.04175 13.9803L2.03171 13.9579L2.01244 13.9427C1.5738 13.5966 1.21894 13.1559 0.974303 12.6535C0.729689 12.1512 0.601577 11.6001 0.599512 11.0414V9.12488C0.599512 8.13469 0.992861 7.18506 1.69303 6.4849C2.39319 5.78473 3.34282 5.39138 4.33301 5.39138H11.0416C12.212 5.39138 13.4315 5.13729 14.3616 4.5177C15.2969 3.89472 15.9335 2.90562 15.9335 1.45789C15.9335 1.23023 16.0239 1.0119 16.1849 0.850924C16.3459 0.689947 16.5642 0.599512 16.7919 0.599512C17.0195 0.599512 17.2379 0.689947 17.3988 0.850924C17.5598 1.0119 17.6502 1.23023 17.6502 1.45789V18.7086C17.6502 18.9363 17.5598 19.1546 17.3988 19.3156C17.2379 19.4766 17.0195 19.567 16.7919 19.567C16.5642 19.567 16.3459 19.4766 16.1849 19.3156C16.0239 19.1546 15.9335 18.9363 15.9335 18.7086C15.9335 17.2609 15.2969 16.2718 14.3616 15.6488C13.4315 15.0292 12.212 14.7751 11.0416 14.7751H8.70224H8.5464L8.61133 14.9168ZM9.15595 20.2197L9.15539 20.2185L6.6847 14.8334L6.65796 14.7751H6.59381H4.43364H4.27924L4.34238 14.916L7.03329 20.9207C7.03333 20.9208 7.03337 20.9209 7.03341 20.921C7.13368 21.1477 7.29762 21.3405 7.50533 21.4759C7.71312 21.6114 7.95577 21.6836 8.20381 21.6837H8.20396C8.37739 21.6836 8.54804 21.6402 8.70044 21.5574C8.85284 21.4746 8.98217 21.3551 9.07672 21.2097C9.17126 21.0643 9.22802 20.8977 9.24185 20.7248C9.25569 20.5519 9.22616 20.3783 9.15595 20.2197ZM15.7725 14.571L15.9335 14.6951V14.4918V5.67952V5.47649L15.7725 5.60025C14.4212 6.6393 12.7488 7.17277 11.0454 7.1082L11.0454 7.10813H11.0416H4.33301C3.79813 7.10813 3.28517 7.32061 2.90695 7.69882C2.52874 8.07703 2.31626 8.59 2.31626 9.12488V11.0416C2.31626 11.5765 2.52874 12.0895 2.90695 12.4677C3.28517 12.8459 3.79813 13.0584 4.33301 13.0584H11.0416V13.0584L11.0453 13.0583C12.7493 12.9951 14.4217 13.5302 15.7725 14.571Z" fill="black" stroke="#F9F9F9" stroke-width="0.2"/>
</g>
<g clip-path="url(#clip1_321_8022)">
<path fill-rule="evenodd" clip-rule="evenodd" d="M23.1755 15.604C23.2706 15.5215 23.3484 15.421 23.4046 15.3083V15.3035C23.5169 15.0765 23.5347 14.8144 23.4542 14.5743C23.3738 14.3342 23.2016 14.1357 22.9753 14.0222L21.0586 13.0638C20.8311 12.9502 20.5678 12.9316 20.3266 13.0121C20.0854 13.0926 19.886 13.2657 19.7724 13.4931C19.6588 13.7206 19.6402 13.9839 19.7207 14.2251C19.8012 14.4663 19.9743 14.6657 20.2018 14.7793L22.1185 15.7377C22.2311 15.794 22.3538 15.8275 22.4794 15.8364C22.605 15.8453 22.7311 15.8294 22.8506 15.7895C22.97 15.7496 23.0804 15.6866 23.1755 15.604ZM19.6736 6.32208C19.6825 6.44769 19.7161 6.57031 19.7724 6.68294C19.8286 6.79562 19.9065 6.89612 20.0016 6.97868C20.0967 7.06125 20.2071 7.12427 20.3265 7.16414C20.446 7.20402 20.5721 7.21996 20.6977 7.21107C20.8233 7.20217 20.9459 7.16861 21.0586 7.1123L22.9753 6.15392C23.2028 6.0403 23.3758 5.84097 23.4563 5.59977C23.5369 5.35858 23.5183 5.09527 23.4046 4.86778C23.291 4.6403 23.0917 4.46726 22.8505 4.38674C22.6093 4.30622 22.346 4.32482 22.1185 4.43843L20.2018 5.39681C20.0891 5.45302 19.9886 5.53089 19.906 5.62597C19.8235 5.72104 19.7604 5.83146 19.7206 5.9509C19.6807 6.07034 19.6647 6.19647 19.6736 6.32208ZM19.9477 9.40558C19.768 9.58531 19.667 9.82908 19.667 10.0833C19.667 10.3374 19.768 10.5812 19.9477 10.7609C20.1274 10.9407 20.3712 11.0416 20.6254 11.0416H22.5421C22.7963 11.0416 23.0401 10.9407 23.2198 10.7609C23.3995 10.5812 23.5005 10.3374 23.5005 10.0833C23.5005 9.82908 23.3995 9.58531 23.2198 9.40558C23.0401 9.22585 22.7963 9.12488 22.5421 9.12488H20.6254C20.3712 9.12488 20.1274 9.22585 19.9477 9.40558Z" fill="#F3794F"/>
</g>
<defs>
<clipPath id="clip0_321_8022">
<rect width="23.001" height="23.001" fill="white" transform="translate(0.499512 0.499512)"/>
</clipPath>
<clipPath id="clip1_321_8022">
<rect width="23.001" height="23.001" fill="white" transform="translate(0.499512 0.499512)"/>
</clipPath>
</defs>
</svg>
