<svg width="22" height="20" viewBox="0 0 22 20" fill="none" xmlns="http://www.w3.org/2000/svg">
<path d="M17.8045 16.3614L16.1112 14.6681C16.4605 14.1407 16.6665 13.5108 16.6665 12.8328C16.6665 10.9948 15.1712 9.49951 13.3333 9.49951C11.4953 9.49951 10 10.9948 10 12.8328C10 14.6707 11.4953 16.166 13.3333 16.166C14.0112 16.166 14.6412 15.96 15.1686 15.6107L16.8619 17.304C17.1225 17.5647 17.5438 17.5647 17.8045 17.304C18.0652 17.0434 18.0652 16.622 17.8045 16.3614ZM13.3333 14.8327C12.2306 14.8327 11.3333 13.9354 11.3333 12.8328C11.3333 11.7301 12.2306 10.8328 13.3333 10.8328C14.4359 10.8328 15.3332 11.7301 15.3332 12.8328C15.3332 13.9354 14.4359 14.8327 13.3333 14.8327Z" fill="#F3794F"/>
<path d="M17.8381 6.15961V6.20481L17.8721 6.23467L21.6168 9.53111C21.9885 9.85889 21.9954 10.391 21.6312 10.7247L21.6309 10.7251C21.2635 11.0653 20.6524 11.0734 20.2729 10.7387L20.2729 10.7386L11.1455 2.70256L11.0794 2.64437L11.0134 2.70256L2.8114 9.92446L2.6126 10.0995H2.87749H4.22074C4.75909 10.0995 5.17592 10.4899 5.17592 10.9495V17.1245C5.17592 17.4517 5.46838 17.6995 5.80351 17.6995H9.49666C10.035 17.6995 10.4518 18.0899 10.4518 18.5495C10.4518 19.0091 10.035 19.3995 9.49666 19.3995H5.80351C4.39353 19.3995 3.26555 18.3688 3.26555 17.1245V11.8995V11.7995H3.16555H1.58278C0.755231 11.7995 0.1 11.1953 0.1 10.4745C0.1 10.1184 0.255106 9.78322 0.541894 9.53123L0.541967 9.53117L10.4079 0.845319L10.408 0.845268C10.7796 0.517636 11.3782 0.517522 11.751 0.845352L15.7617 4.37647L15.9278 4.52269V4.30141V2.39951C15.9278 1.9399 16.3446 1.54951 16.8829 1.54951C17.4213 1.54951 17.8381 1.9399 17.8381 2.39951V6.15961Z" fill="black" stroke="#F9F9FA" stroke-width="0.2"/>
</svg>
