<svg width="24" height="24" viewBox="0 0 24 24" fill="none" xmlns="http://www.w3.org/2000/svg">
<path fill-rule="evenodd" clip-rule="evenodd" d="M7.792 22.042C8.84 23.287 10.374 24.001 12 24.001C13.626 24.001 15.16 23.286 16.124 22.076C17.744 22.215 19.334 21.636 20.485 20.486C21.635 19.336 22.215 17.746 22.04 16.209C23.286 15.161 24 13.627 24 12.001C24 10.375 23.286 8.84098 22.075 7.87698C22.214 6.25498 21.634 4.66498 20.485 3.51498C19.335 2.36598 17.75 1.78398 16.208 1.95998C15.16 0.714977 13.626 0.000976562 12 0.000976562C10.374 0.000976562 8.84 0.715977 7.876 1.92598C6.252 1.78598 4.665 2.36498 3.515 3.51598C2.365 4.66598 1.785 6.25598 1.96 7.79298C0.714 8.84098 0 10.375 0 12.001C0 13.627 0.714 15.161 1.925 16.125C1.786 17.747 2.366 19.337 3.515 20.487C4.665 21.636 6.252 22.219 7.792 22.042ZM9.321 20.753C8.954 20.318 8.434 20.077 7.873 20.077C7.817 20.077 7.761 20.079 7.704 20.084C6.682 20.17 5.661 19.804 4.929 19.072C4.197 18.341 3.829 17.329 3.917 16.296C3.971 15.672 3.726 15.082 3.247 14.679C2.455 14.012 2 13.035 2 12.001C2 10.967 2.455 9.98998 3.247 9.32298C3.727 8.91898 3.971 8.32998 3.917 7.70598C3.829 6.67298 4.198 5.66098 4.929 4.92998C5.661 4.19798 6.666 3.82798 7.705 3.91798C8.328 3.96698 8.917 3.72698 9.321 3.24798C9.989 2.45498 10.965 1.99998 12 1.99998C13.035 1.99998 14.011 2.45498 14.679 3.24798C15.082 3.72598 15.67 3.97398 16.296 3.91698C17.323 3.83298 18.339 4.19798 19.071 4.92898C19.803 5.65998 20.171 6.67198 20.083 7.70498C20.029 8.32898 20.274 8.91898 20.753 9.32198C21.545 9.98898 22 10.966 22 12C22 13.034 21.545 14.011 20.753 14.678C20.273 15.082 20.029 15.671 20.083 16.295C20.171 17.328 19.802 18.34 19.071 19.071C18.339 19.803 17.329 20.17 16.295 20.083C15.669 20.032 15.082 20.274 14.679 20.753C14.011 21.546 13.035 22.001 12 22.001C10.965 22.001 9.989 21.546 9.321 20.753Z" fill="black"/>
<path fill-rule="evenodd" clip-rule="evenodd" d="M8 9.001C8 8.449 8.448 8.001 9 8.001C9.552 8.001 10 8.449 10 9.001C10 9.553 9.552 10.001 9 10.001C8.448 10.001 8 9.553 8 9.001ZM14 15.001C14 14.449 14.448 14.001 15 14.001C15.552 14.001 16 14.449 16 15.001C16 15.553 15.552 16.001 15 16.001C14.448 16.001 14 15.553 14 15.001ZM14.832 9.556L10.832 15.556C10.64 15.845 10.322 16.001 9.999 16.001C9.808 16.001 9.616 15.947 9.445 15.833C8.985 15.527 8.861 14.905 9.168 14.446L13.168 8.446C13.474 7.987 14.094 7.861 14.555 8.169C15.015 8.475 15.139 9.097 14.832 9.556Z" fill="#F3794F"/>
</svg>
