<?xml version="1.0" encoding="utf-8"?>
<!-- Generator: Adobe Illustrator 26.2.1, SVG Export Plug-In . SVG Version: 6.00 Build 0)  -->
<svg version="1.1" id="Layer_1" xmlns="http://www.w3.org/2000/svg" xmlns:xlink="http://www.w3.org/1999/xlink" x="0px" y="0px"
	 viewBox="0 0 512 512" style="enable-background:new 0 0 512 512;" xml:space="preserve">
<style type="text/css">
	.st0{fill:#FE834C;}
</style>
<path d="M505.9,299.7c-2.4-3.6-7.3-4.5-10.9-2.1c-19,13-38,26.8-56.5,41c-2.7,2.1-7.5,3.6-9.1,1.3l-64-97.6c0.7-1.4,2-2.9,4.2-4.2
	c13.7-8.3,27.3-17,40.6-25.8c3.6-2.4,4.6-7.3,2.2-10.9c-2.4-3.6-7.3-4.6-10.9-2.2c-13,8.7-26.5,17.2-40,25.4
	c-4.6,2.8-8.1,6.6-10.2,11c-0.9,0-191.3,0-190.4,0c-2.1-4.3-5.7-8.2-10.2-11c-13.5-8.2-27-16.8-40-25.5c-3.6-2.4-8.5-1.4-10.9,2.2
	s-1.4,8.5,2.2,10.9c13.2,8.8,26.9,17.4,40.6,25.8c1.9,1.2,3.9,3.8,3.9,3.8c-5.7,8.8-21.7,33.3-61.8,95.1c-0.8,0.3-2.5,8-11,1.4
	C55,324.4,36,310.6,17,297.7c-3.6-2.4-8.5-1.5-10.9,2.1c-2.4,3.6-1.5,8.5,2.1,10.9c18.7,12.8,37.5,26.4,55.8,40.5
	c10.5,8.1,24.8,7.8,31.7-2.2l3.3-4.8c7.9,7.2,9.6,10.8,12.7,17.6c-1.9,1.5-3.7,3.1-5.2,5.2c-8.8,11.9-6.6,29,5.7,38.1l1,0.7
	c5.1,3.8,11.1,5.7,18.7,5c0.6,7.8,4.3,15.3,11.1,20.3h0c5.7,4.2,12.8,6.3,21.2,4.9c0.9,7.3,4.7,14.2,11,18.9
	c6.1,4.5,13.6,6.6,22.3,4.8c1.1,6,4.4,11.7,9.7,15.6c4.5,3.3,9.8,5,15,5c6.8,0,13.3-2.8,18.2-8c13.5,7.4,29.5,2.9,37.6-8.9
	c2.6-3.8,4.3-8.1,4.8-12.6l3.6,2.6c13.1,9,31.1,5.6,40-7.4c2.6-3.8,4.3-8.2,4.8-12.7c12.8,7.6,29.7,4.2,38.4-8.5
	c2.7-3.9,4.3-8.2,4.9-12.7l0.3,0.2c13.1,9,31.1,5.6,40-7.4c8.9-13,5.7-30.9-7.3-39.9l-1.3-1l16-9.7c8.1,4.8,18.4,2.9,26-3
	c18.3-14.1,37-27.7,55.8-40.5C507.4,308.2,508.4,303.3,505.9,299.7L505.9,299.7z M139.9,388.2c-0.8,1.1-3.1,4.3-3.2,4.5
	c-4,3.4-9.9,3.7-14.3,0.5c0,0,0,0,0,0l-1-0.7c-5.1-3.8-6.2-11-2.4-16.1c3.8-5.1,11-6.2,16.2-2.4l1,0.7
	C140.4,377.7,141.8,383.4,139.9,388.2L139.9,388.2z M169.1,415.9c-4,5.4-11.6,6.5-17,2.5c-5.2-3.8-6.4-11.1-2.9-16.4
	c1.3-1.4,7-9.6,9.1-12.4c4-5.5,11.7-6.5,17-2.5c5.4,4,6.5,11.6,2.5,17L169.1,415.9z M201.3,439.7c-4.1,5.5-11.7,6.4-17,2.5h0
	c-5.4-4-6.5-11.6-2.5-17l16.6-22.4c4-5.4,11.6-6.5,17-2.5c5.4,4,6.5,11.6,2.5,17L201.3,439.7z M232,457.5l-2.3,3.1
	c-3.2,4.3-9.2,5.2-13.5,2h0c-4.3-3.2-5.2-9.2-2-13.5l2.3-3.1c3.2-4.3,9.2-5.2,13.5-2C234.3,447.2,235.2,453.3,232,457.5z
	 M401.7,395.9c-4.1,5.9-12.2,7.5-18.2,3.4l-81.5-55.8c-3.6-2.5-8.5-1.5-10.9,2c-0.9,1.4-1.4,2.9-1.4,4.4c0,2.5,1.2,5,3.4,6.5
	l60.1,41.3c5.9,4,7.5,12.1,3.4,18.2c-4.1,5.9-12.2,7.5-18.2,3.4L278.2,378c-3.1-2.1-7.2-1.8-9.9,0.8l-0.6,0.6
	c-1.7,1.6-2.6,4-2.4,6.4c0.2,2.4,1.5,4.5,3.5,5.9l41.1,27.2c6,4.1,7.5,12.2,3.4,18.2c-4.1,5.9-12.3,7.5-18.1,3.5l-38.7-27.6
	c-3.5-2.5-8.4-1.7-10.9,1.7c-2.5,3.5-1.8,8.3,1.6,10.9l14.2,10.8c5.9,4.1,7.5,12.2,3.4,18.2c-3.8,5.5-11,7.2-16.3,4.5
	c3.2-10.7-0.8-21.4-9.1-27.6c-2.9-2.1-6-3.5-9.3-4.3l0.4-0.5c9.1-12.3,6.5-29.8-5.8-39c-9.3-6.9-21.5-7.1-30.9-1.5
	c-1.9-4.5-4.8-8.7-9.1-11.8c-6-4.4-13.3-6.3-20.7-5.2c-3.6,0.5-7,1.8-10,3.5c-1.9-4.3-4.7-8-8.6-10.9l-1-0.7
	c-5.5-4-11.9-5.6-18.2-5.1c-4.4-9.7-7.2-15.3-18.2-24.9c79-115.6,41.2-60.3,51.9-75.9c0.8-1.2,1.4-2.4,1.9-3.7h35.6
	c-16.8,9.6-27.2,27.6-27.2,47v9.8c0,12.7,12.3,21.6,24.3,17.9c8.8-2.7,16.1-9.2,21.1-18.6c10.3-19.4,37.2-19.5,48.5-4
	c5.8,8,17.2,17.6,38.1,17.6c8.2,0,16.2,2.4,23,7.1l61.7,41.8c0,0,0.1,0.1,0.1,0.1l11.3,7.6c0,0,0,0,0,0
	C404.3,381.8,405.8,389.9,401.7,395.9L401.7,395.9z M391.7,354.2l-57.7-39c-9.4-6.4-20.4-9.8-31.8-9.8c-11.5,0-20-3.8-25.4-11.1
	c-17.9-24.7-59.2-24-75.1,5.9c-3.1,5.8-7.1,9.5-11.9,11c-2,0.6-4-0.8-4-2.9v-9.8c0-13.9,7.6-26.8,19.7-33.6l23.9-13.3h120.7
	c0.5,1.3,1.1,2.5,1.9,3.7l59.6,86.8L391.7,354.2z"/>
<path d="M256,199.8c46.4,0,84.1-37.7,84.1-84s-37.7-84-84.1-84c-46.3,0-84,37.7-84,84S209.6,199.8,256,199.8z M256,47.5
	c37.7,0,68.4,30.6,68.4,68.3c0,37.7-30.7,68.3-68.4,68.3c-37.7,0-68.3-30.6-68.3-68.3C187.6,78.1,218.3,47.5,256,47.5z"/>
<path class="st0" d="M238.8,139.9c3.1,3.1,8,3.1,11.1,0l37.1-37.1c3.1-3.1,3.1-8,0-11.1c-3.1-3.1-8-3.1-11.1,0l-31.6,31.6l-8.3-8.3
	c-3.1-3.1-8-3.1-11.1,0c-3.1,3.1-3.1,8,0,11.1L238.8,139.9z"/>
</svg>
